G04 #@! TF.GenerationSoftware,KiCad,Pcbnew,(5.1.6)-1*
G04 #@! TF.CreationDate,2020-10-22T22:28:54+09:00*
G04 #@! TF.ProjectId,Antilog_NPNO_PCB,416e7469-6c6f-4675-9f4e-504e4f5f5043,Ver. 1.1*
G04 #@! TF.SameCoordinates,Original*
G04 #@! TF.FileFunction,Copper,L2,Bot*
G04 #@! TF.FilePolarity,Positive*
%FSLAX46Y46*%
G04 Gerber Fmt 4.6, Leading zero omitted, Abs format (unit mm)*
G04 Created by KiCad (PCBNEW (5.1.6)-1) date 2020-10-22 22:28:54*
%MOMM*%
%LPD*%
G01*
G04 APERTURE LIST*
G04 #@! TA.AperFunction,ComponentPad*
%ADD10O,1.600000X1.600000*%
G04 #@! TD*
G04 #@! TA.AperFunction,ComponentPad*
%ADD11R,1.600000X1.600000*%
G04 #@! TD*
G04 #@! TA.AperFunction,ComponentPad*
%ADD12C,1.440000*%
G04 #@! TD*
G04 #@! TA.AperFunction,ComponentPad*
%ADD13C,1.800000*%
G04 #@! TD*
G04 #@! TA.AperFunction,ComponentPad*
%ADD14C,1.600000*%
G04 #@! TD*
G04 #@! TA.AperFunction,ComponentPad*
%ADD15R,1.500000X1.500000*%
G04 #@! TD*
G04 #@! TA.AperFunction,ComponentPad*
%ADD16C,1.500000*%
G04 #@! TD*
G04 #@! TA.AperFunction,ComponentPad*
%ADD17O,1.700000X2.000000*%
G04 #@! TD*
G04 #@! TA.AperFunction,ComponentPad*
%ADD18O,1.700000X1.950000*%
G04 #@! TD*
G04 #@! TA.AperFunction,ComponentPad*
%ADD19O,1.700000X1.700000*%
G04 #@! TD*
G04 #@! TA.AperFunction,ComponentPad*
%ADD20R,1.700000X1.700000*%
G04 #@! TD*
G04 #@! TA.AperFunction,ComponentPad*
%ADD21O,1.950000X1.700000*%
G04 #@! TD*
G04 #@! TA.AperFunction,ComponentPad*
%ADD22R,1.800000X1.800000*%
G04 #@! TD*
G04 #@! TA.AperFunction,Conductor*
%ADD23C,0.750000*%
G04 #@! TD*
G04 #@! TA.AperFunction,Conductor*
%ADD24C,0.254000*%
G04 #@! TD*
G04 APERTURE END LIST*
D10*
G04 #@! TO.P,U1,8*
G04 #@! TO.N,+12V*
X139700000Y-99314000D03*
G04 #@! TO.P,U1,4*
G04 #@! TO.N,-12V*
X132080000Y-91694000D03*
G04 #@! TO.P,U1,7*
G04 #@! TO.N,Net-(R11-Pad1)*
X137160000Y-99314000D03*
G04 #@! TO.P,U1,3*
G04 #@! TO.N,GND*
X134620000Y-91694000D03*
G04 #@! TO.P,U1,6*
G04 #@! TO.N,Net-(R10-Pad2)*
X134620000Y-99314000D03*
G04 #@! TO.P,U1,2*
G04 #@! TO.N,Net-(C5-Pad2)*
X137160000Y-91694000D03*
G04 #@! TO.P,U1,5*
G04 #@! TO.N,GND*
X132080000Y-99314000D03*
D11*
G04 #@! TO.P,U1,1*
G04 #@! TO.N,Net-(C5-Pad1)*
X139700000Y-91694000D03*
G04 #@! TD*
D12*
G04 #@! TO.P,RV4,3*
G04 #@! TO.N,Net-(R12-Pad2)*
X127635000Y-112395000D03*
G04 #@! TO.P,RV4,2*
G04 #@! TO.N,Net-(R11-Pad1)*
X127635000Y-109855000D03*
G04 #@! TO.P,RV4,1*
X127635000Y-107315000D03*
G04 #@! TD*
G04 #@! TO.P,RV3,3*
G04 #@! TO.N,-12V*
X148590000Y-74930000D03*
G04 #@! TO.P,RV3,2*
G04 #@! TO.N,Net-(R10-Pad1)*
X148590000Y-77470000D03*
G04 #@! TO.P,RV3,1*
G04 #@! TO.N,+12V*
X148590000Y-80010000D03*
G04 #@! TD*
D13*
G04 #@! TO.P,RV2,1*
G04 #@! TO.N,Net-(R5-Pad2)*
X166370000Y-86360000D03*
G04 #@! TO.P,RV2,2*
G04 #@! TO.N,Net-(J5-Pad1)*
X166370000Y-83860000D03*
G04 #@! TO.P,RV2,3*
G04 #@! TO.N,Net-(R6-Pad1)*
X166370000Y-81360000D03*
G04 #@! TD*
G04 #@! TO.P,RV1,1*
G04 #@! TO.N,Net-(J4-Pad1)*
X166370000Y-106680000D03*
G04 #@! TO.P,RV1,2*
G04 #@! TO.N,Net-(R7-Pad2)*
X166370000Y-104180000D03*
G04 #@! TO.P,RV1,3*
G04 #@! TO.N,GND*
X166370000Y-101680000D03*
G04 #@! TD*
D10*
G04 #@! TO.P,R16,2*
G04 #@! TO.N,Net-(Q2-Pad2)*
X129540000Y-81915000D03*
D14*
G04 #@! TO.P,R16,1*
G04 #@! TO.N,Net-(J7-Pad1)*
X121920000Y-81915000D03*
G04 #@! TD*
D10*
G04 #@! TO.P,R15,2*
G04 #@! TO.N,Net-(C5-Pad1)*
X140970000Y-85344000D03*
D14*
G04 #@! TO.P,R15,1*
G04 #@! TO.N,Net-(Q1-Pad1)*
X133350000Y-85344000D03*
G04 #@! TD*
D10*
G04 #@! TO.P,R14,2*
G04 #@! TO.N,Net-(C5-Pad2)*
X135890000Y-88519000D03*
D14*
G04 #@! TO.P,R14,1*
G04 #@! TO.N,Net-(J6-Pad1)*
X128270000Y-88519000D03*
G04 #@! TD*
D10*
G04 #@! TO.P,R13,2*
G04 #@! TO.N,GND*
X137160000Y-72390000D03*
D14*
G04 #@! TO.P,R13,1*
G04 #@! TO.N,Net-(Q1-Pad3)*
X137160000Y-80010000D03*
G04 #@! TD*
D10*
G04 #@! TO.P,R12,2*
G04 #@! TO.N,Net-(R12-Pad2)*
X125095000Y-93980000D03*
D14*
G04 #@! TO.P,R12,1*
G04 #@! TO.N,Net-(Q1-Pad3)*
X125095000Y-86360000D03*
G04 #@! TD*
D10*
G04 #@! TO.P,R11,2*
G04 #@! TO.N,Net-(R10-Pad2)*
X135255000Y-102870000D03*
D14*
G04 #@! TO.P,R11,1*
G04 #@! TO.N,Net-(R11-Pad1)*
X127635000Y-102870000D03*
G04 #@! TD*
D10*
G04 #@! TO.P,R10,2*
G04 #@! TO.N,Net-(R10-Pad2)*
X137668000Y-102870000D03*
D14*
G04 #@! TO.P,R10,1*
G04 #@! TO.N,Net-(R10-Pad1)*
X145288000Y-102870000D03*
G04 #@! TD*
D10*
G04 #@! TO.P,R9,2*
G04 #@! TO.N,Net-(J5-Pad1)*
X160655000Y-85090000D03*
D14*
G04 #@! TO.P,R9,1*
G04 #@! TO.N,Net-(R10-Pad2)*
X153035000Y-85090000D03*
G04 #@! TD*
D10*
G04 #@! TO.P,R8,2*
G04 #@! TO.N,Net-(J3-Pad2)*
X153035000Y-107950000D03*
D14*
G04 #@! TO.P,R8,1*
G04 #@! TO.N,Net-(R10-Pad2)*
X153035000Y-100330000D03*
G04 #@! TD*
D10*
G04 #@! TO.P,R7,2*
G04 #@! TO.N,Net-(R7-Pad2)*
X161290000Y-100330000D03*
D14*
G04 #@! TO.P,R7,1*
G04 #@! TO.N,Net-(R10-Pad2)*
X161290000Y-107950000D03*
G04 #@! TD*
D10*
G04 #@! TO.P,R6,2*
G04 #@! TO.N,-12V*
X153035000Y-81915000D03*
D14*
G04 #@! TO.P,R6,1*
G04 #@! TO.N,Net-(R6-Pad1)*
X160655000Y-81915000D03*
G04 #@! TD*
D10*
G04 #@! TO.P,R5,2*
G04 #@! TO.N,Net-(R5-Pad2)*
X160655000Y-88265000D03*
D14*
G04 #@! TO.P,R5,1*
G04 #@! TO.N,+12V*
X153035000Y-88265000D03*
G04 #@! TD*
D10*
G04 #@! TO.P,R4,2*
G04 #@! TO.N,-12V*
X149860000Y-100330000D03*
D14*
G04 #@! TO.P,R4,1*
G04 #@! TO.N,Net-(J3-Pad3)*
X149860000Y-107950000D03*
G04 #@! TD*
D10*
G04 #@! TO.P,R3,2*
G04 #@! TO.N,Net-(J3-Pad1)*
X156210000Y-107950000D03*
D14*
G04 #@! TO.P,R3,1*
G04 #@! TO.N,+12V*
X156210000Y-100330000D03*
G04 #@! TD*
D10*
G04 #@! TO.P,R2,2*
G04 #@! TO.N,-12V*
X110490000Y-95250000D03*
D14*
G04 #@! TO.P,R2,1*
G04 #@! TO.N,Net-(D2-Pad1)*
X110490000Y-87630000D03*
G04 #@! TD*
D10*
G04 #@! TO.P,R1,2*
G04 #@! TO.N,Net-(D1-Pad2)*
X110490000Y-107950000D03*
D14*
G04 #@! TO.P,R1,1*
G04 #@! TO.N,+12V*
X110490000Y-100330000D03*
G04 #@! TD*
D15*
G04 #@! TO.P,Q2,1*
G04 #@! TO.N,Net-(Q1-Pad1)*
X133350000Y-78740000D03*
D16*
G04 #@! TO.P,Q2,3*
G04 #@! TO.N,GND*
X133350000Y-73660000D03*
G04 #@! TO.P,Q2,2*
G04 #@! TO.N,Net-(Q2-Pad2)*
X130810000Y-76200000D03*
G04 #@! TD*
D15*
G04 #@! TO.P,Q1,1*
G04 #@! TO.N,Net-(Q1-Pad1)*
X140970000Y-73660000D03*
D16*
G04 #@! TO.P,Q1,3*
G04 #@! TO.N,Net-(Q1-Pad3)*
X140970000Y-78740000D03*
G04 #@! TO.P,Q1,2*
G04 #@! TO.N,Net-(C5-Pad2)*
X143510000Y-76200000D03*
G04 #@! TD*
D17*
G04 #@! TO.P,J7,2*
G04 #@! TO.N,GND*
X124420000Y-74930000D03*
G04 #@! TO.P,J7,1*
G04 #@! TO.N,Net-(J7-Pad1)*
G04 #@! TA.AperFunction,ComponentPad*
G36*
G01*
X121070000Y-75680000D02*
X121070000Y-74180000D01*
G75*
G02*
X121320000Y-73930000I250000J0D01*
G01*
X122520000Y-73930000D01*
G75*
G02*
X122770000Y-74180000I0J-250000D01*
G01*
X122770000Y-75680000D01*
G75*
G02*
X122520000Y-75930000I-250000J0D01*
G01*
X121320000Y-75930000D01*
G75*
G02*
X121070000Y-75680000I0J250000D01*
G01*
G37*
G04 #@! TD.AperFunction*
G04 #@! TD*
G04 #@! TO.P,J6,2*
G04 #@! TO.N,GND*
X114260000Y-74930000D03*
G04 #@! TO.P,J6,1*
G04 #@! TO.N,Net-(J6-Pad1)*
G04 #@! TA.AperFunction,ComponentPad*
G36*
G01*
X110910000Y-75680000D02*
X110910000Y-74180000D01*
G75*
G02*
X111160000Y-73930000I250000J0D01*
G01*
X112360000Y-73930000D01*
G75*
G02*
X112610000Y-74180000I0J-250000D01*
G01*
X112610000Y-75680000D01*
G75*
G02*
X112360000Y-75930000I-250000J0D01*
G01*
X111160000Y-75930000D01*
G75*
G02*
X110910000Y-75680000I0J250000D01*
G01*
G37*
G04 #@! TD.AperFunction*
G04 #@! TD*
G04 #@! TO.P,J5,2*
G04 #@! TO.N,GND*
X158710000Y-74930000D03*
G04 #@! TO.P,J5,1*
G04 #@! TO.N,Net-(J5-Pad1)*
G04 #@! TA.AperFunction,ComponentPad*
G36*
G01*
X155360000Y-75680000D02*
X155360000Y-74180000D01*
G75*
G02*
X155610000Y-73930000I250000J0D01*
G01*
X156810000Y-73930000D01*
G75*
G02*
X157060000Y-74180000I0J-250000D01*
G01*
X157060000Y-75680000D01*
G75*
G02*
X156810000Y-75930000I-250000J0D01*
G01*
X155610000Y-75930000D01*
G75*
G02*
X155360000Y-75680000I0J250000D01*
G01*
G37*
G04 #@! TD.AperFunction*
G04 #@! TD*
G04 #@! TO.P,J4,2*
G04 #@! TO.N,GND*
X158790000Y-113665000D03*
G04 #@! TO.P,J4,1*
G04 #@! TO.N,Net-(J4-Pad1)*
G04 #@! TA.AperFunction,ComponentPad*
G36*
G01*
X162140000Y-112915000D02*
X162140000Y-114415000D01*
G75*
G02*
X161890000Y-114665000I-250000J0D01*
G01*
X160690000Y-114665000D01*
G75*
G02*
X160440000Y-114415000I0J250000D01*
G01*
X160440000Y-112915000D01*
G75*
G02*
X160690000Y-112665000I250000J0D01*
G01*
X161890000Y-112665000D01*
G75*
G02*
X162140000Y-112915000I0J-250000D01*
G01*
G37*
G04 #@! TD.AperFunction*
G04 #@! TD*
D18*
G04 #@! TO.P,J3,3*
G04 #@! TO.N,Net-(J3-Pad3)*
X146765000Y-113665000D03*
G04 #@! TO.P,J3,2*
G04 #@! TO.N,Net-(J3-Pad2)*
X149265000Y-113665000D03*
G04 #@! TO.P,J3,1*
G04 #@! TO.N,Net-(J3-Pad1)*
G04 #@! TA.AperFunction,ComponentPad*
G36*
G01*
X152615000Y-112940000D02*
X152615000Y-114390000D01*
G75*
G02*
X152365000Y-114640000I-250000J0D01*
G01*
X151165000Y-114640000D01*
G75*
G02*
X150915000Y-114390000I0J250000D01*
G01*
X150915000Y-112940000D01*
G75*
G02*
X151165000Y-112690000I250000J0D01*
G01*
X152365000Y-112690000D01*
G75*
G02*
X152615000Y-112940000I0J-250000D01*
G01*
G37*
G04 #@! TD.AperFunction*
G04 #@! TD*
D19*
G04 #@! TO.P,J2,2*
G04 #@! TO.N,GND*
X106680000Y-97790000D03*
D20*
G04 #@! TO.P,J2,1*
X104140000Y-97790000D03*
G04 #@! TD*
D21*
G04 #@! TO.P,J1,3*
G04 #@! TO.N,-12V*
X115570000Y-95330000D03*
G04 #@! TO.P,J1,2*
G04 #@! TO.N,GND*
X115570000Y-97830000D03*
G04 #@! TO.P,J1,1*
G04 #@! TO.N,+12V*
G04 #@! TA.AperFunction,ComponentPad*
G36*
G01*
X116295000Y-101180000D02*
X114845000Y-101180000D01*
G75*
G02*
X114595000Y-100930000I0J250000D01*
G01*
X114595000Y-99730000D01*
G75*
G02*
X114845000Y-99480000I250000J0D01*
G01*
X116295000Y-99480000D01*
G75*
G02*
X116545000Y-99730000I0J-250000D01*
G01*
X116545000Y-100930000D01*
G75*
G02*
X116295000Y-101180000I-250000J0D01*
G01*
G37*
G04 #@! TD.AperFunction*
G04 #@! TD*
D13*
G04 #@! TO.P,D2,2*
G04 #@! TO.N,GND*
X110490000Y-81153000D03*
D22*
G04 #@! TO.P,D2,1*
G04 #@! TO.N,Net-(D2-Pad1)*
X110490000Y-83693000D03*
G04 #@! TD*
D13*
G04 #@! TO.P,D1,2*
G04 #@! TO.N,Net-(D1-Pad2)*
X110490000Y-111633000D03*
D22*
G04 #@! TO.P,D1,1*
G04 #@! TO.N,GND*
X110490000Y-114173000D03*
G04 #@! TD*
D14*
G04 #@! TO.P,C5,2*
G04 #@! TO.N,Net-(C5-Pad2)*
X138510000Y-88519000D03*
G04 #@! TO.P,C5,1*
G04 #@! TO.N,Net-(C5-Pad1)*
X143510000Y-88519000D03*
G04 #@! TD*
G04 #@! TO.P,C4,2*
G04 #@! TO.N,-12V*
X128905000Y-91480000D03*
G04 #@! TO.P,C4,1*
G04 #@! TO.N,GND*
X128905000Y-93980000D03*
G04 #@! TD*
G04 #@! TO.P,C3,2*
G04 #@! TO.N,+12V*
X142875000Y-99274000D03*
G04 #@! TO.P,C3,1*
G04 #@! TO.N,GND*
X142875000Y-96774000D03*
G04 #@! TD*
G04 #@! TO.P,C2,2*
G04 #@! TO.N,-12V*
X116840000Y-88225000D03*
D11*
G04 #@! TO.P,C2,1*
G04 #@! TO.N,GND*
X116840000Y-85725000D03*
G04 #@! TD*
D14*
G04 #@! TO.P,C1,2*
G04 #@! TO.N,GND*
X116840000Y-109815000D03*
D11*
G04 #@! TO.P,C1,1*
G04 #@! TO.N,+12V*
X116840000Y-107315000D03*
G04 #@! TD*
D23*
G04 #@! TO.N,+12V*
X110490000Y-100330000D02*
X115570000Y-100330000D01*
X115570000Y-100330000D02*
X122555000Y-100330000D01*
X142835000Y-99314000D02*
X142875000Y-99274000D01*
X139700000Y-99314000D02*
X142835000Y-99314000D01*
X142875000Y-99274000D02*
X145201000Y-99274000D01*
X147632001Y-101705001D02*
X154834999Y-101705001D01*
X154834999Y-101705001D02*
X156210000Y-100330000D01*
X145201000Y-99274000D02*
X147632001Y-101705001D01*
X156210000Y-91440000D02*
X153035000Y-88265000D01*
X156210000Y-100330000D02*
X156210000Y-91440000D01*
X115570000Y-106045000D02*
X116840000Y-107315000D01*
X115570000Y-100330000D02*
X115570000Y-106045000D01*
X147294999Y-78714999D02*
X148590000Y-80010000D01*
X147294999Y-74308399D02*
X147294999Y-78714999D01*
X147968399Y-73634999D02*
X147294999Y-74308399D01*
X151178515Y-73634999D02*
X147968399Y-73634999D01*
X154410001Y-76866485D02*
X151178515Y-73634999D01*
X154410001Y-86889999D02*
X154410001Y-76866485D01*
X153035000Y-88265000D02*
X154410001Y-86889999D01*
X122555000Y-100330000D02*
X125095000Y-97790000D01*
X138176000Y-97790000D02*
X139700000Y-99314000D01*
X125095000Y-97790000D02*
X138176000Y-97790000D01*
G04 #@! TO.N,-12V*
X115490000Y-95250000D02*
X115570000Y-95330000D01*
X110490000Y-95250000D02*
X115490000Y-95250000D01*
X115570000Y-95330000D02*
X115595001Y-95355001D01*
X129119000Y-91694000D02*
X128905000Y-91480000D01*
X132080000Y-91694000D02*
X129119000Y-91694000D01*
X144885001Y-95355001D02*
X147214999Y-95355001D01*
X150709989Y-84240011D02*
X153035000Y-81915000D01*
X150709989Y-91860011D02*
X150709989Y-84240011D01*
X147214999Y-95355001D02*
X150709989Y-91860011D01*
X149860000Y-98000002D02*
X147214999Y-95355001D01*
X149860000Y-100330000D02*
X149860000Y-98000002D01*
X132080000Y-91694000D02*
X132080000Y-95250000D01*
X132080000Y-95250000D02*
X131974999Y-95355001D01*
X115595001Y-95355001D02*
X131974999Y-95355001D01*
X131974999Y-95355001D02*
X144885001Y-95355001D01*
X115570000Y-89495000D02*
X116840000Y-88225000D01*
X115570000Y-95330000D02*
X115570000Y-89495000D01*
X153035000Y-81915000D02*
X153035000Y-76835000D01*
X151130000Y-74930000D02*
X148590000Y-74930000D01*
X153035000Y-76835000D02*
X151130000Y-74930000D01*
G04 #@! TO.N,Net-(D1-Pad2)*
X110490000Y-107950000D02*
X110490000Y-111633000D01*
G04 #@! TO.N,Net-(D2-Pad1)*
X110490000Y-83693000D02*
X110490000Y-87630000D01*
G04 #@! TD*
D24*
G04 #@! TO.N,GND*
G36*
X167485271Y-70653962D02*
G01*
X167173962Y-70965271D01*
X166929369Y-71331331D01*
X166760890Y-71738075D01*
X166675000Y-72169872D01*
X166675000Y-72610128D01*
X166760890Y-73041925D01*
X166929369Y-73448669D01*
X167173962Y-73814729D01*
X167485271Y-74126038D01*
X167851331Y-74370631D01*
X168258075Y-74539110D01*
X168689872Y-74625000D01*
X169130128Y-74625000D01*
X169561925Y-74539110D01*
X169968669Y-74370631D01*
X170334729Y-74126038D01*
X170646038Y-73814729D01*
X170790001Y-73599273D01*
X170790000Y-115630726D01*
X170646038Y-115415271D01*
X170334729Y-115103962D01*
X169968669Y-114859369D01*
X169561925Y-114690890D01*
X169130128Y-114605000D01*
X168689872Y-114605000D01*
X168258075Y-114690890D01*
X167851331Y-114859369D01*
X167485271Y-115103962D01*
X167173962Y-115415271D01*
X166929369Y-115781331D01*
X166760890Y-116188075D01*
X166675000Y-116619872D01*
X166675000Y-117060128D01*
X166760890Y-117491925D01*
X166929369Y-117898669D01*
X167173962Y-118264729D01*
X167485271Y-118576038D01*
X167700726Y-118720000D01*
X105349274Y-118720000D01*
X105564729Y-118576038D01*
X105876038Y-118264729D01*
X106120631Y-117898669D01*
X106289110Y-117491925D01*
X106375000Y-117060128D01*
X106375000Y-116619872D01*
X106289110Y-116188075D01*
X106120631Y-115781331D01*
X105876038Y-115415271D01*
X105564729Y-115103962D01*
X105518392Y-115073000D01*
X108951928Y-115073000D01*
X108964188Y-115197482D01*
X109000498Y-115317180D01*
X109059463Y-115427494D01*
X109138815Y-115524185D01*
X109235506Y-115603537D01*
X109345820Y-115662502D01*
X109465518Y-115698812D01*
X109590000Y-115711072D01*
X110204250Y-115708000D01*
X110363000Y-115549250D01*
X110363000Y-114300000D01*
X110617000Y-114300000D01*
X110617000Y-115549250D01*
X110775750Y-115708000D01*
X111390000Y-115711072D01*
X111514482Y-115698812D01*
X111634180Y-115662502D01*
X111744494Y-115603537D01*
X111841185Y-115524185D01*
X111920537Y-115427494D01*
X111979502Y-115317180D01*
X112015812Y-115197482D01*
X112028072Y-115073000D01*
X112025000Y-114458750D01*
X111866250Y-114300000D01*
X110617000Y-114300000D01*
X110363000Y-114300000D01*
X109113750Y-114300000D01*
X108955000Y-114458750D01*
X108951928Y-115073000D01*
X105518392Y-115073000D01*
X105198669Y-114859369D01*
X104791925Y-114690890D01*
X104360128Y-114605000D01*
X103919872Y-114605000D01*
X103488075Y-114690890D01*
X103081331Y-114859369D01*
X102715271Y-115103962D01*
X102403962Y-115415271D01*
X102260000Y-115630726D01*
X102260000Y-113273000D01*
X108951928Y-113273000D01*
X108955000Y-113887250D01*
X109113750Y-114046000D01*
X110363000Y-114046000D01*
X110363000Y-114026000D01*
X110617000Y-114026000D01*
X110617000Y-114046000D01*
X111866250Y-114046000D01*
X112025000Y-113887250D01*
X112028072Y-113273000D01*
X112015812Y-113148518D01*
X111979502Y-113028820D01*
X111920537Y-112918506D01*
X111841185Y-112821815D01*
X111744494Y-112742463D01*
X111634180Y-112683498D01*
X111615873Y-112677944D01*
X111682312Y-112611505D01*
X111850299Y-112360095D01*
X111966011Y-112080743D01*
X112025000Y-111784184D01*
X112025000Y-111481816D01*
X111966011Y-111185257D01*
X111850299Y-110905905D01*
X111784682Y-110807702D01*
X116026903Y-110807702D01*
X116098486Y-111051671D01*
X116353996Y-111172571D01*
X116628184Y-111241300D01*
X116910512Y-111255217D01*
X117190130Y-111213787D01*
X117456292Y-111118603D01*
X117581514Y-111051671D01*
X117653097Y-110807702D01*
X116840000Y-109994605D01*
X116026903Y-110807702D01*
X111784682Y-110807702D01*
X111682312Y-110654495D01*
X111500000Y-110472183D01*
X111500000Y-109885512D01*
X115399783Y-109885512D01*
X115441213Y-110165130D01*
X115536397Y-110431292D01*
X115603329Y-110556514D01*
X115847298Y-110628097D01*
X116660395Y-109815000D01*
X117019605Y-109815000D01*
X117832702Y-110628097D01*
X118076671Y-110556514D01*
X118197571Y-110301004D01*
X118266300Y-110026816D01*
X118280217Y-109744488D01*
X118238787Y-109464870D01*
X118143603Y-109198708D01*
X118076671Y-109073486D01*
X117832702Y-109001903D01*
X117019605Y-109815000D01*
X116660395Y-109815000D01*
X115847298Y-109001903D01*
X115603329Y-109073486D01*
X115482429Y-109328996D01*
X115413700Y-109603184D01*
X115399783Y-109885512D01*
X111500000Y-109885512D01*
X111500000Y-108969396D01*
X111604637Y-108864759D01*
X111761680Y-108629727D01*
X111869853Y-108368574D01*
X111925000Y-108091335D01*
X111925000Y-107808665D01*
X111869853Y-107531426D01*
X111761680Y-107270273D01*
X111604637Y-107035241D01*
X111404759Y-106835363D01*
X111169727Y-106678320D01*
X110908574Y-106570147D01*
X110631335Y-106515000D01*
X110348665Y-106515000D01*
X110071426Y-106570147D01*
X109810273Y-106678320D01*
X109575241Y-106835363D01*
X109375363Y-107035241D01*
X109218320Y-107270273D01*
X109110147Y-107531426D01*
X109055000Y-107808665D01*
X109055000Y-108091335D01*
X109110147Y-108368574D01*
X109218320Y-108629727D01*
X109375363Y-108864759D01*
X109480000Y-108969396D01*
X109480001Y-110472182D01*
X109297688Y-110654495D01*
X109129701Y-110905905D01*
X109013989Y-111185257D01*
X108955000Y-111481816D01*
X108955000Y-111784184D01*
X109013989Y-112080743D01*
X109129701Y-112360095D01*
X109297688Y-112611505D01*
X109364127Y-112677944D01*
X109345820Y-112683498D01*
X109235506Y-112742463D01*
X109138815Y-112821815D01*
X109059463Y-112918506D01*
X109000498Y-113028820D01*
X108964188Y-113148518D01*
X108951928Y-113273000D01*
X102260000Y-113273000D01*
X102260000Y-98640000D01*
X102651928Y-98640000D01*
X102664188Y-98764482D01*
X102700498Y-98884180D01*
X102759463Y-98994494D01*
X102838815Y-99091185D01*
X102935506Y-99170537D01*
X103045820Y-99229502D01*
X103165518Y-99265812D01*
X103290000Y-99278072D01*
X103854250Y-99275000D01*
X104013000Y-99116250D01*
X104013000Y-97917000D01*
X104267000Y-97917000D01*
X104267000Y-99116250D01*
X104425750Y-99275000D01*
X104990000Y-99278072D01*
X105114482Y-99265812D01*
X105234180Y-99229502D01*
X105344494Y-99170537D01*
X105441185Y-99091185D01*
X105520537Y-98994494D01*
X105579502Y-98884180D01*
X105603966Y-98803534D01*
X105679731Y-98887588D01*
X105913080Y-99061641D01*
X106175901Y-99186825D01*
X106323110Y-99231476D01*
X106553000Y-99110155D01*
X106553000Y-97917000D01*
X106807000Y-97917000D01*
X106807000Y-99110155D01*
X107036890Y-99231476D01*
X107184099Y-99186825D01*
X107446920Y-99061641D01*
X107680269Y-98887588D01*
X107875178Y-98671355D01*
X108024157Y-98421252D01*
X108121481Y-98146891D01*
X108000814Y-97917000D01*
X106807000Y-97917000D01*
X106553000Y-97917000D01*
X104267000Y-97917000D01*
X104013000Y-97917000D01*
X102813750Y-97917000D01*
X102655000Y-98075750D01*
X102651928Y-98640000D01*
X102260000Y-98640000D01*
X102260000Y-96940000D01*
X102651928Y-96940000D01*
X102655000Y-97504250D01*
X102813750Y-97663000D01*
X104013000Y-97663000D01*
X104013000Y-96463750D01*
X104267000Y-96463750D01*
X104267000Y-97663000D01*
X106553000Y-97663000D01*
X106553000Y-96469845D01*
X106807000Y-96469845D01*
X106807000Y-97663000D01*
X108000814Y-97663000D01*
X108121481Y-97433109D01*
X108024157Y-97158748D01*
X107875178Y-96908645D01*
X107680269Y-96692412D01*
X107446920Y-96518359D01*
X107184099Y-96393175D01*
X107036890Y-96348524D01*
X106807000Y-96469845D01*
X106553000Y-96469845D01*
X106323110Y-96348524D01*
X106175901Y-96393175D01*
X105913080Y-96518359D01*
X105679731Y-96692412D01*
X105603966Y-96776466D01*
X105579502Y-96695820D01*
X105520537Y-96585506D01*
X105441185Y-96488815D01*
X105344494Y-96409463D01*
X105234180Y-96350498D01*
X105114482Y-96314188D01*
X104990000Y-96301928D01*
X104425750Y-96305000D01*
X104267000Y-96463750D01*
X104013000Y-96463750D01*
X103854250Y-96305000D01*
X103290000Y-96301928D01*
X103165518Y-96314188D01*
X103045820Y-96350498D01*
X102935506Y-96409463D01*
X102838815Y-96488815D01*
X102759463Y-96585506D01*
X102700498Y-96695820D01*
X102664188Y-96815518D01*
X102651928Y-96940000D01*
X102260000Y-96940000D01*
X102260000Y-95108665D01*
X109055000Y-95108665D01*
X109055000Y-95391335D01*
X109110147Y-95668574D01*
X109218320Y-95929727D01*
X109375363Y-96164759D01*
X109575241Y-96364637D01*
X109810273Y-96521680D01*
X110071426Y-96629853D01*
X110348665Y-96685000D01*
X110631335Y-96685000D01*
X110908574Y-96629853D01*
X111169727Y-96521680D01*
X111404759Y-96364637D01*
X111509396Y-96260000D01*
X114287171Y-96260000D01*
X114389866Y-96385134D01*
X114615986Y-96570706D01*
X114641722Y-96584462D01*
X114435571Y-96740951D01*
X114242504Y-96958807D01*
X114095648Y-97210142D01*
X114003524Y-97473110D01*
X114124845Y-97703000D01*
X115443000Y-97703000D01*
X115443000Y-97683000D01*
X115697000Y-97683000D01*
X115697000Y-97703000D01*
X117015155Y-97703000D01*
X117136476Y-97473110D01*
X117044352Y-97210142D01*
X116897496Y-96958807D01*
X116704429Y-96740951D01*
X116498278Y-96584462D01*
X116524014Y-96570706D01*
X116750134Y-96385134D01*
X116766657Y-96365001D01*
X131925391Y-96365001D01*
X131974999Y-96369887D01*
X132024607Y-96365001D01*
X141498127Y-96365001D01*
X141448700Y-96562184D01*
X141434783Y-96844512D01*
X141476213Y-97124130D01*
X141571397Y-97390292D01*
X141638329Y-97515514D01*
X141882298Y-97587097D01*
X142695395Y-96774000D01*
X142681253Y-96759858D01*
X142860858Y-96580253D01*
X142875000Y-96594395D01*
X142889143Y-96580253D01*
X143068748Y-96759858D01*
X143054605Y-96774000D01*
X143867702Y-97587097D01*
X144111671Y-97515514D01*
X144232571Y-97260004D01*
X144301300Y-96985816D01*
X144315217Y-96703488D01*
X144273787Y-96423870D01*
X144252734Y-96365001D01*
X146796644Y-96365001D01*
X148850001Y-98418358D01*
X148850000Y-99310604D01*
X148745363Y-99415241D01*
X148588320Y-99650273D01*
X148480147Y-99911426D01*
X148425000Y-100188665D01*
X148425000Y-100471335D01*
X148469491Y-100695001D01*
X148050357Y-100695001D01*
X145950261Y-98594906D01*
X145918633Y-98556367D01*
X145764840Y-98430153D01*
X145589380Y-98336368D01*
X145398994Y-98278615D01*
X145250608Y-98264000D01*
X145201000Y-98259114D01*
X145151392Y-98264000D01*
X143894396Y-98264000D01*
X143789759Y-98159363D01*
X143589131Y-98025308D01*
X143616514Y-98010671D01*
X143688097Y-97766702D01*
X142875000Y-96953605D01*
X142061903Y-97766702D01*
X142133486Y-98010671D01*
X142162341Y-98024324D01*
X141960241Y-98159363D01*
X141815604Y-98304000D01*
X140719396Y-98304000D01*
X140614759Y-98199363D01*
X140379727Y-98042320D01*
X140118574Y-97934147D01*
X139841335Y-97879000D01*
X139693356Y-97879000D01*
X138925261Y-97110906D01*
X138893633Y-97072367D01*
X138739840Y-96946153D01*
X138564380Y-96852368D01*
X138373994Y-96794615D01*
X138225608Y-96780000D01*
X138176000Y-96775114D01*
X138126392Y-96780000D01*
X125144604Y-96780000D01*
X125094999Y-96775114D01*
X125045394Y-96780000D01*
X125045392Y-96780000D01*
X124897006Y-96794615D01*
X124706620Y-96852368D01*
X124531160Y-96946153D01*
X124377367Y-97072367D01*
X124345744Y-97110900D01*
X122136645Y-99320000D01*
X117077976Y-99320000D01*
X117033405Y-99236614D01*
X116922962Y-99102038D01*
X116788386Y-98991595D01*
X116683039Y-98935286D01*
X116704429Y-98919049D01*
X116897496Y-98701193D01*
X117044352Y-98449858D01*
X117136476Y-98186890D01*
X117015155Y-97957000D01*
X115697000Y-97957000D01*
X115697000Y-97977000D01*
X115443000Y-97977000D01*
X115443000Y-97957000D01*
X114124845Y-97957000D01*
X114003524Y-98186890D01*
X114095648Y-98449858D01*
X114242504Y-98701193D01*
X114435571Y-98919049D01*
X114456961Y-98935286D01*
X114351614Y-98991595D01*
X114217038Y-99102038D01*
X114106595Y-99236614D01*
X114062024Y-99320000D01*
X111509396Y-99320000D01*
X111404759Y-99215363D01*
X111169727Y-99058320D01*
X110908574Y-98950147D01*
X110631335Y-98895000D01*
X110348665Y-98895000D01*
X110071426Y-98950147D01*
X109810273Y-99058320D01*
X109575241Y-99215363D01*
X109375363Y-99415241D01*
X109218320Y-99650273D01*
X109110147Y-99911426D01*
X109055000Y-100188665D01*
X109055000Y-100471335D01*
X109110147Y-100748574D01*
X109218320Y-101009727D01*
X109375363Y-101244759D01*
X109575241Y-101444637D01*
X109810273Y-101601680D01*
X110071426Y-101709853D01*
X110348665Y-101765000D01*
X110631335Y-101765000D01*
X110908574Y-101709853D01*
X111169727Y-101601680D01*
X111404759Y-101444637D01*
X111509396Y-101340000D01*
X114062024Y-101340000D01*
X114106595Y-101423386D01*
X114217038Y-101557962D01*
X114351614Y-101668405D01*
X114505150Y-101750472D01*
X114560000Y-101767111D01*
X114560001Y-105995382D01*
X114555114Y-106045000D01*
X114574615Y-106242994D01*
X114632368Y-106433379D01*
X114726154Y-106608840D01*
X114778946Y-106673167D01*
X114852368Y-106762633D01*
X114890901Y-106794256D01*
X115401928Y-107305283D01*
X115401928Y-108115000D01*
X115414188Y-108239482D01*
X115450498Y-108359180D01*
X115509463Y-108469494D01*
X115588815Y-108566185D01*
X115685506Y-108645537D01*
X115795820Y-108704502D01*
X115915518Y-108740812D01*
X116040000Y-108753072D01*
X116047215Y-108753072D01*
X116026903Y-108822298D01*
X116840000Y-109635395D01*
X117653097Y-108822298D01*
X117632785Y-108753072D01*
X117640000Y-108753072D01*
X117764482Y-108740812D01*
X117884180Y-108704502D01*
X117994494Y-108645537D01*
X118091185Y-108566185D01*
X118170537Y-108469494D01*
X118229502Y-108359180D01*
X118265812Y-108239482D01*
X118278072Y-108115000D01*
X118278072Y-107181544D01*
X126280000Y-107181544D01*
X126280000Y-107448456D01*
X126332072Y-107710239D01*
X126434215Y-107956833D01*
X126582503Y-108178762D01*
X126771238Y-108367497D01*
X126993167Y-108515785D01*
X127160266Y-108585000D01*
X126993167Y-108654215D01*
X126771238Y-108802503D01*
X126582503Y-108991238D01*
X126434215Y-109213167D01*
X126332072Y-109459761D01*
X126280000Y-109721544D01*
X126280000Y-109988456D01*
X126332072Y-110250239D01*
X126434215Y-110496833D01*
X126582503Y-110718762D01*
X126771238Y-110907497D01*
X126993167Y-111055785D01*
X127160266Y-111125000D01*
X126993167Y-111194215D01*
X126771238Y-111342503D01*
X126582503Y-111531238D01*
X126434215Y-111753167D01*
X126332072Y-111999761D01*
X126280000Y-112261544D01*
X126280000Y-112528456D01*
X126332072Y-112790239D01*
X126434215Y-113036833D01*
X126582503Y-113258762D01*
X126771238Y-113447497D01*
X126993167Y-113595785D01*
X127239761Y-113697928D01*
X127501544Y-113750000D01*
X127768456Y-113750000D01*
X128030239Y-113697928D01*
X128276833Y-113595785D01*
X128469498Y-113467050D01*
X145280000Y-113467050D01*
X145280000Y-113862949D01*
X145301487Y-114081110D01*
X145386401Y-114361033D01*
X145524294Y-114619013D01*
X145709866Y-114845134D01*
X145935986Y-115030706D01*
X146193966Y-115168599D01*
X146473889Y-115253513D01*
X146765000Y-115282185D01*
X147056110Y-115253513D01*
X147336033Y-115168599D01*
X147594013Y-115030706D01*
X147820134Y-114845134D01*
X148005706Y-114619014D01*
X148015000Y-114601626D01*
X148024294Y-114619013D01*
X148209866Y-114845134D01*
X148435986Y-115030706D01*
X148693966Y-115168599D01*
X148973889Y-115253513D01*
X149265000Y-115282185D01*
X149556110Y-115253513D01*
X149836033Y-115168599D01*
X150094013Y-115030706D01*
X150320134Y-114845134D01*
X150372223Y-114781663D01*
X150426595Y-114883386D01*
X150537038Y-115017962D01*
X150671614Y-115128405D01*
X150825150Y-115210472D01*
X150991746Y-115261008D01*
X151165000Y-115278072D01*
X152365000Y-115278072D01*
X152538254Y-115261008D01*
X152704850Y-115210472D01*
X152858386Y-115128405D01*
X152992962Y-115017962D01*
X153103405Y-114883386D01*
X153185472Y-114729850D01*
X153236008Y-114563254D01*
X153253072Y-114390000D01*
X153253072Y-114024742D01*
X157318715Y-114024742D01*
X157387904Y-114307745D01*
X157510975Y-114571812D01*
X157683198Y-114806795D01*
X157897954Y-115003664D01*
X158146991Y-115154854D01*
X158420739Y-115254554D01*
X158433110Y-115256476D01*
X158663000Y-115135155D01*
X158663000Y-113792000D01*
X157462768Y-113792000D01*
X157318715Y-114024742D01*
X153253072Y-114024742D01*
X153253072Y-113305258D01*
X157318715Y-113305258D01*
X157462768Y-113538000D01*
X158663000Y-113538000D01*
X158663000Y-112194845D01*
X158917000Y-112194845D01*
X158917000Y-113538000D01*
X158937000Y-113538000D01*
X158937000Y-113792000D01*
X158917000Y-113792000D01*
X158917000Y-115135155D01*
X159146890Y-115256476D01*
X159159261Y-115254554D01*
X159433009Y-115154854D01*
X159682046Y-115003664D01*
X159896802Y-114806795D01*
X159897086Y-114806407D01*
X159951595Y-114908386D01*
X160062038Y-115042962D01*
X160196614Y-115153405D01*
X160350150Y-115235472D01*
X160516746Y-115286008D01*
X160690000Y-115303072D01*
X161890000Y-115303072D01*
X162063254Y-115286008D01*
X162229850Y-115235472D01*
X162383386Y-115153405D01*
X162517962Y-115042962D01*
X162628405Y-114908386D01*
X162710472Y-114754850D01*
X162761008Y-114588254D01*
X162778072Y-114415000D01*
X162778072Y-112915000D01*
X162761008Y-112741746D01*
X162710472Y-112575150D01*
X162628405Y-112421614D01*
X162517962Y-112287038D01*
X162383386Y-112176595D01*
X162229850Y-112094528D01*
X162063254Y-112043992D01*
X161890000Y-112026928D01*
X160690000Y-112026928D01*
X160516746Y-112043992D01*
X160350150Y-112094528D01*
X160196614Y-112176595D01*
X160062038Y-112287038D01*
X159951595Y-112421614D01*
X159897086Y-112523593D01*
X159896802Y-112523205D01*
X159682046Y-112326336D01*
X159433009Y-112175146D01*
X159159261Y-112075446D01*
X159146890Y-112073524D01*
X158917000Y-112194845D01*
X158663000Y-112194845D01*
X158433110Y-112073524D01*
X158420739Y-112075446D01*
X158146991Y-112175146D01*
X157897954Y-112326336D01*
X157683198Y-112523205D01*
X157510975Y-112758188D01*
X157387904Y-113022255D01*
X157318715Y-113305258D01*
X153253072Y-113305258D01*
X153253072Y-112940000D01*
X153236008Y-112766746D01*
X153185472Y-112600150D01*
X153103405Y-112446614D01*
X152992962Y-112312038D01*
X152858386Y-112201595D01*
X152704850Y-112119528D01*
X152538254Y-112068992D01*
X152365000Y-112051928D01*
X151165000Y-112051928D01*
X150991746Y-112068992D01*
X150825150Y-112119528D01*
X150671614Y-112201595D01*
X150537038Y-112312038D01*
X150426595Y-112446614D01*
X150372223Y-112548337D01*
X150320134Y-112484866D01*
X150094014Y-112299294D01*
X149836034Y-112161401D01*
X149556111Y-112076487D01*
X149265000Y-112047815D01*
X148973890Y-112076487D01*
X148693967Y-112161401D01*
X148435987Y-112299294D01*
X148209866Y-112484866D01*
X148024294Y-112710986D01*
X148015000Y-112728374D01*
X148005706Y-112710986D01*
X147820134Y-112484866D01*
X147594014Y-112299294D01*
X147336034Y-112161401D01*
X147056111Y-112076487D01*
X146765000Y-112047815D01*
X146473890Y-112076487D01*
X146193967Y-112161401D01*
X145935987Y-112299294D01*
X145709866Y-112484866D01*
X145524294Y-112710986D01*
X145386401Y-112968966D01*
X145301487Y-113248889D01*
X145280000Y-113467050D01*
X128469498Y-113467050D01*
X128498762Y-113447497D01*
X128687497Y-113258762D01*
X128835785Y-113036833D01*
X128937928Y-112790239D01*
X128990000Y-112528456D01*
X128990000Y-112261544D01*
X128937928Y-111999761D01*
X128835785Y-111753167D01*
X128687497Y-111531238D01*
X128498762Y-111342503D01*
X128276833Y-111194215D01*
X128109734Y-111125000D01*
X128276833Y-111055785D01*
X128498762Y-110907497D01*
X128687497Y-110718762D01*
X128835785Y-110496833D01*
X128937928Y-110250239D01*
X128990000Y-109988456D01*
X128990000Y-109721544D01*
X128937928Y-109459761D01*
X128835785Y-109213167D01*
X128687497Y-108991238D01*
X128498762Y-108802503D01*
X128276833Y-108654215D01*
X128109734Y-108585000D01*
X128276833Y-108515785D01*
X128498762Y-108367497D01*
X128687497Y-108178762D01*
X128835785Y-107956833D01*
X128897158Y-107808665D01*
X148425000Y-107808665D01*
X148425000Y-108091335D01*
X148480147Y-108368574D01*
X148588320Y-108629727D01*
X148745363Y-108864759D01*
X148945241Y-109064637D01*
X149180273Y-109221680D01*
X149441426Y-109329853D01*
X149718665Y-109385000D01*
X150001335Y-109385000D01*
X150278574Y-109329853D01*
X150539727Y-109221680D01*
X150774759Y-109064637D01*
X150974637Y-108864759D01*
X151131680Y-108629727D01*
X151239853Y-108368574D01*
X151295000Y-108091335D01*
X151295000Y-107808665D01*
X151600000Y-107808665D01*
X151600000Y-108091335D01*
X151655147Y-108368574D01*
X151763320Y-108629727D01*
X151920363Y-108864759D01*
X152120241Y-109064637D01*
X152355273Y-109221680D01*
X152616426Y-109329853D01*
X152893665Y-109385000D01*
X153176335Y-109385000D01*
X153453574Y-109329853D01*
X153714727Y-109221680D01*
X153949759Y-109064637D01*
X154149637Y-108864759D01*
X154306680Y-108629727D01*
X154414853Y-108368574D01*
X154470000Y-108091335D01*
X154470000Y-107808665D01*
X154775000Y-107808665D01*
X154775000Y-108091335D01*
X154830147Y-108368574D01*
X154938320Y-108629727D01*
X155095363Y-108864759D01*
X155295241Y-109064637D01*
X155530273Y-109221680D01*
X155791426Y-109329853D01*
X156068665Y-109385000D01*
X156351335Y-109385000D01*
X156628574Y-109329853D01*
X156889727Y-109221680D01*
X157124759Y-109064637D01*
X157324637Y-108864759D01*
X157481680Y-108629727D01*
X157589853Y-108368574D01*
X157645000Y-108091335D01*
X157645000Y-107808665D01*
X159855000Y-107808665D01*
X159855000Y-108091335D01*
X159910147Y-108368574D01*
X160018320Y-108629727D01*
X160175363Y-108864759D01*
X160375241Y-109064637D01*
X160610273Y-109221680D01*
X160871426Y-109329853D01*
X161148665Y-109385000D01*
X161431335Y-109385000D01*
X161708574Y-109329853D01*
X161969727Y-109221680D01*
X162204759Y-109064637D01*
X162404637Y-108864759D01*
X162561680Y-108629727D01*
X162669853Y-108368574D01*
X162725000Y-108091335D01*
X162725000Y-107808665D01*
X162669853Y-107531426D01*
X162561680Y-107270273D01*
X162404637Y-107035241D01*
X162204759Y-106835363D01*
X161969727Y-106678320D01*
X161708574Y-106570147D01*
X161431335Y-106515000D01*
X161148665Y-106515000D01*
X160871426Y-106570147D01*
X160610273Y-106678320D01*
X160375241Y-106835363D01*
X160175363Y-107035241D01*
X160018320Y-107270273D01*
X159910147Y-107531426D01*
X159855000Y-107808665D01*
X157645000Y-107808665D01*
X157589853Y-107531426D01*
X157481680Y-107270273D01*
X157324637Y-107035241D01*
X157124759Y-106835363D01*
X156889727Y-106678320D01*
X156628574Y-106570147D01*
X156351335Y-106515000D01*
X156068665Y-106515000D01*
X155791426Y-106570147D01*
X155530273Y-106678320D01*
X155295241Y-106835363D01*
X155095363Y-107035241D01*
X154938320Y-107270273D01*
X154830147Y-107531426D01*
X154775000Y-107808665D01*
X154470000Y-107808665D01*
X154414853Y-107531426D01*
X154306680Y-107270273D01*
X154149637Y-107035241D01*
X153949759Y-106835363D01*
X153714727Y-106678320D01*
X153453574Y-106570147D01*
X153176335Y-106515000D01*
X152893665Y-106515000D01*
X152616426Y-106570147D01*
X152355273Y-106678320D01*
X152120241Y-106835363D01*
X151920363Y-107035241D01*
X151763320Y-107270273D01*
X151655147Y-107531426D01*
X151600000Y-107808665D01*
X151295000Y-107808665D01*
X151239853Y-107531426D01*
X151131680Y-107270273D01*
X150974637Y-107035241D01*
X150774759Y-106835363D01*
X150539727Y-106678320D01*
X150278574Y-106570147D01*
X150001335Y-106515000D01*
X149718665Y-106515000D01*
X149441426Y-106570147D01*
X149180273Y-106678320D01*
X148945241Y-106835363D01*
X148745363Y-107035241D01*
X148588320Y-107270273D01*
X148480147Y-107531426D01*
X148425000Y-107808665D01*
X128897158Y-107808665D01*
X128937928Y-107710239D01*
X128990000Y-107448456D01*
X128990000Y-107181544D01*
X128937928Y-106919761D01*
X128835785Y-106673167D01*
X128687497Y-106451238D01*
X128498762Y-106262503D01*
X128276833Y-106114215D01*
X128030239Y-106012072D01*
X127768456Y-105960000D01*
X127501544Y-105960000D01*
X127239761Y-106012072D01*
X126993167Y-106114215D01*
X126771238Y-106262503D01*
X126582503Y-106451238D01*
X126434215Y-106673167D01*
X126332072Y-106919761D01*
X126280000Y-107181544D01*
X118278072Y-107181544D01*
X118278072Y-106515000D01*
X118265812Y-106390518D01*
X118229502Y-106270820D01*
X118170537Y-106160506D01*
X118091185Y-106063815D01*
X117994494Y-105984463D01*
X117884180Y-105925498D01*
X117764482Y-105889188D01*
X117640000Y-105876928D01*
X116830283Y-105876928D01*
X116580000Y-105626645D01*
X116580000Y-102728665D01*
X126200000Y-102728665D01*
X126200000Y-103011335D01*
X126255147Y-103288574D01*
X126363320Y-103549727D01*
X126520363Y-103784759D01*
X126720241Y-103984637D01*
X126955273Y-104141680D01*
X127216426Y-104249853D01*
X127493665Y-104305000D01*
X127776335Y-104305000D01*
X128053574Y-104249853D01*
X128314727Y-104141680D01*
X128549759Y-103984637D01*
X128749637Y-103784759D01*
X128906680Y-103549727D01*
X129014853Y-103288574D01*
X129070000Y-103011335D01*
X129070000Y-102728665D01*
X133820000Y-102728665D01*
X133820000Y-103011335D01*
X133875147Y-103288574D01*
X133983320Y-103549727D01*
X134140363Y-103784759D01*
X134340241Y-103984637D01*
X134575273Y-104141680D01*
X134836426Y-104249853D01*
X135113665Y-104305000D01*
X135396335Y-104305000D01*
X135673574Y-104249853D01*
X135934727Y-104141680D01*
X136169759Y-103984637D01*
X136369637Y-103784759D01*
X136461500Y-103647276D01*
X136553363Y-103784759D01*
X136753241Y-103984637D01*
X136988273Y-104141680D01*
X137249426Y-104249853D01*
X137526665Y-104305000D01*
X137809335Y-104305000D01*
X138086574Y-104249853D01*
X138347727Y-104141680D01*
X138582759Y-103984637D01*
X138782637Y-103784759D01*
X138939680Y-103549727D01*
X139047853Y-103288574D01*
X139103000Y-103011335D01*
X139103000Y-102728665D01*
X143853000Y-102728665D01*
X143853000Y-103011335D01*
X143908147Y-103288574D01*
X144016320Y-103549727D01*
X144173363Y-103784759D01*
X144373241Y-103984637D01*
X144608273Y-104141680D01*
X144869426Y-104249853D01*
X145146665Y-104305000D01*
X145429335Y-104305000D01*
X145706574Y-104249853D01*
X145967727Y-104141680D01*
X146136640Y-104028816D01*
X164835000Y-104028816D01*
X164835000Y-104331184D01*
X164893989Y-104627743D01*
X165009701Y-104907095D01*
X165177688Y-105158505D01*
X165391495Y-105372312D01*
X165477831Y-105430000D01*
X165391495Y-105487688D01*
X165177688Y-105701495D01*
X165009701Y-105952905D01*
X164893989Y-106232257D01*
X164835000Y-106528816D01*
X164835000Y-106831184D01*
X164893989Y-107127743D01*
X165009701Y-107407095D01*
X165177688Y-107658505D01*
X165391495Y-107872312D01*
X165642905Y-108040299D01*
X165922257Y-108156011D01*
X166218816Y-108215000D01*
X166521184Y-108215000D01*
X166817743Y-108156011D01*
X167097095Y-108040299D01*
X167348505Y-107872312D01*
X167562312Y-107658505D01*
X167730299Y-107407095D01*
X167846011Y-107127743D01*
X167905000Y-106831184D01*
X167905000Y-106528816D01*
X167846011Y-106232257D01*
X167730299Y-105952905D01*
X167562312Y-105701495D01*
X167348505Y-105487688D01*
X167262169Y-105430000D01*
X167348505Y-105372312D01*
X167562312Y-105158505D01*
X167730299Y-104907095D01*
X167846011Y-104627743D01*
X167905000Y-104331184D01*
X167905000Y-104028816D01*
X167846011Y-103732257D01*
X167730299Y-103452905D01*
X167562312Y-103201495D01*
X167348505Y-102987688D01*
X167205690Y-102892262D01*
X167254475Y-102744080D01*
X166370000Y-101859605D01*
X165485525Y-102744080D01*
X165534310Y-102892262D01*
X165391495Y-102987688D01*
X165177688Y-103201495D01*
X165009701Y-103452905D01*
X164893989Y-103732257D01*
X164835000Y-104028816D01*
X146136640Y-104028816D01*
X146202759Y-103984637D01*
X146402637Y-103784759D01*
X146559680Y-103549727D01*
X146667853Y-103288574D01*
X146723000Y-103011335D01*
X146723000Y-102728665D01*
X146667853Y-102451426D01*
X146559680Y-102190273D01*
X146402637Y-101955241D01*
X146202759Y-101755363D01*
X145967727Y-101598320D01*
X145706574Y-101490147D01*
X145429335Y-101435000D01*
X145146665Y-101435000D01*
X144869426Y-101490147D01*
X144608273Y-101598320D01*
X144373241Y-101755363D01*
X144173363Y-101955241D01*
X144016320Y-102190273D01*
X143908147Y-102451426D01*
X143853000Y-102728665D01*
X139103000Y-102728665D01*
X139047853Y-102451426D01*
X138939680Y-102190273D01*
X138782637Y-101955241D01*
X138582759Y-101755363D01*
X138347727Y-101598320D01*
X138086574Y-101490147D01*
X137809335Y-101435000D01*
X137526665Y-101435000D01*
X137249426Y-101490147D01*
X136988273Y-101598320D01*
X136753241Y-101755363D01*
X136553363Y-101955241D01*
X136461500Y-102092724D01*
X136369637Y-101955241D01*
X136169759Y-101755363D01*
X135934727Y-101598320D01*
X135673574Y-101490147D01*
X135396335Y-101435000D01*
X135113665Y-101435000D01*
X134836426Y-101490147D01*
X134575273Y-101598320D01*
X134340241Y-101755363D01*
X134140363Y-101955241D01*
X133983320Y-102190273D01*
X133875147Y-102451426D01*
X133820000Y-102728665D01*
X129070000Y-102728665D01*
X129014853Y-102451426D01*
X128906680Y-102190273D01*
X128749637Y-101955241D01*
X128549759Y-101755363D01*
X128314727Y-101598320D01*
X128053574Y-101490147D01*
X127776335Y-101435000D01*
X127493665Y-101435000D01*
X127216426Y-101490147D01*
X126955273Y-101598320D01*
X126720241Y-101755363D01*
X126520363Y-101955241D01*
X126363320Y-102190273D01*
X126255147Y-102451426D01*
X126200000Y-102728665D01*
X116580000Y-102728665D01*
X116580000Y-101767110D01*
X116634850Y-101750472D01*
X116788386Y-101668405D01*
X116922962Y-101557962D01*
X117033405Y-101423386D01*
X117077976Y-101340000D01*
X122505392Y-101340000D01*
X122555000Y-101344886D01*
X122752994Y-101325385D01*
X122790219Y-101314093D01*
X122943380Y-101267632D01*
X123118840Y-101173847D01*
X123272633Y-101047633D01*
X123304261Y-101009094D01*
X124650315Y-99663040D01*
X130688091Y-99663040D01*
X130782930Y-99927881D01*
X130927615Y-100169131D01*
X131116586Y-100377519D01*
X131342580Y-100545037D01*
X131596913Y-100665246D01*
X131730961Y-100705904D01*
X131953000Y-100583915D01*
X131953000Y-99441000D01*
X130809376Y-99441000D01*
X130688091Y-99663040D01*
X124650315Y-99663040D01*
X125513356Y-98800000D01*
X130747163Y-98800000D01*
X130688091Y-98964960D01*
X130809376Y-99187000D01*
X131953000Y-99187000D01*
X131953000Y-99167000D01*
X132207000Y-99167000D01*
X132207000Y-99187000D01*
X132227000Y-99187000D01*
X132227000Y-99441000D01*
X132207000Y-99441000D01*
X132207000Y-100583915D01*
X132429039Y-100705904D01*
X132563087Y-100665246D01*
X132817420Y-100545037D01*
X133043414Y-100377519D01*
X133232385Y-100169131D01*
X133343933Y-99983135D01*
X133348320Y-99993727D01*
X133505363Y-100228759D01*
X133705241Y-100428637D01*
X133940273Y-100585680D01*
X134201426Y-100693853D01*
X134478665Y-100749000D01*
X134761335Y-100749000D01*
X135038574Y-100693853D01*
X135299727Y-100585680D01*
X135534759Y-100428637D01*
X135734637Y-100228759D01*
X135890000Y-99996241D01*
X136045363Y-100228759D01*
X136245241Y-100428637D01*
X136480273Y-100585680D01*
X136741426Y-100693853D01*
X137018665Y-100749000D01*
X137301335Y-100749000D01*
X137578574Y-100693853D01*
X137839727Y-100585680D01*
X138074759Y-100428637D01*
X138274637Y-100228759D01*
X138430000Y-99996241D01*
X138585363Y-100228759D01*
X138785241Y-100428637D01*
X139020273Y-100585680D01*
X139281426Y-100693853D01*
X139558665Y-100749000D01*
X139841335Y-100749000D01*
X140118574Y-100693853D01*
X140379727Y-100585680D01*
X140614759Y-100428637D01*
X140719396Y-100324000D01*
X141895604Y-100324000D01*
X141960241Y-100388637D01*
X142195273Y-100545680D01*
X142456426Y-100653853D01*
X142733665Y-100709000D01*
X143016335Y-100709000D01*
X143293574Y-100653853D01*
X143554727Y-100545680D01*
X143789759Y-100388637D01*
X143894396Y-100284000D01*
X144782645Y-100284000D01*
X146882745Y-102384101D01*
X146914368Y-102422634D01*
X147068161Y-102548848D01*
X147243621Y-102642633D01*
X147434006Y-102700386D01*
X147632001Y-102719887D01*
X147681609Y-102715001D01*
X154785391Y-102715001D01*
X154834999Y-102719887D01*
X155032993Y-102700386D01*
X155223379Y-102642633D01*
X155398839Y-102548848D01*
X155552632Y-102422634D01*
X155584260Y-102384095D01*
X156203355Y-101765000D01*
X156351335Y-101765000D01*
X156628574Y-101709853D01*
X156889727Y-101601680D01*
X157124759Y-101444637D01*
X157324637Y-101244759D01*
X157481680Y-101009727D01*
X157589853Y-100748574D01*
X157645000Y-100471335D01*
X157645000Y-100188665D01*
X159855000Y-100188665D01*
X159855000Y-100471335D01*
X159910147Y-100748574D01*
X160018320Y-101009727D01*
X160175363Y-101244759D01*
X160375241Y-101444637D01*
X160610273Y-101601680D01*
X160871426Y-101709853D01*
X161148665Y-101765000D01*
X161431335Y-101765000D01*
X161524073Y-101746553D01*
X164829009Y-101746553D01*
X164871603Y-102045907D01*
X164971778Y-102331199D01*
X165051739Y-102480792D01*
X165305920Y-102564475D01*
X166190395Y-101680000D01*
X166549605Y-101680000D01*
X167434080Y-102564475D01*
X167688261Y-102480792D01*
X167819158Y-102208225D01*
X167894365Y-101915358D01*
X167910991Y-101613447D01*
X167868397Y-101314093D01*
X167768222Y-101028801D01*
X167688261Y-100879208D01*
X167434080Y-100795525D01*
X166549605Y-101680000D01*
X166190395Y-101680000D01*
X165305920Y-100795525D01*
X165051739Y-100879208D01*
X164920842Y-101151775D01*
X164845635Y-101444642D01*
X164829009Y-101746553D01*
X161524073Y-101746553D01*
X161708574Y-101709853D01*
X161969727Y-101601680D01*
X162204759Y-101444637D01*
X162404637Y-101244759D01*
X162561680Y-101009727D01*
X162669853Y-100748574D01*
X162696239Y-100615920D01*
X165485525Y-100615920D01*
X166370000Y-101500395D01*
X167254475Y-100615920D01*
X167170792Y-100361739D01*
X166898225Y-100230842D01*
X166605358Y-100155635D01*
X166303447Y-100139009D01*
X166004093Y-100181603D01*
X165718801Y-100281778D01*
X165569208Y-100361739D01*
X165485525Y-100615920D01*
X162696239Y-100615920D01*
X162725000Y-100471335D01*
X162725000Y-100188665D01*
X162669853Y-99911426D01*
X162561680Y-99650273D01*
X162404637Y-99415241D01*
X162204759Y-99215363D01*
X161969727Y-99058320D01*
X161708574Y-98950147D01*
X161431335Y-98895000D01*
X161148665Y-98895000D01*
X160871426Y-98950147D01*
X160610273Y-99058320D01*
X160375241Y-99215363D01*
X160175363Y-99415241D01*
X160018320Y-99650273D01*
X159910147Y-99911426D01*
X159855000Y-100188665D01*
X157645000Y-100188665D01*
X157589853Y-99911426D01*
X157481680Y-99650273D01*
X157324637Y-99415241D01*
X157220000Y-99310604D01*
X157220000Y-91489604D01*
X157224886Y-91439999D01*
X157214905Y-91338665D01*
X157205385Y-91242006D01*
X157147632Y-91051620D01*
X157053847Y-90876160D01*
X156927633Y-90722367D01*
X156889094Y-90690739D01*
X154470000Y-88271645D01*
X154470000Y-88258355D01*
X154604690Y-88123665D01*
X159220000Y-88123665D01*
X159220000Y-88406335D01*
X159275147Y-88683574D01*
X159383320Y-88944727D01*
X159540363Y-89179759D01*
X159740241Y-89379637D01*
X159975273Y-89536680D01*
X160236426Y-89644853D01*
X160513665Y-89700000D01*
X160796335Y-89700000D01*
X161073574Y-89644853D01*
X161334727Y-89536680D01*
X161569759Y-89379637D01*
X161769637Y-89179759D01*
X161926680Y-88944727D01*
X162034853Y-88683574D01*
X162090000Y-88406335D01*
X162090000Y-88123665D01*
X162034853Y-87846426D01*
X161926680Y-87585273D01*
X161769637Y-87350241D01*
X161569759Y-87150363D01*
X161334727Y-86993320D01*
X161073574Y-86885147D01*
X160796335Y-86830000D01*
X160513665Y-86830000D01*
X160236426Y-86885147D01*
X159975273Y-86993320D01*
X159740241Y-87150363D01*
X159540363Y-87350241D01*
X159383320Y-87585273D01*
X159275147Y-87846426D01*
X159220000Y-88123665D01*
X154604690Y-88123665D01*
X155089095Y-87639260D01*
X155127634Y-87607632D01*
X155253848Y-87453839D01*
X155347633Y-87278379D01*
X155405386Y-87087993D01*
X155420001Y-86939607D01*
X155420001Y-86939605D01*
X155424887Y-86890000D01*
X155420001Y-86840395D01*
X155420001Y-84948665D01*
X159220000Y-84948665D01*
X159220000Y-85231335D01*
X159275147Y-85508574D01*
X159383320Y-85769727D01*
X159540363Y-86004759D01*
X159740241Y-86204637D01*
X159975273Y-86361680D01*
X160236426Y-86469853D01*
X160513665Y-86525000D01*
X160796335Y-86525000D01*
X161073574Y-86469853D01*
X161334727Y-86361680D01*
X161569759Y-86204637D01*
X161769637Y-86004759D01*
X161926680Y-85769727D01*
X162034853Y-85508574D01*
X162090000Y-85231335D01*
X162090000Y-84948665D01*
X162034853Y-84671426D01*
X161926680Y-84410273D01*
X161769637Y-84175241D01*
X161569759Y-83975363D01*
X161334727Y-83818320D01*
X161073574Y-83710147D01*
X160796335Y-83655000D01*
X160513665Y-83655000D01*
X160236426Y-83710147D01*
X159975273Y-83818320D01*
X159740241Y-83975363D01*
X159540363Y-84175241D01*
X159383320Y-84410273D01*
X159275147Y-84671426D01*
X159220000Y-84948665D01*
X155420001Y-84948665D01*
X155420001Y-81773665D01*
X159220000Y-81773665D01*
X159220000Y-82056335D01*
X159275147Y-82333574D01*
X159383320Y-82594727D01*
X159540363Y-82829759D01*
X159740241Y-83029637D01*
X159975273Y-83186680D01*
X160236426Y-83294853D01*
X160513665Y-83350000D01*
X160796335Y-83350000D01*
X161073574Y-83294853D01*
X161334727Y-83186680D01*
X161569759Y-83029637D01*
X161769637Y-82829759D01*
X161926680Y-82594727D01*
X162034853Y-82333574D01*
X162090000Y-82056335D01*
X162090000Y-81773665D01*
X162034853Y-81496426D01*
X161926680Y-81235273D01*
X161909003Y-81208816D01*
X164835000Y-81208816D01*
X164835000Y-81511184D01*
X164893989Y-81807743D01*
X165009701Y-82087095D01*
X165177688Y-82338505D01*
X165391495Y-82552312D01*
X165477831Y-82610000D01*
X165391495Y-82667688D01*
X165177688Y-82881495D01*
X165009701Y-83132905D01*
X164893989Y-83412257D01*
X164835000Y-83708816D01*
X164835000Y-84011184D01*
X164893989Y-84307743D01*
X165009701Y-84587095D01*
X165177688Y-84838505D01*
X165391495Y-85052312D01*
X165477831Y-85110000D01*
X165391495Y-85167688D01*
X165177688Y-85381495D01*
X165009701Y-85632905D01*
X164893989Y-85912257D01*
X164835000Y-86208816D01*
X164835000Y-86511184D01*
X164893989Y-86807743D01*
X165009701Y-87087095D01*
X165177688Y-87338505D01*
X165391495Y-87552312D01*
X165642905Y-87720299D01*
X165922257Y-87836011D01*
X166218816Y-87895000D01*
X166521184Y-87895000D01*
X166817743Y-87836011D01*
X167097095Y-87720299D01*
X167348505Y-87552312D01*
X167562312Y-87338505D01*
X167730299Y-87087095D01*
X167846011Y-86807743D01*
X167905000Y-86511184D01*
X167905000Y-86208816D01*
X167846011Y-85912257D01*
X167730299Y-85632905D01*
X167562312Y-85381495D01*
X167348505Y-85167688D01*
X167262169Y-85110000D01*
X167348505Y-85052312D01*
X167562312Y-84838505D01*
X167730299Y-84587095D01*
X167846011Y-84307743D01*
X167905000Y-84011184D01*
X167905000Y-83708816D01*
X167846011Y-83412257D01*
X167730299Y-83132905D01*
X167562312Y-82881495D01*
X167348505Y-82667688D01*
X167262169Y-82610000D01*
X167348505Y-82552312D01*
X167562312Y-82338505D01*
X167730299Y-82087095D01*
X167846011Y-81807743D01*
X167905000Y-81511184D01*
X167905000Y-81208816D01*
X167846011Y-80912257D01*
X167730299Y-80632905D01*
X167562312Y-80381495D01*
X167348505Y-80167688D01*
X167097095Y-79999701D01*
X166817743Y-79883989D01*
X166521184Y-79825000D01*
X166218816Y-79825000D01*
X165922257Y-79883989D01*
X165642905Y-79999701D01*
X165391495Y-80167688D01*
X165177688Y-80381495D01*
X165009701Y-80632905D01*
X164893989Y-80912257D01*
X164835000Y-81208816D01*
X161909003Y-81208816D01*
X161769637Y-81000241D01*
X161569759Y-80800363D01*
X161334727Y-80643320D01*
X161073574Y-80535147D01*
X160796335Y-80480000D01*
X160513665Y-80480000D01*
X160236426Y-80535147D01*
X159975273Y-80643320D01*
X159740241Y-80800363D01*
X159540363Y-81000241D01*
X159383320Y-81235273D01*
X159275147Y-81496426D01*
X159220000Y-81773665D01*
X155420001Y-81773665D01*
X155420001Y-76916089D01*
X155424887Y-76866484D01*
X155416900Y-76785392D01*
X155405386Y-76668491D01*
X155362958Y-76528625D01*
X155436746Y-76551008D01*
X155610000Y-76568072D01*
X156810000Y-76568072D01*
X156983254Y-76551008D01*
X157149850Y-76500472D01*
X157303386Y-76418405D01*
X157437962Y-76307962D01*
X157548405Y-76173386D01*
X157602914Y-76071407D01*
X157603198Y-76071795D01*
X157817954Y-76268664D01*
X158066991Y-76419854D01*
X158340739Y-76519554D01*
X158353110Y-76521476D01*
X158583000Y-76400155D01*
X158583000Y-75057000D01*
X158837000Y-75057000D01*
X158837000Y-76400155D01*
X159066890Y-76521476D01*
X159079261Y-76519554D01*
X159353009Y-76419854D01*
X159602046Y-76268664D01*
X159816802Y-76071795D01*
X159989025Y-75836812D01*
X160112096Y-75572745D01*
X160181285Y-75289742D01*
X160037232Y-75057000D01*
X158837000Y-75057000D01*
X158583000Y-75057000D01*
X158563000Y-75057000D01*
X158563000Y-74803000D01*
X158583000Y-74803000D01*
X158583000Y-73459845D01*
X158837000Y-73459845D01*
X158837000Y-74803000D01*
X160037232Y-74803000D01*
X160181285Y-74570258D01*
X160112096Y-74287255D01*
X159989025Y-74023188D01*
X159816802Y-73788205D01*
X159602046Y-73591336D01*
X159353009Y-73440146D01*
X159079261Y-73340446D01*
X159066890Y-73338524D01*
X158837000Y-73459845D01*
X158583000Y-73459845D01*
X158353110Y-73338524D01*
X158340739Y-73340446D01*
X158066991Y-73440146D01*
X157817954Y-73591336D01*
X157603198Y-73788205D01*
X157602914Y-73788593D01*
X157548405Y-73686614D01*
X157437962Y-73552038D01*
X157303386Y-73441595D01*
X157149850Y-73359528D01*
X156983254Y-73308992D01*
X156810000Y-73291928D01*
X155610000Y-73291928D01*
X155436746Y-73308992D01*
X155270150Y-73359528D01*
X155116614Y-73441595D01*
X154982038Y-73552038D01*
X154871595Y-73686614D01*
X154789528Y-73840150D01*
X154738992Y-74006746D01*
X154721928Y-74180000D01*
X154721928Y-75680000D01*
X154729582Y-75757711D01*
X151927776Y-72955905D01*
X151896148Y-72917366D01*
X151742355Y-72791152D01*
X151566895Y-72697367D01*
X151376509Y-72639614D01*
X151228123Y-72624999D01*
X151178515Y-72620113D01*
X151128907Y-72624999D01*
X148018003Y-72624999D01*
X147968398Y-72620113D01*
X147918793Y-72624999D01*
X147918791Y-72624999D01*
X147770405Y-72639614D01*
X147580019Y-72697367D01*
X147404559Y-72791152D01*
X147250766Y-72917366D01*
X147219134Y-72955910D01*
X146615905Y-73559138D01*
X146577366Y-73590766D01*
X146451152Y-73744559D01*
X146400058Y-73840150D01*
X146357367Y-73920020D01*
X146299614Y-74110405D01*
X146280113Y-74308399D01*
X146284999Y-74358007D01*
X146285000Y-78665381D01*
X146280113Y-78714999D01*
X146299614Y-78912993D01*
X146357367Y-79103378D01*
X146451153Y-79278839D01*
X146577367Y-79432632D01*
X146615900Y-79464255D01*
X147235000Y-80083356D01*
X147235000Y-80143456D01*
X147287072Y-80405239D01*
X147389215Y-80651833D01*
X147537503Y-80873762D01*
X147726238Y-81062497D01*
X147948167Y-81210785D01*
X148194761Y-81312928D01*
X148456544Y-81365000D01*
X148723456Y-81365000D01*
X148985239Y-81312928D01*
X149231833Y-81210785D01*
X149453762Y-81062497D01*
X149642497Y-80873762D01*
X149790785Y-80651833D01*
X149892928Y-80405239D01*
X149945000Y-80143456D01*
X149945000Y-79876544D01*
X149892928Y-79614761D01*
X149790785Y-79368167D01*
X149642497Y-79146238D01*
X149453762Y-78957503D01*
X149231833Y-78809215D01*
X149064734Y-78740000D01*
X149231833Y-78670785D01*
X149453762Y-78522497D01*
X149642497Y-78333762D01*
X149790785Y-78111833D01*
X149892928Y-77865239D01*
X149945000Y-77603456D01*
X149945000Y-77336544D01*
X149892928Y-77074761D01*
X149790785Y-76828167D01*
X149642497Y-76606238D01*
X149453762Y-76417503D01*
X149231833Y-76269215D01*
X149064734Y-76200000D01*
X149231833Y-76130785D01*
X149453762Y-75982497D01*
X149496259Y-75940000D01*
X150711645Y-75940000D01*
X152025001Y-77253357D01*
X152025000Y-80895604D01*
X151920363Y-81000241D01*
X151763320Y-81235273D01*
X151655147Y-81496426D01*
X151600000Y-81773665D01*
X151600000Y-81921645D01*
X150030890Y-83490755D01*
X149992357Y-83522378D01*
X149960734Y-83560911D01*
X149960733Y-83560912D01*
X149866143Y-83676171D01*
X149772357Y-83851632D01*
X149714604Y-84042017D01*
X149695103Y-84240011D01*
X149699990Y-84289629D01*
X149699989Y-91441656D01*
X146796644Y-94345001D01*
X133090000Y-94345001D01*
X133090000Y-92713396D01*
X133194637Y-92608759D01*
X133351680Y-92373727D01*
X133356067Y-92363135D01*
X133467615Y-92549131D01*
X133656586Y-92757519D01*
X133882580Y-92925037D01*
X134136913Y-93045246D01*
X134270961Y-93085904D01*
X134493000Y-92963915D01*
X134493000Y-91821000D01*
X134473000Y-91821000D01*
X134473000Y-91567000D01*
X134493000Y-91567000D01*
X134493000Y-90424085D01*
X134747000Y-90424085D01*
X134747000Y-91567000D01*
X134767000Y-91567000D01*
X134767000Y-91821000D01*
X134747000Y-91821000D01*
X134747000Y-92963915D01*
X134969039Y-93085904D01*
X135103087Y-93045246D01*
X135357420Y-92925037D01*
X135583414Y-92757519D01*
X135772385Y-92549131D01*
X135883933Y-92363135D01*
X135888320Y-92373727D01*
X136045363Y-92608759D01*
X136245241Y-92808637D01*
X136480273Y-92965680D01*
X136741426Y-93073853D01*
X137018665Y-93129000D01*
X137301335Y-93129000D01*
X137578574Y-93073853D01*
X137839727Y-92965680D01*
X138074759Y-92808637D01*
X138273357Y-92610039D01*
X138274188Y-92618482D01*
X138310498Y-92738180D01*
X138369463Y-92848494D01*
X138448815Y-92945185D01*
X138545506Y-93024537D01*
X138655820Y-93083502D01*
X138775518Y-93119812D01*
X138900000Y-93132072D01*
X140500000Y-93132072D01*
X140624482Y-93119812D01*
X140744180Y-93083502D01*
X140854494Y-93024537D01*
X140951185Y-92945185D01*
X141030537Y-92848494D01*
X141089502Y-92738180D01*
X141125812Y-92618482D01*
X141138072Y-92494000D01*
X141138072Y-90894000D01*
X141125812Y-90769518D01*
X141089502Y-90649820D01*
X141030537Y-90539506D01*
X140951185Y-90442815D01*
X140854494Y-90363463D01*
X140744180Y-90304498D01*
X140624482Y-90268188D01*
X140500000Y-90255928D01*
X138900000Y-90255928D01*
X138775518Y-90268188D01*
X138655820Y-90304498D01*
X138545506Y-90363463D01*
X138448815Y-90442815D01*
X138369463Y-90539506D01*
X138310498Y-90649820D01*
X138274188Y-90769518D01*
X138273357Y-90777961D01*
X138074759Y-90579363D01*
X137839727Y-90422320D01*
X137578574Y-90314147D01*
X137301335Y-90259000D01*
X137018665Y-90259000D01*
X136741426Y-90314147D01*
X136480273Y-90422320D01*
X136245241Y-90579363D01*
X136045363Y-90779241D01*
X135888320Y-91014273D01*
X135883933Y-91024865D01*
X135772385Y-90838869D01*
X135583414Y-90630481D01*
X135357420Y-90462963D01*
X135103087Y-90342754D01*
X134969039Y-90302096D01*
X134747000Y-90424085D01*
X134493000Y-90424085D01*
X134270961Y-90302096D01*
X134136913Y-90342754D01*
X133882580Y-90462963D01*
X133656586Y-90630481D01*
X133467615Y-90838869D01*
X133356067Y-91024865D01*
X133351680Y-91014273D01*
X133194637Y-90779241D01*
X132994759Y-90579363D01*
X132759727Y-90422320D01*
X132498574Y-90314147D01*
X132221335Y-90259000D01*
X131938665Y-90259000D01*
X131661426Y-90314147D01*
X131400273Y-90422320D01*
X131165241Y-90579363D01*
X131060604Y-90684000D01*
X130098989Y-90684000D01*
X130019637Y-90565241D01*
X129819759Y-90365363D01*
X129584727Y-90208320D01*
X129323574Y-90100147D01*
X129046335Y-90045000D01*
X128763665Y-90045000D01*
X128486426Y-90100147D01*
X128225273Y-90208320D01*
X127990241Y-90365363D01*
X127790363Y-90565241D01*
X127633320Y-90800273D01*
X127525147Y-91061426D01*
X127470000Y-91338665D01*
X127470000Y-91621335D01*
X127525147Y-91898574D01*
X127633320Y-92159727D01*
X127790363Y-92394759D01*
X127990241Y-92594637D01*
X128190869Y-92728692D01*
X128163486Y-92743329D01*
X128091903Y-92987298D01*
X128905000Y-93800395D01*
X129718097Y-92987298D01*
X129646514Y-92743329D01*
X129617659Y-92729676D01*
X129656085Y-92704000D01*
X131060604Y-92704000D01*
X131070000Y-92713396D01*
X131070001Y-94345001D01*
X130292902Y-94345001D01*
X130331300Y-94191816D01*
X130345217Y-93909488D01*
X130303787Y-93629870D01*
X130208603Y-93363708D01*
X130141671Y-93238486D01*
X129897702Y-93166903D01*
X129084605Y-93980000D01*
X129098748Y-93994143D01*
X128919143Y-94173748D01*
X128905000Y-94159605D01*
X128890858Y-94173748D01*
X128711253Y-93994143D01*
X128725395Y-93980000D01*
X127912298Y-93166903D01*
X127668329Y-93238486D01*
X127547429Y-93493996D01*
X127478700Y-93768184D01*
X127464783Y-94050512D01*
X127506213Y-94330130D01*
X127511531Y-94345001D01*
X126485509Y-94345001D01*
X126530000Y-94121335D01*
X126530000Y-93838665D01*
X126474853Y-93561426D01*
X126366680Y-93300273D01*
X126209637Y-93065241D01*
X126009759Y-92865363D01*
X125774727Y-92708320D01*
X125513574Y-92600147D01*
X125236335Y-92545000D01*
X124953665Y-92545000D01*
X124676426Y-92600147D01*
X124415273Y-92708320D01*
X124180241Y-92865363D01*
X123980363Y-93065241D01*
X123823320Y-93300273D01*
X123715147Y-93561426D01*
X123660000Y-93838665D01*
X123660000Y-94121335D01*
X123704491Y-94345001D01*
X116807692Y-94345001D01*
X116750134Y-94274866D01*
X116580000Y-94135241D01*
X116580000Y-89913355D01*
X116833355Y-89660000D01*
X116981335Y-89660000D01*
X117258574Y-89604853D01*
X117519727Y-89496680D01*
X117754759Y-89339637D01*
X117954637Y-89139759D01*
X118111680Y-88904727D01*
X118219853Y-88643574D01*
X118272746Y-88377665D01*
X126835000Y-88377665D01*
X126835000Y-88660335D01*
X126890147Y-88937574D01*
X126998320Y-89198727D01*
X127155363Y-89433759D01*
X127355241Y-89633637D01*
X127590273Y-89790680D01*
X127851426Y-89898853D01*
X128128665Y-89954000D01*
X128411335Y-89954000D01*
X128688574Y-89898853D01*
X128949727Y-89790680D01*
X129184759Y-89633637D01*
X129384637Y-89433759D01*
X129541680Y-89198727D01*
X129649853Y-88937574D01*
X129705000Y-88660335D01*
X129705000Y-88377665D01*
X134455000Y-88377665D01*
X134455000Y-88660335D01*
X134510147Y-88937574D01*
X134618320Y-89198727D01*
X134775363Y-89433759D01*
X134975241Y-89633637D01*
X135210273Y-89790680D01*
X135471426Y-89898853D01*
X135748665Y-89954000D01*
X136031335Y-89954000D01*
X136308574Y-89898853D01*
X136569727Y-89790680D01*
X136804759Y-89633637D01*
X137004637Y-89433759D01*
X137161680Y-89198727D01*
X137200000Y-89106214D01*
X137238320Y-89198727D01*
X137395363Y-89433759D01*
X137595241Y-89633637D01*
X137830273Y-89790680D01*
X138091426Y-89898853D01*
X138368665Y-89954000D01*
X138651335Y-89954000D01*
X138928574Y-89898853D01*
X139189727Y-89790680D01*
X139424759Y-89633637D01*
X139624637Y-89433759D01*
X139781680Y-89198727D01*
X139889853Y-88937574D01*
X139945000Y-88660335D01*
X139945000Y-88377665D01*
X142075000Y-88377665D01*
X142075000Y-88660335D01*
X142130147Y-88937574D01*
X142238320Y-89198727D01*
X142395363Y-89433759D01*
X142595241Y-89633637D01*
X142830273Y-89790680D01*
X143091426Y-89898853D01*
X143368665Y-89954000D01*
X143651335Y-89954000D01*
X143928574Y-89898853D01*
X144189727Y-89790680D01*
X144424759Y-89633637D01*
X144624637Y-89433759D01*
X144781680Y-89198727D01*
X144889853Y-88937574D01*
X144945000Y-88660335D01*
X144945000Y-88377665D01*
X144889853Y-88100426D01*
X144781680Y-87839273D01*
X144624637Y-87604241D01*
X144424759Y-87404363D01*
X144189727Y-87247320D01*
X143928574Y-87139147D01*
X143651335Y-87084000D01*
X143368665Y-87084000D01*
X143091426Y-87139147D01*
X142830273Y-87247320D01*
X142595241Y-87404363D01*
X142395363Y-87604241D01*
X142238320Y-87839273D01*
X142130147Y-88100426D01*
X142075000Y-88377665D01*
X139945000Y-88377665D01*
X139889853Y-88100426D01*
X139781680Y-87839273D01*
X139624637Y-87604241D01*
X139424759Y-87404363D01*
X139189727Y-87247320D01*
X138928574Y-87139147D01*
X138651335Y-87084000D01*
X138368665Y-87084000D01*
X138091426Y-87139147D01*
X137830273Y-87247320D01*
X137595241Y-87404363D01*
X137395363Y-87604241D01*
X137238320Y-87839273D01*
X137200000Y-87931786D01*
X137161680Y-87839273D01*
X137004637Y-87604241D01*
X136804759Y-87404363D01*
X136569727Y-87247320D01*
X136308574Y-87139147D01*
X136031335Y-87084000D01*
X135748665Y-87084000D01*
X135471426Y-87139147D01*
X135210273Y-87247320D01*
X134975241Y-87404363D01*
X134775363Y-87604241D01*
X134618320Y-87839273D01*
X134510147Y-88100426D01*
X134455000Y-88377665D01*
X129705000Y-88377665D01*
X129649853Y-88100426D01*
X129541680Y-87839273D01*
X129384637Y-87604241D01*
X129184759Y-87404363D01*
X128949727Y-87247320D01*
X128688574Y-87139147D01*
X128411335Y-87084000D01*
X128128665Y-87084000D01*
X127851426Y-87139147D01*
X127590273Y-87247320D01*
X127355241Y-87404363D01*
X127155363Y-87604241D01*
X126998320Y-87839273D01*
X126890147Y-88100426D01*
X126835000Y-88377665D01*
X118272746Y-88377665D01*
X118275000Y-88366335D01*
X118275000Y-88083665D01*
X118219853Y-87806426D01*
X118111680Y-87545273D01*
X117954637Y-87310241D01*
X117788057Y-87143661D01*
X117884180Y-87114502D01*
X117994494Y-87055537D01*
X118091185Y-86976185D01*
X118170537Y-86879494D01*
X118229502Y-86769180D01*
X118265812Y-86649482D01*
X118278072Y-86525000D01*
X118276243Y-86218665D01*
X123660000Y-86218665D01*
X123660000Y-86501335D01*
X123715147Y-86778574D01*
X123823320Y-87039727D01*
X123980363Y-87274759D01*
X124180241Y-87474637D01*
X124415273Y-87631680D01*
X124676426Y-87739853D01*
X124953665Y-87795000D01*
X125236335Y-87795000D01*
X125513574Y-87739853D01*
X125774727Y-87631680D01*
X126009759Y-87474637D01*
X126209637Y-87274759D01*
X126366680Y-87039727D01*
X126474853Y-86778574D01*
X126530000Y-86501335D01*
X126530000Y-86218665D01*
X126474853Y-85941426D01*
X126366680Y-85680273D01*
X126209637Y-85445241D01*
X126009759Y-85245363D01*
X125945857Y-85202665D01*
X131915000Y-85202665D01*
X131915000Y-85485335D01*
X131970147Y-85762574D01*
X132078320Y-86023727D01*
X132235363Y-86258759D01*
X132435241Y-86458637D01*
X132670273Y-86615680D01*
X132931426Y-86723853D01*
X133208665Y-86779000D01*
X133491335Y-86779000D01*
X133768574Y-86723853D01*
X134029727Y-86615680D01*
X134264759Y-86458637D01*
X134464637Y-86258759D01*
X134621680Y-86023727D01*
X134729853Y-85762574D01*
X134785000Y-85485335D01*
X134785000Y-85202665D01*
X139535000Y-85202665D01*
X139535000Y-85485335D01*
X139590147Y-85762574D01*
X139698320Y-86023727D01*
X139855363Y-86258759D01*
X140055241Y-86458637D01*
X140290273Y-86615680D01*
X140551426Y-86723853D01*
X140828665Y-86779000D01*
X141111335Y-86779000D01*
X141388574Y-86723853D01*
X141649727Y-86615680D01*
X141884759Y-86458637D01*
X142084637Y-86258759D01*
X142241680Y-86023727D01*
X142349853Y-85762574D01*
X142405000Y-85485335D01*
X142405000Y-85202665D01*
X142349853Y-84925426D01*
X142241680Y-84664273D01*
X142084637Y-84429241D01*
X141884759Y-84229363D01*
X141649727Y-84072320D01*
X141388574Y-83964147D01*
X141111335Y-83909000D01*
X140828665Y-83909000D01*
X140551426Y-83964147D01*
X140290273Y-84072320D01*
X140055241Y-84229363D01*
X139855363Y-84429241D01*
X139698320Y-84664273D01*
X139590147Y-84925426D01*
X139535000Y-85202665D01*
X134785000Y-85202665D01*
X134729853Y-84925426D01*
X134621680Y-84664273D01*
X134464637Y-84429241D01*
X134264759Y-84229363D01*
X134029727Y-84072320D01*
X133768574Y-83964147D01*
X133491335Y-83909000D01*
X133208665Y-83909000D01*
X132931426Y-83964147D01*
X132670273Y-84072320D01*
X132435241Y-84229363D01*
X132235363Y-84429241D01*
X132078320Y-84664273D01*
X131970147Y-84925426D01*
X131915000Y-85202665D01*
X125945857Y-85202665D01*
X125774727Y-85088320D01*
X125513574Y-84980147D01*
X125236335Y-84925000D01*
X124953665Y-84925000D01*
X124676426Y-84980147D01*
X124415273Y-85088320D01*
X124180241Y-85245363D01*
X123980363Y-85445241D01*
X123823320Y-85680273D01*
X123715147Y-85941426D01*
X123660000Y-86218665D01*
X118276243Y-86218665D01*
X118275000Y-86010750D01*
X118116250Y-85852000D01*
X116967000Y-85852000D01*
X116967000Y-85872000D01*
X116713000Y-85872000D01*
X116713000Y-85852000D01*
X115563750Y-85852000D01*
X115405000Y-86010750D01*
X115401928Y-86525000D01*
X115414188Y-86649482D01*
X115450498Y-86769180D01*
X115509463Y-86879494D01*
X115588815Y-86976185D01*
X115685506Y-87055537D01*
X115795820Y-87114502D01*
X115891943Y-87143661D01*
X115725363Y-87310241D01*
X115568320Y-87545273D01*
X115460147Y-87806426D01*
X115405000Y-88083665D01*
X115405000Y-88231645D01*
X114890901Y-88745744D01*
X114852368Y-88777367D01*
X114820745Y-88815900D01*
X114820744Y-88815901D01*
X114726154Y-88931160D01*
X114632368Y-89106621D01*
X114574615Y-89297006D01*
X114555114Y-89495000D01*
X114560001Y-89544618D01*
X114560000Y-94135240D01*
X114432350Y-94240000D01*
X111509396Y-94240000D01*
X111404759Y-94135363D01*
X111169727Y-93978320D01*
X110908574Y-93870147D01*
X110631335Y-93815000D01*
X110348665Y-93815000D01*
X110071426Y-93870147D01*
X109810273Y-93978320D01*
X109575241Y-94135363D01*
X109375363Y-94335241D01*
X109218320Y-94570273D01*
X109110147Y-94831426D01*
X109055000Y-95108665D01*
X102260000Y-95108665D01*
X102260000Y-81219553D01*
X108949009Y-81219553D01*
X108991603Y-81518907D01*
X109091778Y-81804199D01*
X109171739Y-81953792D01*
X109425918Y-82037474D01*
X109309970Y-82153422D01*
X109356735Y-82200187D01*
X109345820Y-82203498D01*
X109235506Y-82262463D01*
X109138815Y-82341815D01*
X109059463Y-82438506D01*
X109000498Y-82548820D01*
X108964188Y-82668518D01*
X108951928Y-82793000D01*
X108951928Y-84593000D01*
X108964188Y-84717482D01*
X109000498Y-84837180D01*
X109059463Y-84947494D01*
X109138815Y-85044185D01*
X109235506Y-85123537D01*
X109345820Y-85182502D01*
X109465518Y-85218812D01*
X109480000Y-85220238D01*
X109480001Y-86610603D01*
X109375363Y-86715241D01*
X109218320Y-86950273D01*
X109110147Y-87211426D01*
X109055000Y-87488665D01*
X109055000Y-87771335D01*
X109110147Y-88048574D01*
X109218320Y-88309727D01*
X109375363Y-88544759D01*
X109575241Y-88744637D01*
X109810273Y-88901680D01*
X110071426Y-89009853D01*
X110348665Y-89065000D01*
X110631335Y-89065000D01*
X110908574Y-89009853D01*
X111169727Y-88901680D01*
X111404759Y-88744637D01*
X111604637Y-88544759D01*
X111761680Y-88309727D01*
X111869853Y-88048574D01*
X111925000Y-87771335D01*
X111925000Y-87488665D01*
X111869853Y-87211426D01*
X111761680Y-86950273D01*
X111604637Y-86715241D01*
X111500000Y-86610604D01*
X111500000Y-85220238D01*
X111514482Y-85218812D01*
X111634180Y-85182502D01*
X111744494Y-85123537D01*
X111841185Y-85044185D01*
X111920537Y-84947494D01*
X111932560Y-84925000D01*
X115401928Y-84925000D01*
X115405000Y-85439250D01*
X115563750Y-85598000D01*
X116713000Y-85598000D01*
X116713000Y-84448750D01*
X116967000Y-84448750D01*
X116967000Y-85598000D01*
X118116250Y-85598000D01*
X118275000Y-85439250D01*
X118278072Y-84925000D01*
X118265812Y-84800518D01*
X118229502Y-84680820D01*
X118170537Y-84570506D01*
X118091185Y-84473815D01*
X117994494Y-84394463D01*
X117884180Y-84335498D01*
X117764482Y-84299188D01*
X117640000Y-84286928D01*
X117125750Y-84290000D01*
X116967000Y-84448750D01*
X116713000Y-84448750D01*
X116554250Y-84290000D01*
X116040000Y-84286928D01*
X115915518Y-84299188D01*
X115795820Y-84335498D01*
X115685506Y-84394463D01*
X115588815Y-84473815D01*
X115509463Y-84570506D01*
X115450498Y-84680820D01*
X115414188Y-84800518D01*
X115401928Y-84925000D01*
X111932560Y-84925000D01*
X111979502Y-84837180D01*
X112015812Y-84717482D01*
X112028072Y-84593000D01*
X112028072Y-82793000D01*
X112015812Y-82668518D01*
X111979502Y-82548820D01*
X111920537Y-82438506D01*
X111841185Y-82341815D01*
X111744494Y-82262463D01*
X111634180Y-82203498D01*
X111623265Y-82200187D01*
X111670030Y-82153422D01*
X111554082Y-82037474D01*
X111808261Y-81953792D01*
X111894764Y-81773665D01*
X120485000Y-81773665D01*
X120485000Y-82056335D01*
X120540147Y-82333574D01*
X120648320Y-82594727D01*
X120805363Y-82829759D01*
X121005241Y-83029637D01*
X121240273Y-83186680D01*
X121501426Y-83294853D01*
X121778665Y-83350000D01*
X122061335Y-83350000D01*
X122338574Y-83294853D01*
X122599727Y-83186680D01*
X122834759Y-83029637D01*
X123034637Y-82829759D01*
X123191680Y-82594727D01*
X123299853Y-82333574D01*
X123355000Y-82056335D01*
X123355000Y-81773665D01*
X128105000Y-81773665D01*
X128105000Y-82056335D01*
X128160147Y-82333574D01*
X128268320Y-82594727D01*
X128425363Y-82829759D01*
X128625241Y-83029637D01*
X128860273Y-83186680D01*
X129121426Y-83294853D01*
X129398665Y-83350000D01*
X129681335Y-83350000D01*
X129958574Y-83294853D01*
X130219727Y-83186680D01*
X130454759Y-83029637D01*
X130654637Y-82829759D01*
X130811680Y-82594727D01*
X130919853Y-82333574D01*
X130975000Y-82056335D01*
X130975000Y-81773665D01*
X130919853Y-81496426D01*
X130811680Y-81235273D01*
X130654637Y-81000241D01*
X130454759Y-80800363D01*
X130219727Y-80643320D01*
X129958574Y-80535147D01*
X129681335Y-80480000D01*
X129398665Y-80480000D01*
X129121426Y-80535147D01*
X128860273Y-80643320D01*
X128625241Y-80800363D01*
X128425363Y-81000241D01*
X128268320Y-81235273D01*
X128160147Y-81496426D01*
X128105000Y-81773665D01*
X123355000Y-81773665D01*
X123299853Y-81496426D01*
X123191680Y-81235273D01*
X123034637Y-81000241D01*
X122834759Y-80800363D01*
X122599727Y-80643320D01*
X122338574Y-80535147D01*
X122061335Y-80480000D01*
X121778665Y-80480000D01*
X121501426Y-80535147D01*
X121240273Y-80643320D01*
X121005241Y-80800363D01*
X120805363Y-81000241D01*
X120648320Y-81235273D01*
X120540147Y-81496426D01*
X120485000Y-81773665D01*
X111894764Y-81773665D01*
X111939158Y-81681225D01*
X112014365Y-81388358D01*
X112030991Y-81086447D01*
X111988397Y-80787093D01*
X111888222Y-80501801D01*
X111808261Y-80352208D01*
X111554080Y-80268525D01*
X110669605Y-81153000D01*
X110683748Y-81167143D01*
X110504143Y-81346748D01*
X110490000Y-81332605D01*
X110475858Y-81346748D01*
X110296253Y-81167143D01*
X110310395Y-81153000D01*
X109425920Y-80268525D01*
X109171739Y-80352208D01*
X109040842Y-80624775D01*
X108965635Y-80917642D01*
X108949009Y-81219553D01*
X102260000Y-81219553D01*
X102260000Y-80088920D01*
X109605525Y-80088920D01*
X110490000Y-80973395D01*
X111374475Y-80088920D01*
X111290792Y-79834739D01*
X111018225Y-79703842D01*
X110725358Y-79628635D01*
X110423447Y-79612009D01*
X110124093Y-79654603D01*
X109838801Y-79754778D01*
X109689208Y-79834739D01*
X109605525Y-80088920D01*
X102260000Y-80088920D01*
X102260000Y-77990000D01*
X131961928Y-77990000D01*
X131961928Y-79490000D01*
X131974188Y-79614482D01*
X132010498Y-79734180D01*
X132069463Y-79844494D01*
X132148815Y-79941185D01*
X132245506Y-80020537D01*
X132355820Y-80079502D01*
X132475518Y-80115812D01*
X132600000Y-80128072D01*
X134100000Y-80128072D01*
X134224482Y-80115812D01*
X134344180Y-80079502D01*
X134454494Y-80020537D01*
X134551185Y-79941185D01*
X134610700Y-79868665D01*
X135725000Y-79868665D01*
X135725000Y-80151335D01*
X135780147Y-80428574D01*
X135888320Y-80689727D01*
X136045363Y-80924759D01*
X136245241Y-81124637D01*
X136480273Y-81281680D01*
X136741426Y-81389853D01*
X137018665Y-81445000D01*
X137301335Y-81445000D01*
X137578574Y-81389853D01*
X137839727Y-81281680D01*
X138074759Y-81124637D01*
X138274637Y-80924759D01*
X138431680Y-80689727D01*
X138539853Y-80428574D01*
X138595000Y-80151335D01*
X138595000Y-79868665D01*
X138539853Y-79591426D01*
X138431680Y-79330273D01*
X138274637Y-79095241D01*
X138074759Y-78895363D01*
X137839727Y-78738320D01*
X137578574Y-78630147D01*
X137445060Y-78603589D01*
X139585000Y-78603589D01*
X139585000Y-78876411D01*
X139638225Y-79143989D01*
X139742629Y-79396043D01*
X139894201Y-79622886D01*
X140087114Y-79815799D01*
X140313957Y-79967371D01*
X140566011Y-80071775D01*
X140833589Y-80125000D01*
X141106411Y-80125000D01*
X141373989Y-80071775D01*
X141626043Y-79967371D01*
X141852886Y-79815799D01*
X142045799Y-79622886D01*
X142197371Y-79396043D01*
X142301775Y-79143989D01*
X142355000Y-78876411D01*
X142355000Y-78603589D01*
X142301775Y-78336011D01*
X142197371Y-78083957D01*
X142045799Y-77857114D01*
X141852886Y-77664201D01*
X141626043Y-77512629D01*
X141373989Y-77408225D01*
X141106411Y-77355000D01*
X140833589Y-77355000D01*
X140566011Y-77408225D01*
X140313957Y-77512629D01*
X140087114Y-77664201D01*
X139894201Y-77857114D01*
X139742629Y-78083957D01*
X139638225Y-78336011D01*
X139585000Y-78603589D01*
X137445060Y-78603589D01*
X137301335Y-78575000D01*
X137018665Y-78575000D01*
X136741426Y-78630147D01*
X136480273Y-78738320D01*
X136245241Y-78895363D01*
X136045363Y-79095241D01*
X135888320Y-79330273D01*
X135780147Y-79591426D01*
X135725000Y-79868665D01*
X134610700Y-79868665D01*
X134630537Y-79844494D01*
X134689502Y-79734180D01*
X134725812Y-79614482D01*
X134738072Y-79490000D01*
X134738072Y-77990000D01*
X134725812Y-77865518D01*
X134689502Y-77745820D01*
X134630537Y-77635506D01*
X134551185Y-77538815D01*
X134454494Y-77459463D01*
X134344180Y-77400498D01*
X134224482Y-77364188D01*
X134100000Y-77351928D01*
X132600000Y-77351928D01*
X132475518Y-77364188D01*
X132355820Y-77400498D01*
X132245506Y-77459463D01*
X132148815Y-77538815D01*
X132069463Y-77635506D01*
X132010498Y-77745820D01*
X131974188Y-77865518D01*
X131961928Y-77990000D01*
X102260000Y-77990000D01*
X102260000Y-73599274D01*
X102403962Y-73814729D01*
X102715271Y-74126038D01*
X103081331Y-74370631D01*
X103488075Y-74539110D01*
X103919872Y-74625000D01*
X104360128Y-74625000D01*
X104791925Y-74539110D01*
X105198669Y-74370631D01*
X105483969Y-74180000D01*
X110271928Y-74180000D01*
X110271928Y-75680000D01*
X110288992Y-75853254D01*
X110339528Y-76019850D01*
X110421595Y-76173386D01*
X110532038Y-76307962D01*
X110666614Y-76418405D01*
X110820150Y-76500472D01*
X110986746Y-76551008D01*
X111160000Y-76568072D01*
X112360000Y-76568072D01*
X112533254Y-76551008D01*
X112699850Y-76500472D01*
X112853386Y-76418405D01*
X112987962Y-76307962D01*
X113098405Y-76173386D01*
X113152914Y-76071407D01*
X113153198Y-76071795D01*
X113367954Y-76268664D01*
X113616991Y-76419854D01*
X113890739Y-76519554D01*
X113903110Y-76521476D01*
X114133000Y-76400155D01*
X114133000Y-75057000D01*
X114387000Y-75057000D01*
X114387000Y-76400155D01*
X114616890Y-76521476D01*
X114629261Y-76519554D01*
X114903009Y-76419854D01*
X115152046Y-76268664D01*
X115366802Y-76071795D01*
X115539025Y-75836812D01*
X115662096Y-75572745D01*
X115731285Y-75289742D01*
X115587232Y-75057000D01*
X114387000Y-75057000D01*
X114133000Y-75057000D01*
X114113000Y-75057000D01*
X114113000Y-74803000D01*
X114133000Y-74803000D01*
X114133000Y-73459845D01*
X114387000Y-73459845D01*
X114387000Y-74803000D01*
X115587232Y-74803000D01*
X115731285Y-74570258D01*
X115662096Y-74287255D01*
X115612109Y-74180000D01*
X120431928Y-74180000D01*
X120431928Y-75680000D01*
X120448992Y-75853254D01*
X120499528Y-76019850D01*
X120581595Y-76173386D01*
X120692038Y-76307962D01*
X120826614Y-76418405D01*
X120980150Y-76500472D01*
X121146746Y-76551008D01*
X121320000Y-76568072D01*
X122520000Y-76568072D01*
X122693254Y-76551008D01*
X122859850Y-76500472D01*
X123013386Y-76418405D01*
X123147962Y-76307962D01*
X123258405Y-76173386D01*
X123312914Y-76071407D01*
X123313198Y-76071795D01*
X123527954Y-76268664D01*
X123776991Y-76419854D01*
X124050739Y-76519554D01*
X124063110Y-76521476D01*
X124293000Y-76400155D01*
X124293000Y-75057000D01*
X124547000Y-75057000D01*
X124547000Y-76400155D01*
X124776890Y-76521476D01*
X124789261Y-76519554D01*
X125063009Y-76419854D01*
X125312046Y-76268664D01*
X125526802Y-76071795D01*
X125532816Y-76063589D01*
X129425000Y-76063589D01*
X129425000Y-76336411D01*
X129478225Y-76603989D01*
X129582629Y-76856043D01*
X129734201Y-77082886D01*
X129927114Y-77275799D01*
X130153957Y-77427371D01*
X130406011Y-77531775D01*
X130673589Y-77585000D01*
X130946411Y-77585000D01*
X131213989Y-77531775D01*
X131466043Y-77427371D01*
X131692886Y-77275799D01*
X131885799Y-77082886D01*
X132037371Y-76856043D01*
X132141775Y-76603989D01*
X132195000Y-76336411D01*
X132195000Y-76063589D01*
X142125000Y-76063589D01*
X142125000Y-76336411D01*
X142178225Y-76603989D01*
X142282629Y-76856043D01*
X142434201Y-77082886D01*
X142627114Y-77275799D01*
X142853957Y-77427371D01*
X143106011Y-77531775D01*
X143373589Y-77585000D01*
X143646411Y-77585000D01*
X143913989Y-77531775D01*
X144166043Y-77427371D01*
X144392886Y-77275799D01*
X144585799Y-77082886D01*
X144737371Y-76856043D01*
X144841775Y-76603989D01*
X144895000Y-76336411D01*
X144895000Y-76063589D01*
X144841775Y-75796011D01*
X144737371Y-75543957D01*
X144585799Y-75317114D01*
X144392886Y-75124201D01*
X144166043Y-74972629D01*
X143913989Y-74868225D01*
X143646411Y-74815000D01*
X143373589Y-74815000D01*
X143106011Y-74868225D01*
X142853957Y-74972629D01*
X142627114Y-75124201D01*
X142434201Y-75317114D01*
X142282629Y-75543957D01*
X142178225Y-75796011D01*
X142125000Y-76063589D01*
X132195000Y-76063589D01*
X132141775Y-75796011D01*
X132037371Y-75543957D01*
X131885799Y-75317114D01*
X131692886Y-75124201D01*
X131466043Y-74972629D01*
X131213989Y-74868225D01*
X130946411Y-74815000D01*
X130673589Y-74815000D01*
X130406011Y-74868225D01*
X130153957Y-74972629D01*
X129927114Y-75124201D01*
X129734201Y-75317114D01*
X129582629Y-75543957D01*
X129478225Y-75796011D01*
X129425000Y-76063589D01*
X125532816Y-76063589D01*
X125699025Y-75836812D01*
X125822096Y-75572745D01*
X125891285Y-75289742D01*
X125747232Y-75057000D01*
X124547000Y-75057000D01*
X124293000Y-75057000D01*
X124273000Y-75057000D01*
X124273000Y-74803000D01*
X124293000Y-74803000D01*
X124293000Y-73459845D01*
X124547000Y-73459845D01*
X124547000Y-74803000D01*
X125747232Y-74803000D01*
X125862358Y-74616993D01*
X132572612Y-74616993D01*
X132638137Y-74855860D01*
X132885116Y-74971760D01*
X133149960Y-75037250D01*
X133422492Y-75049812D01*
X133692238Y-75008965D01*
X133948832Y-74916277D01*
X134061863Y-74855860D01*
X134127388Y-74616993D01*
X133350000Y-73839605D01*
X132572612Y-74616993D01*
X125862358Y-74616993D01*
X125891285Y-74570258D01*
X125822096Y-74287255D01*
X125699025Y-74023188D01*
X125526802Y-73788205D01*
X125466028Y-73732492D01*
X131960188Y-73732492D01*
X132001035Y-74002238D01*
X132093723Y-74258832D01*
X132154140Y-74371863D01*
X132393007Y-74437388D01*
X133170395Y-73660000D01*
X133529605Y-73660000D01*
X134306993Y-74437388D01*
X134545860Y-74371863D01*
X134661760Y-74124884D01*
X134727250Y-73860040D01*
X134739812Y-73587508D01*
X134698965Y-73317762D01*
X134606277Y-73061168D01*
X134545860Y-72948137D01*
X134306993Y-72882612D01*
X133529605Y-73660000D01*
X133170395Y-73660000D01*
X132393007Y-72882612D01*
X132154140Y-72948137D01*
X132038240Y-73195116D01*
X131972750Y-73459960D01*
X131960188Y-73732492D01*
X125466028Y-73732492D01*
X125312046Y-73591336D01*
X125063009Y-73440146D01*
X124789261Y-73340446D01*
X124776890Y-73338524D01*
X124547000Y-73459845D01*
X124293000Y-73459845D01*
X124063110Y-73338524D01*
X124050739Y-73340446D01*
X123776991Y-73440146D01*
X123527954Y-73591336D01*
X123313198Y-73788205D01*
X123312914Y-73788593D01*
X123258405Y-73686614D01*
X123147962Y-73552038D01*
X123013386Y-73441595D01*
X122859850Y-73359528D01*
X122693254Y-73308992D01*
X122520000Y-73291928D01*
X121320000Y-73291928D01*
X121146746Y-73308992D01*
X120980150Y-73359528D01*
X120826614Y-73441595D01*
X120692038Y-73552038D01*
X120581595Y-73686614D01*
X120499528Y-73840150D01*
X120448992Y-74006746D01*
X120431928Y-74180000D01*
X115612109Y-74180000D01*
X115539025Y-74023188D01*
X115366802Y-73788205D01*
X115152046Y-73591336D01*
X114903009Y-73440146D01*
X114629261Y-73340446D01*
X114616890Y-73338524D01*
X114387000Y-73459845D01*
X114133000Y-73459845D01*
X113903110Y-73338524D01*
X113890739Y-73340446D01*
X113616991Y-73440146D01*
X113367954Y-73591336D01*
X113153198Y-73788205D01*
X113152914Y-73788593D01*
X113098405Y-73686614D01*
X112987962Y-73552038D01*
X112853386Y-73441595D01*
X112699850Y-73359528D01*
X112533254Y-73308992D01*
X112360000Y-73291928D01*
X111160000Y-73291928D01*
X110986746Y-73308992D01*
X110820150Y-73359528D01*
X110666614Y-73441595D01*
X110532038Y-73552038D01*
X110421595Y-73686614D01*
X110339528Y-73840150D01*
X110288992Y-74006746D01*
X110271928Y-74180000D01*
X105483969Y-74180000D01*
X105564729Y-74126038D01*
X105876038Y-73814729D01*
X106120631Y-73448669D01*
X106289110Y-73041925D01*
X106356525Y-72703007D01*
X132572612Y-72703007D01*
X133350000Y-73480395D01*
X134091355Y-72739040D01*
X135768091Y-72739040D01*
X135862930Y-73003881D01*
X136007615Y-73245131D01*
X136196586Y-73453519D01*
X136422580Y-73621037D01*
X136676913Y-73741246D01*
X136810961Y-73781904D01*
X137033000Y-73659915D01*
X137033000Y-72517000D01*
X137287000Y-72517000D01*
X137287000Y-73659915D01*
X137509039Y-73781904D01*
X137643087Y-73741246D01*
X137897420Y-73621037D01*
X138123414Y-73453519D01*
X138312385Y-73245131D01*
X138457070Y-73003881D01*
X138490688Y-72910000D01*
X139581928Y-72910000D01*
X139581928Y-74410000D01*
X139594188Y-74534482D01*
X139630498Y-74654180D01*
X139689463Y-74764494D01*
X139768815Y-74861185D01*
X139865506Y-74940537D01*
X139975820Y-74999502D01*
X140095518Y-75035812D01*
X140220000Y-75048072D01*
X141720000Y-75048072D01*
X141844482Y-75035812D01*
X141964180Y-74999502D01*
X142074494Y-74940537D01*
X142171185Y-74861185D01*
X142250537Y-74764494D01*
X142309502Y-74654180D01*
X142345812Y-74534482D01*
X142358072Y-74410000D01*
X142358072Y-72910000D01*
X142345812Y-72785518D01*
X142309502Y-72665820D01*
X142250537Y-72555506D01*
X142171185Y-72458815D01*
X142074494Y-72379463D01*
X141964180Y-72320498D01*
X141844482Y-72284188D01*
X141720000Y-72271928D01*
X140220000Y-72271928D01*
X140095518Y-72284188D01*
X139975820Y-72320498D01*
X139865506Y-72379463D01*
X139768815Y-72458815D01*
X139689463Y-72555506D01*
X139630498Y-72665820D01*
X139594188Y-72785518D01*
X139581928Y-72910000D01*
X138490688Y-72910000D01*
X138551909Y-72739040D01*
X138430624Y-72517000D01*
X137287000Y-72517000D01*
X137033000Y-72517000D01*
X135889376Y-72517000D01*
X135768091Y-72739040D01*
X134091355Y-72739040D01*
X134127388Y-72703007D01*
X134061863Y-72464140D01*
X133814884Y-72348240D01*
X133550040Y-72282750D01*
X133277508Y-72270188D01*
X133007762Y-72311035D01*
X132751168Y-72403723D01*
X132638137Y-72464140D01*
X132572612Y-72703007D01*
X106356525Y-72703007D01*
X106375000Y-72610128D01*
X106375000Y-72169872D01*
X106349358Y-72040960D01*
X135768091Y-72040960D01*
X135889376Y-72263000D01*
X137033000Y-72263000D01*
X137033000Y-71120085D01*
X137287000Y-71120085D01*
X137287000Y-72263000D01*
X138430624Y-72263000D01*
X138551909Y-72040960D01*
X138457070Y-71776119D01*
X138312385Y-71534869D01*
X138123414Y-71326481D01*
X137897420Y-71158963D01*
X137643087Y-71038754D01*
X137509039Y-70998096D01*
X137287000Y-71120085D01*
X137033000Y-71120085D01*
X136810961Y-70998096D01*
X136676913Y-71038754D01*
X136422580Y-71158963D01*
X136196586Y-71326481D01*
X136007615Y-71534869D01*
X135862930Y-71776119D01*
X135768091Y-72040960D01*
X106349358Y-72040960D01*
X106289110Y-71738075D01*
X106120631Y-71331331D01*
X105876038Y-70965271D01*
X105564729Y-70653962D01*
X105349274Y-70510000D01*
X167700726Y-70510000D01*
X167485271Y-70653962D01*
G37*
X167485271Y-70653962D02*
X167173962Y-70965271D01*
X166929369Y-71331331D01*
X166760890Y-71738075D01*
X166675000Y-72169872D01*
X166675000Y-72610128D01*
X166760890Y-73041925D01*
X166929369Y-73448669D01*
X167173962Y-73814729D01*
X167485271Y-74126038D01*
X167851331Y-74370631D01*
X168258075Y-74539110D01*
X168689872Y-74625000D01*
X169130128Y-74625000D01*
X169561925Y-74539110D01*
X169968669Y-74370631D01*
X170334729Y-74126038D01*
X170646038Y-73814729D01*
X170790001Y-73599273D01*
X170790000Y-115630726D01*
X170646038Y-115415271D01*
X170334729Y-115103962D01*
X169968669Y-114859369D01*
X169561925Y-114690890D01*
X169130128Y-114605000D01*
X168689872Y-114605000D01*
X168258075Y-114690890D01*
X167851331Y-114859369D01*
X167485271Y-115103962D01*
X167173962Y-115415271D01*
X166929369Y-115781331D01*
X166760890Y-116188075D01*
X166675000Y-116619872D01*
X166675000Y-117060128D01*
X166760890Y-117491925D01*
X166929369Y-117898669D01*
X167173962Y-118264729D01*
X167485271Y-118576038D01*
X167700726Y-118720000D01*
X105349274Y-118720000D01*
X105564729Y-118576038D01*
X105876038Y-118264729D01*
X106120631Y-117898669D01*
X106289110Y-117491925D01*
X106375000Y-117060128D01*
X106375000Y-116619872D01*
X106289110Y-116188075D01*
X106120631Y-115781331D01*
X105876038Y-115415271D01*
X105564729Y-115103962D01*
X105518392Y-115073000D01*
X108951928Y-115073000D01*
X108964188Y-115197482D01*
X109000498Y-115317180D01*
X109059463Y-115427494D01*
X109138815Y-115524185D01*
X109235506Y-115603537D01*
X109345820Y-115662502D01*
X109465518Y-115698812D01*
X109590000Y-115711072D01*
X110204250Y-115708000D01*
X110363000Y-115549250D01*
X110363000Y-114300000D01*
X110617000Y-114300000D01*
X110617000Y-115549250D01*
X110775750Y-115708000D01*
X111390000Y-115711072D01*
X111514482Y-115698812D01*
X111634180Y-115662502D01*
X111744494Y-115603537D01*
X111841185Y-115524185D01*
X111920537Y-115427494D01*
X111979502Y-115317180D01*
X112015812Y-115197482D01*
X112028072Y-115073000D01*
X112025000Y-114458750D01*
X111866250Y-114300000D01*
X110617000Y-114300000D01*
X110363000Y-114300000D01*
X109113750Y-114300000D01*
X108955000Y-114458750D01*
X108951928Y-115073000D01*
X105518392Y-115073000D01*
X105198669Y-114859369D01*
X104791925Y-114690890D01*
X104360128Y-114605000D01*
X103919872Y-114605000D01*
X103488075Y-114690890D01*
X103081331Y-114859369D01*
X102715271Y-115103962D01*
X102403962Y-115415271D01*
X102260000Y-115630726D01*
X102260000Y-113273000D01*
X108951928Y-113273000D01*
X108955000Y-113887250D01*
X109113750Y-114046000D01*
X110363000Y-114046000D01*
X110363000Y-114026000D01*
X110617000Y-114026000D01*
X110617000Y-114046000D01*
X111866250Y-114046000D01*
X112025000Y-113887250D01*
X112028072Y-113273000D01*
X112015812Y-113148518D01*
X111979502Y-113028820D01*
X111920537Y-112918506D01*
X111841185Y-112821815D01*
X111744494Y-112742463D01*
X111634180Y-112683498D01*
X111615873Y-112677944D01*
X111682312Y-112611505D01*
X111850299Y-112360095D01*
X111966011Y-112080743D01*
X112025000Y-111784184D01*
X112025000Y-111481816D01*
X111966011Y-111185257D01*
X111850299Y-110905905D01*
X111784682Y-110807702D01*
X116026903Y-110807702D01*
X116098486Y-111051671D01*
X116353996Y-111172571D01*
X116628184Y-111241300D01*
X116910512Y-111255217D01*
X117190130Y-111213787D01*
X117456292Y-111118603D01*
X117581514Y-111051671D01*
X117653097Y-110807702D01*
X116840000Y-109994605D01*
X116026903Y-110807702D01*
X111784682Y-110807702D01*
X111682312Y-110654495D01*
X111500000Y-110472183D01*
X111500000Y-109885512D01*
X115399783Y-109885512D01*
X115441213Y-110165130D01*
X115536397Y-110431292D01*
X115603329Y-110556514D01*
X115847298Y-110628097D01*
X116660395Y-109815000D01*
X117019605Y-109815000D01*
X117832702Y-110628097D01*
X118076671Y-110556514D01*
X118197571Y-110301004D01*
X118266300Y-110026816D01*
X118280217Y-109744488D01*
X118238787Y-109464870D01*
X118143603Y-109198708D01*
X118076671Y-109073486D01*
X117832702Y-109001903D01*
X117019605Y-109815000D01*
X116660395Y-109815000D01*
X115847298Y-109001903D01*
X115603329Y-109073486D01*
X115482429Y-109328996D01*
X115413700Y-109603184D01*
X115399783Y-109885512D01*
X111500000Y-109885512D01*
X111500000Y-108969396D01*
X111604637Y-108864759D01*
X111761680Y-108629727D01*
X111869853Y-108368574D01*
X111925000Y-108091335D01*
X111925000Y-107808665D01*
X111869853Y-107531426D01*
X111761680Y-107270273D01*
X111604637Y-107035241D01*
X111404759Y-106835363D01*
X111169727Y-106678320D01*
X110908574Y-106570147D01*
X110631335Y-106515000D01*
X110348665Y-106515000D01*
X110071426Y-106570147D01*
X109810273Y-106678320D01*
X109575241Y-106835363D01*
X109375363Y-107035241D01*
X109218320Y-107270273D01*
X109110147Y-107531426D01*
X109055000Y-107808665D01*
X109055000Y-108091335D01*
X109110147Y-108368574D01*
X109218320Y-108629727D01*
X109375363Y-108864759D01*
X109480000Y-108969396D01*
X109480001Y-110472182D01*
X109297688Y-110654495D01*
X109129701Y-110905905D01*
X109013989Y-111185257D01*
X108955000Y-111481816D01*
X108955000Y-111784184D01*
X109013989Y-112080743D01*
X109129701Y-112360095D01*
X109297688Y-112611505D01*
X109364127Y-112677944D01*
X109345820Y-112683498D01*
X109235506Y-112742463D01*
X109138815Y-112821815D01*
X109059463Y-112918506D01*
X109000498Y-113028820D01*
X108964188Y-113148518D01*
X108951928Y-113273000D01*
X102260000Y-113273000D01*
X102260000Y-98640000D01*
X102651928Y-98640000D01*
X102664188Y-98764482D01*
X102700498Y-98884180D01*
X102759463Y-98994494D01*
X102838815Y-99091185D01*
X102935506Y-99170537D01*
X103045820Y-99229502D01*
X103165518Y-99265812D01*
X103290000Y-99278072D01*
X103854250Y-99275000D01*
X104013000Y-99116250D01*
X104013000Y-97917000D01*
X104267000Y-97917000D01*
X104267000Y-99116250D01*
X104425750Y-99275000D01*
X104990000Y-99278072D01*
X105114482Y-99265812D01*
X105234180Y-99229502D01*
X105344494Y-99170537D01*
X105441185Y-99091185D01*
X105520537Y-98994494D01*
X105579502Y-98884180D01*
X105603966Y-98803534D01*
X105679731Y-98887588D01*
X105913080Y-99061641D01*
X106175901Y-99186825D01*
X106323110Y-99231476D01*
X106553000Y-99110155D01*
X106553000Y-97917000D01*
X106807000Y-97917000D01*
X106807000Y-99110155D01*
X107036890Y-99231476D01*
X107184099Y-99186825D01*
X107446920Y-99061641D01*
X107680269Y-98887588D01*
X107875178Y-98671355D01*
X108024157Y-98421252D01*
X108121481Y-98146891D01*
X108000814Y-97917000D01*
X106807000Y-97917000D01*
X106553000Y-97917000D01*
X104267000Y-97917000D01*
X104013000Y-97917000D01*
X102813750Y-97917000D01*
X102655000Y-98075750D01*
X102651928Y-98640000D01*
X102260000Y-98640000D01*
X102260000Y-96940000D01*
X102651928Y-96940000D01*
X102655000Y-97504250D01*
X102813750Y-97663000D01*
X104013000Y-97663000D01*
X104013000Y-96463750D01*
X104267000Y-96463750D01*
X104267000Y-97663000D01*
X106553000Y-97663000D01*
X106553000Y-96469845D01*
X106807000Y-96469845D01*
X106807000Y-97663000D01*
X108000814Y-97663000D01*
X108121481Y-97433109D01*
X108024157Y-97158748D01*
X107875178Y-96908645D01*
X107680269Y-96692412D01*
X107446920Y-96518359D01*
X107184099Y-96393175D01*
X107036890Y-96348524D01*
X106807000Y-96469845D01*
X106553000Y-96469845D01*
X106323110Y-96348524D01*
X106175901Y-96393175D01*
X105913080Y-96518359D01*
X105679731Y-96692412D01*
X105603966Y-96776466D01*
X105579502Y-96695820D01*
X105520537Y-96585506D01*
X105441185Y-96488815D01*
X105344494Y-96409463D01*
X105234180Y-96350498D01*
X105114482Y-96314188D01*
X104990000Y-96301928D01*
X104425750Y-96305000D01*
X104267000Y-96463750D01*
X104013000Y-96463750D01*
X103854250Y-96305000D01*
X103290000Y-96301928D01*
X103165518Y-96314188D01*
X103045820Y-96350498D01*
X102935506Y-96409463D01*
X102838815Y-96488815D01*
X102759463Y-96585506D01*
X102700498Y-96695820D01*
X102664188Y-96815518D01*
X102651928Y-96940000D01*
X102260000Y-96940000D01*
X102260000Y-95108665D01*
X109055000Y-95108665D01*
X109055000Y-95391335D01*
X109110147Y-95668574D01*
X109218320Y-95929727D01*
X109375363Y-96164759D01*
X109575241Y-96364637D01*
X109810273Y-96521680D01*
X110071426Y-96629853D01*
X110348665Y-96685000D01*
X110631335Y-96685000D01*
X110908574Y-96629853D01*
X111169727Y-96521680D01*
X111404759Y-96364637D01*
X111509396Y-96260000D01*
X114287171Y-96260000D01*
X114389866Y-96385134D01*
X114615986Y-96570706D01*
X114641722Y-96584462D01*
X114435571Y-96740951D01*
X114242504Y-96958807D01*
X114095648Y-97210142D01*
X114003524Y-97473110D01*
X114124845Y-97703000D01*
X115443000Y-97703000D01*
X115443000Y-97683000D01*
X115697000Y-97683000D01*
X115697000Y-97703000D01*
X117015155Y-97703000D01*
X117136476Y-97473110D01*
X117044352Y-97210142D01*
X116897496Y-96958807D01*
X116704429Y-96740951D01*
X116498278Y-96584462D01*
X116524014Y-96570706D01*
X116750134Y-96385134D01*
X116766657Y-96365001D01*
X131925391Y-96365001D01*
X131974999Y-96369887D01*
X132024607Y-96365001D01*
X141498127Y-96365001D01*
X141448700Y-96562184D01*
X141434783Y-96844512D01*
X141476213Y-97124130D01*
X141571397Y-97390292D01*
X141638329Y-97515514D01*
X141882298Y-97587097D01*
X142695395Y-96774000D01*
X142681253Y-96759858D01*
X142860858Y-96580253D01*
X142875000Y-96594395D01*
X142889143Y-96580253D01*
X143068748Y-96759858D01*
X143054605Y-96774000D01*
X143867702Y-97587097D01*
X144111671Y-97515514D01*
X144232571Y-97260004D01*
X144301300Y-96985816D01*
X144315217Y-96703488D01*
X144273787Y-96423870D01*
X144252734Y-96365001D01*
X146796644Y-96365001D01*
X148850001Y-98418358D01*
X148850000Y-99310604D01*
X148745363Y-99415241D01*
X148588320Y-99650273D01*
X148480147Y-99911426D01*
X148425000Y-100188665D01*
X148425000Y-100471335D01*
X148469491Y-100695001D01*
X148050357Y-100695001D01*
X145950261Y-98594906D01*
X145918633Y-98556367D01*
X145764840Y-98430153D01*
X145589380Y-98336368D01*
X145398994Y-98278615D01*
X145250608Y-98264000D01*
X145201000Y-98259114D01*
X145151392Y-98264000D01*
X143894396Y-98264000D01*
X143789759Y-98159363D01*
X143589131Y-98025308D01*
X143616514Y-98010671D01*
X143688097Y-97766702D01*
X142875000Y-96953605D01*
X142061903Y-97766702D01*
X142133486Y-98010671D01*
X142162341Y-98024324D01*
X141960241Y-98159363D01*
X141815604Y-98304000D01*
X140719396Y-98304000D01*
X140614759Y-98199363D01*
X140379727Y-98042320D01*
X140118574Y-97934147D01*
X139841335Y-97879000D01*
X139693356Y-97879000D01*
X138925261Y-97110906D01*
X138893633Y-97072367D01*
X138739840Y-96946153D01*
X138564380Y-96852368D01*
X138373994Y-96794615D01*
X138225608Y-96780000D01*
X138176000Y-96775114D01*
X138126392Y-96780000D01*
X125144604Y-96780000D01*
X125094999Y-96775114D01*
X125045394Y-96780000D01*
X125045392Y-96780000D01*
X124897006Y-96794615D01*
X124706620Y-96852368D01*
X124531160Y-96946153D01*
X124377367Y-97072367D01*
X124345744Y-97110900D01*
X122136645Y-99320000D01*
X117077976Y-99320000D01*
X117033405Y-99236614D01*
X116922962Y-99102038D01*
X116788386Y-98991595D01*
X116683039Y-98935286D01*
X116704429Y-98919049D01*
X116897496Y-98701193D01*
X117044352Y-98449858D01*
X117136476Y-98186890D01*
X117015155Y-97957000D01*
X115697000Y-97957000D01*
X115697000Y-97977000D01*
X115443000Y-97977000D01*
X115443000Y-97957000D01*
X114124845Y-97957000D01*
X114003524Y-98186890D01*
X114095648Y-98449858D01*
X114242504Y-98701193D01*
X114435571Y-98919049D01*
X114456961Y-98935286D01*
X114351614Y-98991595D01*
X114217038Y-99102038D01*
X114106595Y-99236614D01*
X114062024Y-99320000D01*
X111509396Y-99320000D01*
X111404759Y-99215363D01*
X111169727Y-99058320D01*
X110908574Y-98950147D01*
X110631335Y-98895000D01*
X110348665Y-98895000D01*
X110071426Y-98950147D01*
X109810273Y-99058320D01*
X109575241Y-99215363D01*
X109375363Y-99415241D01*
X109218320Y-99650273D01*
X109110147Y-99911426D01*
X109055000Y-100188665D01*
X109055000Y-100471335D01*
X109110147Y-100748574D01*
X109218320Y-101009727D01*
X109375363Y-101244759D01*
X109575241Y-101444637D01*
X109810273Y-101601680D01*
X110071426Y-101709853D01*
X110348665Y-101765000D01*
X110631335Y-101765000D01*
X110908574Y-101709853D01*
X111169727Y-101601680D01*
X111404759Y-101444637D01*
X111509396Y-101340000D01*
X114062024Y-101340000D01*
X114106595Y-101423386D01*
X114217038Y-101557962D01*
X114351614Y-101668405D01*
X114505150Y-101750472D01*
X114560000Y-101767111D01*
X114560001Y-105995382D01*
X114555114Y-106045000D01*
X114574615Y-106242994D01*
X114632368Y-106433379D01*
X114726154Y-106608840D01*
X114778946Y-106673167D01*
X114852368Y-106762633D01*
X114890901Y-106794256D01*
X115401928Y-107305283D01*
X115401928Y-108115000D01*
X115414188Y-108239482D01*
X115450498Y-108359180D01*
X115509463Y-108469494D01*
X115588815Y-108566185D01*
X115685506Y-108645537D01*
X115795820Y-108704502D01*
X115915518Y-108740812D01*
X116040000Y-108753072D01*
X116047215Y-108753072D01*
X116026903Y-108822298D01*
X116840000Y-109635395D01*
X117653097Y-108822298D01*
X117632785Y-108753072D01*
X117640000Y-108753072D01*
X117764482Y-108740812D01*
X117884180Y-108704502D01*
X117994494Y-108645537D01*
X118091185Y-108566185D01*
X118170537Y-108469494D01*
X118229502Y-108359180D01*
X118265812Y-108239482D01*
X118278072Y-108115000D01*
X118278072Y-107181544D01*
X126280000Y-107181544D01*
X126280000Y-107448456D01*
X126332072Y-107710239D01*
X126434215Y-107956833D01*
X126582503Y-108178762D01*
X126771238Y-108367497D01*
X126993167Y-108515785D01*
X127160266Y-108585000D01*
X126993167Y-108654215D01*
X126771238Y-108802503D01*
X126582503Y-108991238D01*
X126434215Y-109213167D01*
X126332072Y-109459761D01*
X126280000Y-109721544D01*
X126280000Y-109988456D01*
X126332072Y-110250239D01*
X126434215Y-110496833D01*
X126582503Y-110718762D01*
X126771238Y-110907497D01*
X126993167Y-111055785D01*
X127160266Y-111125000D01*
X126993167Y-111194215D01*
X126771238Y-111342503D01*
X126582503Y-111531238D01*
X126434215Y-111753167D01*
X126332072Y-111999761D01*
X126280000Y-112261544D01*
X126280000Y-112528456D01*
X126332072Y-112790239D01*
X126434215Y-113036833D01*
X126582503Y-113258762D01*
X126771238Y-113447497D01*
X126993167Y-113595785D01*
X127239761Y-113697928D01*
X127501544Y-113750000D01*
X127768456Y-113750000D01*
X128030239Y-113697928D01*
X128276833Y-113595785D01*
X128469498Y-113467050D01*
X145280000Y-113467050D01*
X145280000Y-113862949D01*
X145301487Y-114081110D01*
X145386401Y-114361033D01*
X145524294Y-114619013D01*
X145709866Y-114845134D01*
X145935986Y-115030706D01*
X146193966Y-115168599D01*
X146473889Y-115253513D01*
X146765000Y-115282185D01*
X147056110Y-115253513D01*
X147336033Y-115168599D01*
X147594013Y-115030706D01*
X147820134Y-114845134D01*
X148005706Y-114619014D01*
X148015000Y-114601626D01*
X148024294Y-114619013D01*
X148209866Y-114845134D01*
X148435986Y-115030706D01*
X148693966Y-115168599D01*
X148973889Y-115253513D01*
X149265000Y-115282185D01*
X149556110Y-115253513D01*
X149836033Y-115168599D01*
X150094013Y-115030706D01*
X150320134Y-114845134D01*
X150372223Y-114781663D01*
X150426595Y-114883386D01*
X150537038Y-115017962D01*
X150671614Y-115128405D01*
X150825150Y-115210472D01*
X150991746Y-115261008D01*
X151165000Y-115278072D01*
X152365000Y-115278072D01*
X152538254Y-115261008D01*
X152704850Y-115210472D01*
X152858386Y-115128405D01*
X152992962Y-115017962D01*
X153103405Y-114883386D01*
X153185472Y-114729850D01*
X153236008Y-114563254D01*
X153253072Y-114390000D01*
X153253072Y-114024742D01*
X157318715Y-114024742D01*
X157387904Y-114307745D01*
X157510975Y-114571812D01*
X157683198Y-114806795D01*
X157897954Y-115003664D01*
X158146991Y-115154854D01*
X158420739Y-115254554D01*
X158433110Y-115256476D01*
X158663000Y-115135155D01*
X158663000Y-113792000D01*
X157462768Y-113792000D01*
X157318715Y-114024742D01*
X153253072Y-114024742D01*
X153253072Y-113305258D01*
X157318715Y-113305258D01*
X157462768Y-113538000D01*
X158663000Y-113538000D01*
X158663000Y-112194845D01*
X158917000Y-112194845D01*
X158917000Y-113538000D01*
X158937000Y-113538000D01*
X158937000Y-113792000D01*
X158917000Y-113792000D01*
X158917000Y-115135155D01*
X159146890Y-115256476D01*
X159159261Y-115254554D01*
X159433009Y-115154854D01*
X159682046Y-115003664D01*
X159896802Y-114806795D01*
X159897086Y-114806407D01*
X159951595Y-114908386D01*
X160062038Y-115042962D01*
X160196614Y-115153405D01*
X160350150Y-115235472D01*
X160516746Y-115286008D01*
X160690000Y-115303072D01*
X161890000Y-115303072D01*
X162063254Y-115286008D01*
X162229850Y-115235472D01*
X162383386Y-115153405D01*
X162517962Y-115042962D01*
X162628405Y-114908386D01*
X162710472Y-114754850D01*
X162761008Y-114588254D01*
X162778072Y-114415000D01*
X162778072Y-112915000D01*
X162761008Y-112741746D01*
X162710472Y-112575150D01*
X162628405Y-112421614D01*
X162517962Y-112287038D01*
X162383386Y-112176595D01*
X162229850Y-112094528D01*
X162063254Y-112043992D01*
X161890000Y-112026928D01*
X160690000Y-112026928D01*
X160516746Y-112043992D01*
X160350150Y-112094528D01*
X160196614Y-112176595D01*
X160062038Y-112287038D01*
X159951595Y-112421614D01*
X159897086Y-112523593D01*
X159896802Y-112523205D01*
X159682046Y-112326336D01*
X159433009Y-112175146D01*
X159159261Y-112075446D01*
X159146890Y-112073524D01*
X158917000Y-112194845D01*
X158663000Y-112194845D01*
X158433110Y-112073524D01*
X158420739Y-112075446D01*
X158146991Y-112175146D01*
X157897954Y-112326336D01*
X157683198Y-112523205D01*
X157510975Y-112758188D01*
X157387904Y-113022255D01*
X157318715Y-113305258D01*
X153253072Y-113305258D01*
X153253072Y-112940000D01*
X153236008Y-112766746D01*
X153185472Y-112600150D01*
X153103405Y-112446614D01*
X152992962Y-112312038D01*
X152858386Y-112201595D01*
X152704850Y-112119528D01*
X152538254Y-112068992D01*
X152365000Y-112051928D01*
X151165000Y-112051928D01*
X150991746Y-112068992D01*
X150825150Y-112119528D01*
X150671614Y-112201595D01*
X150537038Y-112312038D01*
X150426595Y-112446614D01*
X150372223Y-112548337D01*
X150320134Y-112484866D01*
X150094014Y-112299294D01*
X149836034Y-112161401D01*
X149556111Y-112076487D01*
X149265000Y-112047815D01*
X148973890Y-112076487D01*
X148693967Y-112161401D01*
X148435987Y-112299294D01*
X148209866Y-112484866D01*
X148024294Y-112710986D01*
X148015000Y-112728374D01*
X148005706Y-112710986D01*
X147820134Y-112484866D01*
X147594014Y-112299294D01*
X147336034Y-112161401D01*
X147056111Y-112076487D01*
X146765000Y-112047815D01*
X146473890Y-112076487D01*
X146193967Y-112161401D01*
X145935987Y-112299294D01*
X145709866Y-112484866D01*
X145524294Y-112710986D01*
X145386401Y-112968966D01*
X145301487Y-113248889D01*
X145280000Y-113467050D01*
X128469498Y-113467050D01*
X128498762Y-113447497D01*
X128687497Y-113258762D01*
X128835785Y-113036833D01*
X128937928Y-112790239D01*
X128990000Y-112528456D01*
X128990000Y-112261544D01*
X128937928Y-111999761D01*
X128835785Y-111753167D01*
X128687497Y-111531238D01*
X128498762Y-111342503D01*
X128276833Y-111194215D01*
X128109734Y-111125000D01*
X128276833Y-111055785D01*
X128498762Y-110907497D01*
X128687497Y-110718762D01*
X128835785Y-110496833D01*
X128937928Y-110250239D01*
X128990000Y-109988456D01*
X128990000Y-109721544D01*
X128937928Y-109459761D01*
X128835785Y-109213167D01*
X128687497Y-108991238D01*
X128498762Y-108802503D01*
X128276833Y-108654215D01*
X128109734Y-108585000D01*
X128276833Y-108515785D01*
X128498762Y-108367497D01*
X128687497Y-108178762D01*
X128835785Y-107956833D01*
X128897158Y-107808665D01*
X148425000Y-107808665D01*
X148425000Y-108091335D01*
X148480147Y-108368574D01*
X148588320Y-108629727D01*
X148745363Y-108864759D01*
X148945241Y-109064637D01*
X149180273Y-109221680D01*
X149441426Y-109329853D01*
X149718665Y-109385000D01*
X150001335Y-109385000D01*
X150278574Y-109329853D01*
X150539727Y-109221680D01*
X150774759Y-109064637D01*
X150974637Y-108864759D01*
X151131680Y-108629727D01*
X151239853Y-108368574D01*
X151295000Y-108091335D01*
X151295000Y-107808665D01*
X151600000Y-107808665D01*
X151600000Y-108091335D01*
X151655147Y-108368574D01*
X151763320Y-108629727D01*
X151920363Y-108864759D01*
X152120241Y-109064637D01*
X152355273Y-109221680D01*
X152616426Y-109329853D01*
X152893665Y-109385000D01*
X153176335Y-109385000D01*
X153453574Y-109329853D01*
X153714727Y-109221680D01*
X153949759Y-109064637D01*
X154149637Y-108864759D01*
X154306680Y-108629727D01*
X154414853Y-108368574D01*
X154470000Y-108091335D01*
X154470000Y-107808665D01*
X154775000Y-107808665D01*
X154775000Y-108091335D01*
X154830147Y-108368574D01*
X154938320Y-108629727D01*
X155095363Y-108864759D01*
X155295241Y-109064637D01*
X155530273Y-109221680D01*
X155791426Y-109329853D01*
X156068665Y-109385000D01*
X156351335Y-109385000D01*
X156628574Y-109329853D01*
X156889727Y-109221680D01*
X157124759Y-109064637D01*
X157324637Y-108864759D01*
X157481680Y-108629727D01*
X157589853Y-108368574D01*
X157645000Y-108091335D01*
X157645000Y-107808665D01*
X159855000Y-107808665D01*
X159855000Y-108091335D01*
X159910147Y-108368574D01*
X160018320Y-108629727D01*
X160175363Y-108864759D01*
X160375241Y-109064637D01*
X160610273Y-109221680D01*
X160871426Y-109329853D01*
X161148665Y-109385000D01*
X161431335Y-109385000D01*
X161708574Y-109329853D01*
X161969727Y-109221680D01*
X162204759Y-109064637D01*
X162404637Y-108864759D01*
X162561680Y-108629727D01*
X162669853Y-108368574D01*
X162725000Y-108091335D01*
X162725000Y-107808665D01*
X162669853Y-107531426D01*
X162561680Y-107270273D01*
X162404637Y-107035241D01*
X162204759Y-106835363D01*
X161969727Y-106678320D01*
X161708574Y-106570147D01*
X161431335Y-106515000D01*
X161148665Y-106515000D01*
X160871426Y-106570147D01*
X160610273Y-106678320D01*
X160375241Y-106835363D01*
X160175363Y-107035241D01*
X160018320Y-107270273D01*
X159910147Y-107531426D01*
X159855000Y-107808665D01*
X157645000Y-107808665D01*
X157589853Y-107531426D01*
X157481680Y-107270273D01*
X157324637Y-107035241D01*
X157124759Y-106835363D01*
X156889727Y-106678320D01*
X156628574Y-106570147D01*
X156351335Y-106515000D01*
X156068665Y-106515000D01*
X155791426Y-106570147D01*
X155530273Y-106678320D01*
X155295241Y-106835363D01*
X155095363Y-107035241D01*
X154938320Y-107270273D01*
X154830147Y-107531426D01*
X154775000Y-107808665D01*
X154470000Y-107808665D01*
X154414853Y-107531426D01*
X154306680Y-107270273D01*
X154149637Y-107035241D01*
X153949759Y-106835363D01*
X153714727Y-106678320D01*
X153453574Y-106570147D01*
X153176335Y-106515000D01*
X152893665Y-106515000D01*
X152616426Y-106570147D01*
X152355273Y-106678320D01*
X152120241Y-106835363D01*
X151920363Y-107035241D01*
X151763320Y-107270273D01*
X151655147Y-107531426D01*
X151600000Y-107808665D01*
X151295000Y-107808665D01*
X151239853Y-107531426D01*
X151131680Y-107270273D01*
X150974637Y-107035241D01*
X150774759Y-106835363D01*
X150539727Y-106678320D01*
X150278574Y-106570147D01*
X150001335Y-106515000D01*
X149718665Y-106515000D01*
X149441426Y-106570147D01*
X149180273Y-106678320D01*
X148945241Y-106835363D01*
X148745363Y-107035241D01*
X148588320Y-107270273D01*
X148480147Y-107531426D01*
X148425000Y-107808665D01*
X128897158Y-107808665D01*
X128937928Y-107710239D01*
X128990000Y-107448456D01*
X128990000Y-107181544D01*
X128937928Y-106919761D01*
X128835785Y-106673167D01*
X128687497Y-106451238D01*
X128498762Y-106262503D01*
X128276833Y-106114215D01*
X128030239Y-106012072D01*
X127768456Y-105960000D01*
X127501544Y-105960000D01*
X127239761Y-106012072D01*
X126993167Y-106114215D01*
X126771238Y-106262503D01*
X126582503Y-106451238D01*
X126434215Y-106673167D01*
X126332072Y-106919761D01*
X126280000Y-107181544D01*
X118278072Y-107181544D01*
X118278072Y-106515000D01*
X118265812Y-106390518D01*
X118229502Y-106270820D01*
X118170537Y-106160506D01*
X118091185Y-106063815D01*
X117994494Y-105984463D01*
X117884180Y-105925498D01*
X117764482Y-105889188D01*
X117640000Y-105876928D01*
X116830283Y-105876928D01*
X116580000Y-105626645D01*
X116580000Y-102728665D01*
X126200000Y-102728665D01*
X126200000Y-103011335D01*
X126255147Y-103288574D01*
X126363320Y-103549727D01*
X126520363Y-103784759D01*
X126720241Y-103984637D01*
X126955273Y-104141680D01*
X127216426Y-104249853D01*
X127493665Y-104305000D01*
X127776335Y-104305000D01*
X128053574Y-104249853D01*
X128314727Y-104141680D01*
X128549759Y-103984637D01*
X128749637Y-103784759D01*
X128906680Y-103549727D01*
X129014853Y-103288574D01*
X129070000Y-103011335D01*
X129070000Y-102728665D01*
X133820000Y-102728665D01*
X133820000Y-103011335D01*
X133875147Y-103288574D01*
X133983320Y-103549727D01*
X134140363Y-103784759D01*
X134340241Y-103984637D01*
X134575273Y-104141680D01*
X134836426Y-104249853D01*
X135113665Y-104305000D01*
X135396335Y-104305000D01*
X135673574Y-104249853D01*
X135934727Y-104141680D01*
X136169759Y-103984637D01*
X136369637Y-103784759D01*
X136461500Y-103647276D01*
X136553363Y-103784759D01*
X136753241Y-103984637D01*
X136988273Y-104141680D01*
X137249426Y-104249853D01*
X137526665Y-104305000D01*
X137809335Y-104305000D01*
X138086574Y-104249853D01*
X138347727Y-104141680D01*
X138582759Y-103984637D01*
X138782637Y-103784759D01*
X138939680Y-103549727D01*
X139047853Y-103288574D01*
X139103000Y-103011335D01*
X139103000Y-102728665D01*
X143853000Y-102728665D01*
X143853000Y-103011335D01*
X143908147Y-103288574D01*
X144016320Y-103549727D01*
X144173363Y-103784759D01*
X144373241Y-103984637D01*
X144608273Y-104141680D01*
X144869426Y-104249853D01*
X145146665Y-104305000D01*
X145429335Y-104305000D01*
X145706574Y-104249853D01*
X145967727Y-104141680D01*
X146136640Y-104028816D01*
X164835000Y-104028816D01*
X164835000Y-104331184D01*
X164893989Y-104627743D01*
X165009701Y-104907095D01*
X165177688Y-105158505D01*
X165391495Y-105372312D01*
X165477831Y-105430000D01*
X165391495Y-105487688D01*
X165177688Y-105701495D01*
X165009701Y-105952905D01*
X164893989Y-106232257D01*
X164835000Y-106528816D01*
X164835000Y-106831184D01*
X164893989Y-107127743D01*
X165009701Y-107407095D01*
X165177688Y-107658505D01*
X165391495Y-107872312D01*
X165642905Y-108040299D01*
X165922257Y-108156011D01*
X166218816Y-108215000D01*
X166521184Y-108215000D01*
X166817743Y-108156011D01*
X167097095Y-108040299D01*
X167348505Y-107872312D01*
X167562312Y-107658505D01*
X167730299Y-107407095D01*
X167846011Y-107127743D01*
X167905000Y-106831184D01*
X167905000Y-106528816D01*
X167846011Y-106232257D01*
X167730299Y-105952905D01*
X167562312Y-105701495D01*
X167348505Y-105487688D01*
X167262169Y-105430000D01*
X167348505Y-105372312D01*
X167562312Y-105158505D01*
X167730299Y-104907095D01*
X167846011Y-104627743D01*
X167905000Y-104331184D01*
X167905000Y-104028816D01*
X167846011Y-103732257D01*
X167730299Y-103452905D01*
X167562312Y-103201495D01*
X167348505Y-102987688D01*
X167205690Y-102892262D01*
X167254475Y-102744080D01*
X166370000Y-101859605D01*
X165485525Y-102744080D01*
X165534310Y-102892262D01*
X165391495Y-102987688D01*
X165177688Y-103201495D01*
X165009701Y-103452905D01*
X164893989Y-103732257D01*
X164835000Y-104028816D01*
X146136640Y-104028816D01*
X146202759Y-103984637D01*
X146402637Y-103784759D01*
X146559680Y-103549727D01*
X146667853Y-103288574D01*
X146723000Y-103011335D01*
X146723000Y-102728665D01*
X146667853Y-102451426D01*
X146559680Y-102190273D01*
X146402637Y-101955241D01*
X146202759Y-101755363D01*
X145967727Y-101598320D01*
X145706574Y-101490147D01*
X145429335Y-101435000D01*
X145146665Y-101435000D01*
X144869426Y-101490147D01*
X144608273Y-101598320D01*
X144373241Y-101755363D01*
X144173363Y-101955241D01*
X144016320Y-102190273D01*
X143908147Y-102451426D01*
X143853000Y-102728665D01*
X139103000Y-102728665D01*
X139047853Y-102451426D01*
X138939680Y-102190273D01*
X138782637Y-101955241D01*
X138582759Y-101755363D01*
X138347727Y-101598320D01*
X138086574Y-101490147D01*
X137809335Y-101435000D01*
X137526665Y-101435000D01*
X137249426Y-101490147D01*
X136988273Y-101598320D01*
X136753241Y-101755363D01*
X136553363Y-101955241D01*
X136461500Y-102092724D01*
X136369637Y-101955241D01*
X136169759Y-101755363D01*
X135934727Y-101598320D01*
X135673574Y-101490147D01*
X135396335Y-101435000D01*
X135113665Y-101435000D01*
X134836426Y-101490147D01*
X134575273Y-101598320D01*
X134340241Y-101755363D01*
X134140363Y-101955241D01*
X133983320Y-102190273D01*
X133875147Y-102451426D01*
X133820000Y-102728665D01*
X129070000Y-102728665D01*
X129014853Y-102451426D01*
X128906680Y-102190273D01*
X128749637Y-101955241D01*
X128549759Y-101755363D01*
X128314727Y-101598320D01*
X128053574Y-101490147D01*
X127776335Y-101435000D01*
X127493665Y-101435000D01*
X127216426Y-101490147D01*
X126955273Y-101598320D01*
X126720241Y-101755363D01*
X126520363Y-101955241D01*
X126363320Y-102190273D01*
X126255147Y-102451426D01*
X126200000Y-102728665D01*
X116580000Y-102728665D01*
X116580000Y-101767110D01*
X116634850Y-101750472D01*
X116788386Y-101668405D01*
X116922962Y-101557962D01*
X117033405Y-101423386D01*
X117077976Y-101340000D01*
X122505392Y-101340000D01*
X122555000Y-101344886D01*
X122752994Y-101325385D01*
X122790219Y-101314093D01*
X122943380Y-101267632D01*
X123118840Y-101173847D01*
X123272633Y-101047633D01*
X123304261Y-101009094D01*
X124650315Y-99663040D01*
X130688091Y-99663040D01*
X130782930Y-99927881D01*
X130927615Y-100169131D01*
X131116586Y-100377519D01*
X131342580Y-100545037D01*
X131596913Y-100665246D01*
X131730961Y-100705904D01*
X131953000Y-100583915D01*
X131953000Y-99441000D01*
X130809376Y-99441000D01*
X130688091Y-99663040D01*
X124650315Y-99663040D01*
X125513356Y-98800000D01*
X130747163Y-98800000D01*
X130688091Y-98964960D01*
X130809376Y-99187000D01*
X131953000Y-99187000D01*
X131953000Y-99167000D01*
X132207000Y-99167000D01*
X132207000Y-99187000D01*
X132227000Y-99187000D01*
X132227000Y-99441000D01*
X132207000Y-99441000D01*
X132207000Y-100583915D01*
X132429039Y-100705904D01*
X132563087Y-100665246D01*
X132817420Y-100545037D01*
X133043414Y-100377519D01*
X133232385Y-100169131D01*
X133343933Y-99983135D01*
X133348320Y-99993727D01*
X133505363Y-100228759D01*
X133705241Y-100428637D01*
X133940273Y-100585680D01*
X134201426Y-100693853D01*
X134478665Y-100749000D01*
X134761335Y-100749000D01*
X135038574Y-100693853D01*
X135299727Y-100585680D01*
X135534759Y-100428637D01*
X135734637Y-100228759D01*
X135890000Y-99996241D01*
X136045363Y-100228759D01*
X136245241Y-100428637D01*
X136480273Y-100585680D01*
X136741426Y-100693853D01*
X137018665Y-100749000D01*
X137301335Y-100749000D01*
X137578574Y-100693853D01*
X137839727Y-100585680D01*
X138074759Y-100428637D01*
X138274637Y-100228759D01*
X138430000Y-99996241D01*
X138585363Y-100228759D01*
X138785241Y-100428637D01*
X139020273Y-100585680D01*
X139281426Y-100693853D01*
X139558665Y-100749000D01*
X139841335Y-100749000D01*
X140118574Y-100693853D01*
X140379727Y-100585680D01*
X140614759Y-100428637D01*
X140719396Y-100324000D01*
X141895604Y-100324000D01*
X141960241Y-100388637D01*
X142195273Y-100545680D01*
X142456426Y-100653853D01*
X142733665Y-100709000D01*
X143016335Y-100709000D01*
X143293574Y-100653853D01*
X143554727Y-100545680D01*
X143789759Y-100388637D01*
X143894396Y-100284000D01*
X144782645Y-100284000D01*
X146882745Y-102384101D01*
X146914368Y-102422634D01*
X147068161Y-102548848D01*
X147243621Y-102642633D01*
X147434006Y-102700386D01*
X147632001Y-102719887D01*
X147681609Y-102715001D01*
X154785391Y-102715001D01*
X154834999Y-102719887D01*
X155032993Y-102700386D01*
X155223379Y-102642633D01*
X155398839Y-102548848D01*
X155552632Y-102422634D01*
X155584260Y-102384095D01*
X156203355Y-101765000D01*
X156351335Y-101765000D01*
X156628574Y-101709853D01*
X156889727Y-101601680D01*
X157124759Y-101444637D01*
X157324637Y-101244759D01*
X157481680Y-101009727D01*
X157589853Y-100748574D01*
X157645000Y-100471335D01*
X157645000Y-100188665D01*
X159855000Y-100188665D01*
X159855000Y-100471335D01*
X159910147Y-100748574D01*
X160018320Y-101009727D01*
X160175363Y-101244759D01*
X160375241Y-101444637D01*
X160610273Y-101601680D01*
X160871426Y-101709853D01*
X161148665Y-101765000D01*
X161431335Y-101765000D01*
X161524073Y-101746553D01*
X164829009Y-101746553D01*
X164871603Y-102045907D01*
X164971778Y-102331199D01*
X165051739Y-102480792D01*
X165305920Y-102564475D01*
X166190395Y-101680000D01*
X166549605Y-101680000D01*
X167434080Y-102564475D01*
X167688261Y-102480792D01*
X167819158Y-102208225D01*
X167894365Y-101915358D01*
X167910991Y-101613447D01*
X167868397Y-101314093D01*
X167768222Y-101028801D01*
X167688261Y-100879208D01*
X167434080Y-100795525D01*
X166549605Y-101680000D01*
X166190395Y-101680000D01*
X165305920Y-100795525D01*
X165051739Y-100879208D01*
X164920842Y-101151775D01*
X164845635Y-101444642D01*
X164829009Y-101746553D01*
X161524073Y-101746553D01*
X161708574Y-101709853D01*
X161969727Y-101601680D01*
X162204759Y-101444637D01*
X162404637Y-101244759D01*
X162561680Y-101009727D01*
X162669853Y-100748574D01*
X162696239Y-100615920D01*
X165485525Y-100615920D01*
X166370000Y-101500395D01*
X167254475Y-100615920D01*
X167170792Y-100361739D01*
X166898225Y-100230842D01*
X166605358Y-100155635D01*
X166303447Y-100139009D01*
X166004093Y-100181603D01*
X165718801Y-100281778D01*
X165569208Y-100361739D01*
X165485525Y-100615920D01*
X162696239Y-100615920D01*
X162725000Y-100471335D01*
X162725000Y-100188665D01*
X162669853Y-99911426D01*
X162561680Y-99650273D01*
X162404637Y-99415241D01*
X162204759Y-99215363D01*
X161969727Y-99058320D01*
X161708574Y-98950147D01*
X161431335Y-98895000D01*
X161148665Y-98895000D01*
X160871426Y-98950147D01*
X160610273Y-99058320D01*
X160375241Y-99215363D01*
X160175363Y-99415241D01*
X160018320Y-99650273D01*
X159910147Y-99911426D01*
X159855000Y-100188665D01*
X157645000Y-100188665D01*
X157589853Y-99911426D01*
X157481680Y-99650273D01*
X157324637Y-99415241D01*
X157220000Y-99310604D01*
X157220000Y-91489604D01*
X157224886Y-91439999D01*
X157214905Y-91338665D01*
X157205385Y-91242006D01*
X157147632Y-91051620D01*
X157053847Y-90876160D01*
X156927633Y-90722367D01*
X156889094Y-90690739D01*
X154470000Y-88271645D01*
X154470000Y-88258355D01*
X154604690Y-88123665D01*
X159220000Y-88123665D01*
X159220000Y-88406335D01*
X159275147Y-88683574D01*
X159383320Y-88944727D01*
X159540363Y-89179759D01*
X159740241Y-89379637D01*
X159975273Y-89536680D01*
X160236426Y-89644853D01*
X160513665Y-89700000D01*
X160796335Y-89700000D01*
X161073574Y-89644853D01*
X161334727Y-89536680D01*
X161569759Y-89379637D01*
X161769637Y-89179759D01*
X161926680Y-88944727D01*
X162034853Y-88683574D01*
X162090000Y-88406335D01*
X162090000Y-88123665D01*
X162034853Y-87846426D01*
X161926680Y-87585273D01*
X161769637Y-87350241D01*
X161569759Y-87150363D01*
X161334727Y-86993320D01*
X161073574Y-86885147D01*
X160796335Y-86830000D01*
X160513665Y-86830000D01*
X160236426Y-86885147D01*
X159975273Y-86993320D01*
X159740241Y-87150363D01*
X159540363Y-87350241D01*
X159383320Y-87585273D01*
X159275147Y-87846426D01*
X159220000Y-88123665D01*
X154604690Y-88123665D01*
X155089095Y-87639260D01*
X155127634Y-87607632D01*
X155253848Y-87453839D01*
X155347633Y-87278379D01*
X155405386Y-87087993D01*
X155420001Y-86939607D01*
X155420001Y-86939605D01*
X155424887Y-86890000D01*
X155420001Y-86840395D01*
X155420001Y-84948665D01*
X159220000Y-84948665D01*
X159220000Y-85231335D01*
X159275147Y-85508574D01*
X159383320Y-85769727D01*
X159540363Y-86004759D01*
X159740241Y-86204637D01*
X159975273Y-86361680D01*
X160236426Y-86469853D01*
X160513665Y-86525000D01*
X160796335Y-86525000D01*
X161073574Y-86469853D01*
X161334727Y-86361680D01*
X161569759Y-86204637D01*
X161769637Y-86004759D01*
X161926680Y-85769727D01*
X162034853Y-85508574D01*
X162090000Y-85231335D01*
X162090000Y-84948665D01*
X162034853Y-84671426D01*
X161926680Y-84410273D01*
X161769637Y-84175241D01*
X161569759Y-83975363D01*
X161334727Y-83818320D01*
X161073574Y-83710147D01*
X160796335Y-83655000D01*
X160513665Y-83655000D01*
X160236426Y-83710147D01*
X159975273Y-83818320D01*
X159740241Y-83975363D01*
X159540363Y-84175241D01*
X159383320Y-84410273D01*
X159275147Y-84671426D01*
X159220000Y-84948665D01*
X155420001Y-84948665D01*
X155420001Y-81773665D01*
X159220000Y-81773665D01*
X159220000Y-82056335D01*
X159275147Y-82333574D01*
X159383320Y-82594727D01*
X159540363Y-82829759D01*
X159740241Y-83029637D01*
X159975273Y-83186680D01*
X160236426Y-83294853D01*
X160513665Y-83350000D01*
X160796335Y-83350000D01*
X161073574Y-83294853D01*
X161334727Y-83186680D01*
X161569759Y-83029637D01*
X161769637Y-82829759D01*
X161926680Y-82594727D01*
X162034853Y-82333574D01*
X162090000Y-82056335D01*
X162090000Y-81773665D01*
X162034853Y-81496426D01*
X161926680Y-81235273D01*
X161909003Y-81208816D01*
X164835000Y-81208816D01*
X164835000Y-81511184D01*
X164893989Y-81807743D01*
X165009701Y-82087095D01*
X165177688Y-82338505D01*
X165391495Y-82552312D01*
X165477831Y-82610000D01*
X165391495Y-82667688D01*
X165177688Y-82881495D01*
X165009701Y-83132905D01*
X164893989Y-83412257D01*
X164835000Y-83708816D01*
X164835000Y-84011184D01*
X164893989Y-84307743D01*
X165009701Y-84587095D01*
X165177688Y-84838505D01*
X165391495Y-85052312D01*
X165477831Y-85110000D01*
X165391495Y-85167688D01*
X165177688Y-85381495D01*
X165009701Y-85632905D01*
X164893989Y-85912257D01*
X164835000Y-86208816D01*
X164835000Y-86511184D01*
X164893989Y-86807743D01*
X165009701Y-87087095D01*
X165177688Y-87338505D01*
X165391495Y-87552312D01*
X165642905Y-87720299D01*
X165922257Y-87836011D01*
X166218816Y-87895000D01*
X166521184Y-87895000D01*
X166817743Y-87836011D01*
X167097095Y-87720299D01*
X167348505Y-87552312D01*
X167562312Y-87338505D01*
X167730299Y-87087095D01*
X167846011Y-86807743D01*
X167905000Y-86511184D01*
X167905000Y-86208816D01*
X167846011Y-85912257D01*
X167730299Y-85632905D01*
X167562312Y-85381495D01*
X167348505Y-85167688D01*
X167262169Y-85110000D01*
X167348505Y-85052312D01*
X167562312Y-84838505D01*
X167730299Y-84587095D01*
X167846011Y-84307743D01*
X167905000Y-84011184D01*
X167905000Y-83708816D01*
X167846011Y-83412257D01*
X167730299Y-83132905D01*
X167562312Y-82881495D01*
X167348505Y-82667688D01*
X167262169Y-82610000D01*
X167348505Y-82552312D01*
X167562312Y-82338505D01*
X167730299Y-82087095D01*
X167846011Y-81807743D01*
X167905000Y-81511184D01*
X167905000Y-81208816D01*
X167846011Y-80912257D01*
X167730299Y-80632905D01*
X167562312Y-80381495D01*
X167348505Y-80167688D01*
X167097095Y-79999701D01*
X166817743Y-79883989D01*
X166521184Y-79825000D01*
X166218816Y-79825000D01*
X165922257Y-79883989D01*
X165642905Y-79999701D01*
X165391495Y-80167688D01*
X165177688Y-80381495D01*
X165009701Y-80632905D01*
X164893989Y-80912257D01*
X164835000Y-81208816D01*
X161909003Y-81208816D01*
X161769637Y-81000241D01*
X161569759Y-80800363D01*
X161334727Y-80643320D01*
X161073574Y-80535147D01*
X160796335Y-80480000D01*
X160513665Y-80480000D01*
X160236426Y-80535147D01*
X159975273Y-80643320D01*
X159740241Y-80800363D01*
X159540363Y-81000241D01*
X159383320Y-81235273D01*
X159275147Y-81496426D01*
X159220000Y-81773665D01*
X155420001Y-81773665D01*
X155420001Y-76916089D01*
X155424887Y-76866484D01*
X155416900Y-76785392D01*
X155405386Y-76668491D01*
X155362958Y-76528625D01*
X155436746Y-76551008D01*
X155610000Y-76568072D01*
X156810000Y-76568072D01*
X156983254Y-76551008D01*
X157149850Y-76500472D01*
X157303386Y-76418405D01*
X157437962Y-76307962D01*
X157548405Y-76173386D01*
X157602914Y-76071407D01*
X157603198Y-76071795D01*
X157817954Y-76268664D01*
X158066991Y-76419854D01*
X158340739Y-76519554D01*
X158353110Y-76521476D01*
X158583000Y-76400155D01*
X158583000Y-75057000D01*
X158837000Y-75057000D01*
X158837000Y-76400155D01*
X159066890Y-76521476D01*
X159079261Y-76519554D01*
X159353009Y-76419854D01*
X159602046Y-76268664D01*
X159816802Y-76071795D01*
X159989025Y-75836812D01*
X160112096Y-75572745D01*
X160181285Y-75289742D01*
X160037232Y-75057000D01*
X158837000Y-75057000D01*
X158583000Y-75057000D01*
X158563000Y-75057000D01*
X158563000Y-74803000D01*
X158583000Y-74803000D01*
X158583000Y-73459845D01*
X158837000Y-73459845D01*
X158837000Y-74803000D01*
X160037232Y-74803000D01*
X160181285Y-74570258D01*
X160112096Y-74287255D01*
X159989025Y-74023188D01*
X159816802Y-73788205D01*
X159602046Y-73591336D01*
X159353009Y-73440146D01*
X159079261Y-73340446D01*
X159066890Y-73338524D01*
X158837000Y-73459845D01*
X158583000Y-73459845D01*
X158353110Y-73338524D01*
X158340739Y-73340446D01*
X158066991Y-73440146D01*
X157817954Y-73591336D01*
X157603198Y-73788205D01*
X157602914Y-73788593D01*
X157548405Y-73686614D01*
X157437962Y-73552038D01*
X157303386Y-73441595D01*
X157149850Y-73359528D01*
X156983254Y-73308992D01*
X156810000Y-73291928D01*
X155610000Y-73291928D01*
X155436746Y-73308992D01*
X155270150Y-73359528D01*
X155116614Y-73441595D01*
X154982038Y-73552038D01*
X154871595Y-73686614D01*
X154789528Y-73840150D01*
X154738992Y-74006746D01*
X154721928Y-74180000D01*
X154721928Y-75680000D01*
X154729582Y-75757711D01*
X151927776Y-72955905D01*
X151896148Y-72917366D01*
X151742355Y-72791152D01*
X151566895Y-72697367D01*
X151376509Y-72639614D01*
X151228123Y-72624999D01*
X151178515Y-72620113D01*
X151128907Y-72624999D01*
X148018003Y-72624999D01*
X147968398Y-72620113D01*
X147918793Y-72624999D01*
X147918791Y-72624999D01*
X147770405Y-72639614D01*
X147580019Y-72697367D01*
X147404559Y-72791152D01*
X147250766Y-72917366D01*
X147219134Y-72955910D01*
X146615905Y-73559138D01*
X146577366Y-73590766D01*
X146451152Y-73744559D01*
X146400058Y-73840150D01*
X146357367Y-73920020D01*
X146299614Y-74110405D01*
X146280113Y-74308399D01*
X146284999Y-74358007D01*
X146285000Y-78665381D01*
X146280113Y-78714999D01*
X146299614Y-78912993D01*
X146357367Y-79103378D01*
X146451153Y-79278839D01*
X146577367Y-79432632D01*
X146615900Y-79464255D01*
X147235000Y-80083356D01*
X147235000Y-80143456D01*
X147287072Y-80405239D01*
X147389215Y-80651833D01*
X147537503Y-80873762D01*
X147726238Y-81062497D01*
X147948167Y-81210785D01*
X148194761Y-81312928D01*
X148456544Y-81365000D01*
X148723456Y-81365000D01*
X148985239Y-81312928D01*
X149231833Y-81210785D01*
X149453762Y-81062497D01*
X149642497Y-80873762D01*
X149790785Y-80651833D01*
X149892928Y-80405239D01*
X149945000Y-80143456D01*
X149945000Y-79876544D01*
X149892928Y-79614761D01*
X149790785Y-79368167D01*
X149642497Y-79146238D01*
X149453762Y-78957503D01*
X149231833Y-78809215D01*
X149064734Y-78740000D01*
X149231833Y-78670785D01*
X149453762Y-78522497D01*
X149642497Y-78333762D01*
X149790785Y-78111833D01*
X149892928Y-77865239D01*
X149945000Y-77603456D01*
X149945000Y-77336544D01*
X149892928Y-77074761D01*
X149790785Y-76828167D01*
X149642497Y-76606238D01*
X149453762Y-76417503D01*
X149231833Y-76269215D01*
X149064734Y-76200000D01*
X149231833Y-76130785D01*
X149453762Y-75982497D01*
X149496259Y-75940000D01*
X150711645Y-75940000D01*
X152025001Y-77253357D01*
X152025000Y-80895604D01*
X151920363Y-81000241D01*
X151763320Y-81235273D01*
X151655147Y-81496426D01*
X151600000Y-81773665D01*
X151600000Y-81921645D01*
X150030890Y-83490755D01*
X149992357Y-83522378D01*
X149960734Y-83560911D01*
X149960733Y-83560912D01*
X149866143Y-83676171D01*
X149772357Y-83851632D01*
X149714604Y-84042017D01*
X149695103Y-84240011D01*
X149699990Y-84289629D01*
X149699989Y-91441656D01*
X146796644Y-94345001D01*
X133090000Y-94345001D01*
X133090000Y-92713396D01*
X133194637Y-92608759D01*
X133351680Y-92373727D01*
X133356067Y-92363135D01*
X133467615Y-92549131D01*
X133656586Y-92757519D01*
X133882580Y-92925037D01*
X134136913Y-93045246D01*
X134270961Y-93085904D01*
X134493000Y-92963915D01*
X134493000Y-91821000D01*
X134473000Y-91821000D01*
X134473000Y-91567000D01*
X134493000Y-91567000D01*
X134493000Y-90424085D01*
X134747000Y-90424085D01*
X134747000Y-91567000D01*
X134767000Y-91567000D01*
X134767000Y-91821000D01*
X134747000Y-91821000D01*
X134747000Y-92963915D01*
X134969039Y-93085904D01*
X135103087Y-93045246D01*
X135357420Y-92925037D01*
X135583414Y-92757519D01*
X135772385Y-92549131D01*
X135883933Y-92363135D01*
X135888320Y-92373727D01*
X136045363Y-92608759D01*
X136245241Y-92808637D01*
X136480273Y-92965680D01*
X136741426Y-93073853D01*
X137018665Y-93129000D01*
X137301335Y-93129000D01*
X137578574Y-93073853D01*
X137839727Y-92965680D01*
X138074759Y-92808637D01*
X138273357Y-92610039D01*
X138274188Y-92618482D01*
X138310498Y-92738180D01*
X138369463Y-92848494D01*
X138448815Y-92945185D01*
X138545506Y-93024537D01*
X138655820Y-93083502D01*
X138775518Y-93119812D01*
X138900000Y-93132072D01*
X140500000Y-93132072D01*
X140624482Y-93119812D01*
X140744180Y-93083502D01*
X140854494Y-93024537D01*
X140951185Y-92945185D01*
X141030537Y-92848494D01*
X141089502Y-92738180D01*
X141125812Y-92618482D01*
X141138072Y-92494000D01*
X141138072Y-90894000D01*
X141125812Y-90769518D01*
X141089502Y-90649820D01*
X141030537Y-90539506D01*
X140951185Y-90442815D01*
X140854494Y-90363463D01*
X140744180Y-90304498D01*
X140624482Y-90268188D01*
X140500000Y-90255928D01*
X138900000Y-90255928D01*
X138775518Y-90268188D01*
X138655820Y-90304498D01*
X138545506Y-90363463D01*
X138448815Y-90442815D01*
X138369463Y-90539506D01*
X138310498Y-90649820D01*
X138274188Y-90769518D01*
X138273357Y-90777961D01*
X138074759Y-90579363D01*
X137839727Y-90422320D01*
X137578574Y-90314147D01*
X137301335Y-90259000D01*
X137018665Y-90259000D01*
X136741426Y-90314147D01*
X136480273Y-90422320D01*
X136245241Y-90579363D01*
X136045363Y-90779241D01*
X135888320Y-91014273D01*
X135883933Y-91024865D01*
X135772385Y-90838869D01*
X135583414Y-90630481D01*
X135357420Y-90462963D01*
X135103087Y-90342754D01*
X134969039Y-90302096D01*
X134747000Y-90424085D01*
X134493000Y-90424085D01*
X134270961Y-90302096D01*
X134136913Y-90342754D01*
X133882580Y-90462963D01*
X133656586Y-90630481D01*
X133467615Y-90838869D01*
X133356067Y-91024865D01*
X133351680Y-91014273D01*
X133194637Y-90779241D01*
X132994759Y-90579363D01*
X132759727Y-90422320D01*
X132498574Y-90314147D01*
X132221335Y-90259000D01*
X131938665Y-90259000D01*
X131661426Y-90314147D01*
X131400273Y-90422320D01*
X131165241Y-90579363D01*
X131060604Y-90684000D01*
X130098989Y-90684000D01*
X130019637Y-90565241D01*
X129819759Y-90365363D01*
X129584727Y-90208320D01*
X129323574Y-90100147D01*
X129046335Y-90045000D01*
X128763665Y-90045000D01*
X128486426Y-90100147D01*
X128225273Y-90208320D01*
X127990241Y-90365363D01*
X127790363Y-90565241D01*
X127633320Y-90800273D01*
X127525147Y-91061426D01*
X127470000Y-91338665D01*
X127470000Y-91621335D01*
X127525147Y-91898574D01*
X127633320Y-92159727D01*
X127790363Y-92394759D01*
X127990241Y-92594637D01*
X128190869Y-92728692D01*
X128163486Y-92743329D01*
X128091903Y-92987298D01*
X128905000Y-93800395D01*
X129718097Y-92987298D01*
X129646514Y-92743329D01*
X129617659Y-92729676D01*
X129656085Y-92704000D01*
X131060604Y-92704000D01*
X131070000Y-92713396D01*
X131070001Y-94345001D01*
X130292902Y-94345001D01*
X130331300Y-94191816D01*
X130345217Y-93909488D01*
X130303787Y-93629870D01*
X130208603Y-93363708D01*
X130141671Y-93238486D01*
X129897702Y-93166903D01*
X129084605Y-93980000D01*
X129098748Y-93994143D01*
X128919143Y-94173748D01*
X128905000Y-94159605D01*
X128890858Y-94173748D01*
X128711253Y-93994143D01*
X128725395Y-93980000D01*
X127912298Y-93166903D01*
X127668329Y-93238486D01*
X127547429Y-93493996D01*
X127478700Y-93768184D01*
X127464783Y-94050512D01*
X127506213Y-94330130D01*
X127511531Y-94345001D01*
X126485509Y-94345001D01*
X126530000Y-94121335D01*
X126530000Y-93838665D01*
X126474853Y-93561426D01*
X126366680Y-93300273D01*
X126209637Y-93065241D01*
X126009759Y-92865363D01*
X125774727Y-92708320D01*
X125513574Y-92600147D01*
X125236335Y-92545000D01*
X124953665Y-92545000D01*
X124676426Y-92600147D01*
X124415273Y-92708320D01*
X124180241Y-92865363D01*
X123980363Y-93065241D01*
X123823320Y-93300273D01*
X123715147Y-93561426D01*
X123660000Y-93838665D01*
X123660000Y-94121335D01*
X123704491Y-94345001D01*
X116807692Y-94345001D01*
X116750134Y-94274866D01*
X116580000Y-94135241D01*
X116580000Y-89913355D01*
X116833355Y-89660000D01*
X116981335Y-89660000D01*
X117258574Y-89604853D01*
X117519727Y-89496680D01*
X117754759Y-89339637D01*
X117954637Y-89139759D01*
X118111680Y-88904727D01*
X118219853Y-88643574D01*
X118272746Y-88377665D01*
X126835000Y-88377665D01*
X126835000Y-88660335D01*
X126890147Y-88937574D01*
X126998320Y-89198727D01*
X127155363Y-89433759D01*
X127355241Y-89633637D01*
X127590273Y-89790680D01*
X127851426Y-89898853D01*
X128128665Y-89954000D01*
X128411335Y-89954000D01*
X128688574Y-89898853D01*
X128949727Y-89790680D01*
X129184759Y-89633637D01*
X129384637Y-89433759D01*
X129541680Y-89198727D01*
X129649853Y-88937574D01*
X129705000Y-88660335D01*
X129705000Y-88377665D01*
X134455000Y-88377665D01*
X134455000Y-88660335D01*
X134510147Y-88937574D01*
X134618320Y-89198727D01*
X134775363Y-89433759D01*
X134975241Y-89633637D01*
X135210273Y-89790680D01*
X135471426Y-89898853D01*
X135748665Y-89954000D01*
X136031335Y-89954000D01*
X136308574Y-89898853D01*
X136569727Y-89790680D01*
X136804759Y-89633637D01*
X137004637Y-89433759D01*
X137161680Y-89198727D01*
X137200000Y-89106214D01*
X137238320Y-89198727D01*
X137395363Y-89433759D01*
X137595241Y-89633637D01*
X137830273Y-89790680D01*
X138091426Y-89898853D01*
X138368665Y-89954000D01*
X138651335Y-89954000D01*
X138928574Y-89898853D01*
X139189727Y-89790680D01*
X139424759Y-89633637D01*
X139624637Y-89433759D01*
X139781680Y-89198727D01*
X139889853Y-88937574D01*
X139945000Y-88660335D01*
X139945000Y-88377665D01*
X142075000Y-88377665D01*
X142075000Y-88660335D01*
X142130147Y-88937574D01*
X142238320Y-89198727D01*
X142395363Y-89433759D01*
X142595241Y-89633637D01*
X142830273Y-89790680D01*
X143091426Y-89898853D01*
X143368665Y-89954000D01*
X143651335Y-89954000D01*
X143928574Y-89898853D01*
X144189727Y-89790680D01*
X144424759Y-89633637D01*
X144624637Y-89433759D01*
X144781680Y-89198727D01*
X144889853Y-88937574D01*
X144945000Y-88660335D01*
X144945000Y-88377665D01*
X144889853Y-88100426D01*
X144781680Y-87839273D01*
X144624637Y-87604241D01*
X144424759Y-87404363D01*
X144189727Y-87247320D01*
X143928574Y-87139147D01*
X143651335Y-87084000D01*
X143368665Y-87084000D01*
X143091426Y-87139147D01*
X142830273Y-87247320D01*
X142595241Y-87404363D01*
X142395363Y-87604241D01*
X142238320Y-87839273D01*
X142130147Y-88100426D01*
X142075000Y-88377665D01*
X139945000Y-88377665D01*
X139889853Y-88100426D01*
X139781680Y-87839273D01*
X139624637Y-87604241D01*
X139424759Y-87404363D01*
X139189727Y-87247320D01*
X138928574Y-87139147D01*
X138651335Y-87084000D01*
X138368665Y-87084000D01*
X138091426Y-87139147D01*
X137830273Y-87247320D01*
X137595241Y-87404363D01*
X137395363Y-87604241D01*
X137238320Y-87839273D01*
X137200000Y-87931786D01*
X137161680Y-87839273D01*
X137004637Y-87604241D01*
X136804759Y-87404363D01*
X136569727Y-87247320D01*
X136308574Y-87139147D01*
X136031335Y-87084000D01*
X135748665Y-87084000D01*
X135471426Y-87139147D01*
X135210273Y-87247320D01*
X134975241Y-87404363D01*
X134775363Y-87604241D01*
X134618320Y-87839273D01*
X134510147Y-88100426D01*
X134455000Y-88377665D01*
X129705000Y-88377665D01*
X129649853Y-88100426D01*
X129541680Y-87839273D01*
X129384637Y-87604241D01*
X129184759Y-87404363D01*
X128949727Y-87247320D01*
X128688574Y-87139147D01*
X128411335Y-87084000D01*
X128128665Y-87084000D01*
X127851426Y-87139147D01*
X127590273Y-87247320D01*
X127355241Y-87404363D01*
X127155363Y-87604241D01*
X126998320Y-87839273D01*
X126890147Y-88100426D01*
X126835000Y-88377665D01*
X118272746Y-88377665D01*
X118275000Y-88366335D01*
X118275000Y-88083665D01*
X118219853Y-87806426D01*
X118111680Y-87545273D01*
X117954637Y-87310241D01*
X117788057Y-87143661D01*
X117884180Y-87114502D01*
X117994494Y-87055537D01*
X118091185Y-86976185D01*
X118170537Y-86879494D01*
X118229502Y-86769180D01*
X118265812Y-86649482D01*
X118278072Y-86525000D01*
X118276243Y-86218665D01*
X123660000Y-86218665D01*
X123660000Y-86501335D01*
X123715147Y-86778574D01*
X123823320Y-87039727D01*
X123980363Y-87274759D01*
X124180241Y-87474637D01*
X124415273Y-87631680D01*
X124676426Y-87739853D01*
X124953665Y-87795000D01*
X125236335Y-87795000D01*
X125513574Y-87739853D01*
X125774727Y-87631680D01*
X126009759Y-87474637D01*
X126209637Y-87274759D01*
X126366680Y-87039727D01*
X126474853Y-86778574D01*
X126530000Y-86501335D01*
X126530000Y-86218665D01*
X126474853Y-85941426D01*
X126366680Y-85680273D01*
X126209637Y-85445241D01*
X126009759Y-85245363D01*
X125945857Y-85202665D01*
X131915000Y-85202665D01*
X131915000Y-85485335D01*
X131970147Y-85762574D01*
X132078320Y-86023727D01*
X132235363Y-86258759D01*
X132435241Y-86458637D01*
X132670273Y-86615680D01*
X132931426Y-86723853D01*
X133208665Y-86779000D01*
X133491335Y-86779000D01*
X133768574Y-86723853D01*
X134029727Y-86615680D01*
X134264759Y-86458637D01*
X134464637Y-86258759D01*
X134621680Y-86023727D01*
X134729853Y-85762574D01*
X134785000Y-85485335D01*
X134785000Y-85202665D01*
X139535000Y-85202665D01*
X139535000Y-85485335D01*
X139590147Y-85762574D01*
X139698320Y-86023727D01*
X139855363Y-86258759D01*
X140055241Y-86458637D01*
X140290273Y-86615680D01*
X140551426Y-86723853D01*
X140828665Y-86779000D01*
X141111335Y-86779000D01*
X141388574Y-86723853D01*
X141649727Y-86615680D01*
X141884759Y-86458637D01*
X142084637Y-86258759D01*
X142241680Y-86023727D01*
X142349853Y-85762574D01*
X142405000Y-85485335D01*
X142405000Y-85202665D01*
X142349853Y-84925426D01*
X142241680Y-84664273D01*
X142084637Y-84429241D01*
X141884759Y-84229363D01*
X141649727Y-84072320D01*
X141388574Y-83964147D01*
X141111335Y-83909000D01*
X140828665Y-83909000D01*
X140551426Y-83964147D01*
X140290273Y-84072320D01*
X140055241Y-84229363D01*
X139855363Y-84429241D01*
X139698320Y-84664273D01*
X139590147Y-84925426D01*
X139535000Y-85202665D01*
X134785000Y-85202665D01*
X134729853Y-84925426D01*
X134621680Y-84664273D01*
X134464637Y-84429241D01*
X134264759Y-84229363D01*
X134029727Y-84072320D01*
X133768574Y-83964147D01*
X133491335Y-83909000D01*
X133208665Y-83909000D01*
X132931426Y-83964147D01*
X132670273Y-84072320D01*
X132435241Y-84229363D01*
X132235363Y-84429241D01*
X132078320Y-84664273D01*
X131970147Y-84925426D01*
X131915000Y-85202665D01*
X125945857Y-85202665D01*
X125774727Y-85088320D01*
X125513574Y-84980147D01*
X125236335Y-84925000D01*
X124953665Y-84925000D01*
X124676426Y-84980147D01*
X124415273Y-85088320D01*
X124180241Y-85245363D01*
X123980363Y-85445241D01*
X123823320Y-85680273D01*
X123715147Y-85941426D01*
X123660000Y-86218665D01*
X118276243Y-86218665D01*
X118275000Y-86010750D01*
X118116250Y-85852000D01*
X116967000Y-85852000D01*
X116967000Y-85872000D01*
X116713000Y-85872000D01*
X116713000Y-85852000D01*
X115563750Y-85852000D01*
X115405000Y-86010750D01*
X115401928Y-86525000D01*
X115414188Y-86649482D01*
X115450498Y-86769180D01*
X115509463Y-86879494D01*
X115588815Y-86976185D01*
X115685506Y-87055537D01*
X115795820Y-87114502D01*
X115891943Y-87143661D01*
X115725363Y-87310241D01*
X115568320Y-87545273D01*
X115460147Y-87806426D01*
X115405000Y-88083665D01*
X115405000Y-88231645D01*
X114890901Y-88745744D01*
X114852368Y-88777367D01*
X114820745Y-88815900D01*
X114820744Y-88815901D01*
X114726154Y-88931160D01*
X114632368Y-89106621D01*
X114574615Y-89297006D01*
X114555114Y-89495000D01*
X114560001Y-89544618D01*
X114560000Y-94135240D01*
X114432350Y-94240000D01*
X111509396Y-94240000D01*
X111404759Y-94135363D01*
X111169727Y-93978320D01*
X110908574Y-93870147D01*
X110631335Y-93815000D01*
X110348665Y-93815000D01*
X110071426Y-93870147D01*
X109810273Y-93978320D01*
X109575241Y-94135363D01*
X109375363Y-94335241D01*
X109218320Y-94570273D01*
X109110147Y-94831426D01*
X109055000Y-95108665D01*
X102260000Y-95108665D01*
X102260000Y-81219553D01*
X108949009Y-81219553D01*
X108991603Y-81518907D01*
X109091778Y-81804199D01*
X109171739Y-81953792D01*
X109425918Y-82037474D01*
X109309970Y-82153422D01*
X109356735Y-82200187D01*
X109345820Y-82203498D01*
X109235506Y-82262463D01*
X109138815Y-82341815D01*
X109059463Y-82438506D01*
X109000498Y-82548820D01*
X108964188Y-82668518D01*
X108951928Y-82793000D01*
X108951928Y-84593000D01*
X108964188Y-84717482D01*
X109000498Y-84837180D01*
X109059463Y-84947494D01*
X109138815Y-85044185D01*
X109235506Y-85123537D01*
X109345820Y-85182502D01*
X109465518Y-85218812D01*
X109480000Y-85220238D01*
X109480001Y-86610603D01*
X109375363Y-86715241D01*
X109218320Y-86950273D01*
X109110147Y-87211426D01*
X109055000Y-87488665D01*
X109055000Y-87771335D01*
X109110147Y-88048574D01*
X109218320Y-88309727D01*
X109375363Y-88544759D01*
X109575241Y-88744637D01*
X109810273Y-88901680D01*
X110071426Y-89009853D01*
X110348665Y-89065000D01*
X110631335Y-89065000D01*
X110908574Y-89009853D01*
X111169727Y-88901680D01*
X111404759Y-88744637D01*
X111604637Y-88544759D01*
X111761680Y-88309727D01*
X111869853Y-88048574D01*
X111925000Y-87771335D01*
X111925000Y-87488665D01*
X111869853Y-87211426D01*
X111761680Y-86950273D01*
X111604637Y-86715241D01*
X111500000Y-86610604D01*
X111500000Y-85220238D01*
X111514482Y-85218812D01*
X111634180Y-85182502D01*
X111744494Y-85123537D01*
X111841185Y-85044185D01*
X111920537Y-84947494D01*
X111932560Y-84925000D01*
X115401928Y-84925000D01*
X115405000Y-85439250D01*
X115563750Y-85598000D01*
X116713000Y-85598000D01*
X116713000Y-84448750D01*
X116967000Y-84448750D01*
X116967000Y-85598000D01*
X118116250Y-85598000D01*
X118275000Y-85439250D01*
X118278072Y-84925000D01*
X118265812Y-84800518D01*
X118229502Y-84680820D01*
X118170537Y-84570506D01*
X118091185Y-84473815D01*
X117994494Y-84394463D01*
X117884180Y-84335498D01*
X117764482Y-84299188D01*
X117640000Y-84286928D01*
X117125750Y-84290000D01*
X116967000Y-84448750D01*
X116713000Y-84448750D01*
X116554250Y-84290000D01*
X116040000Y-84286928D01*
X115915518Y-84299188D01*
X115795820Y-84335498D01*
X115685506Y-84394463D01*
X115588815Y-84473815D01*
X115509463Y-84570506D01*
X115450498Y-84680820D01*
X115414188Y-84800518D01*
X115401928Y-84925000D01*
X111932560Y-84925000D01*
X111979502Y-84837180D01*
X112015812Y-84717482D01*
X112028072Y-84593000D01*
X112028072Y-82793000D01*
X112015812Y-82668518D01*
X111979502Y-82548820D01*
X111920537Y-82438506D01*
X111841185Y-82341815D01*
X111744494Y-82262463D01*
X111634180Y-82203498D01*
X111623265Y-82200187D01*
X111670030Y-82153422D01*
X111554082Y-82037474D01*
X111808261Y-81953792D01*
X111894764Y-81773665D01*
X120485000Y-81773665D01*
X120485000Y-82056335D01*
X120540147Y-82333574D01*
X120648320Y-82594727D01*
X120805363Y-82829759D01*
X121005241Y-83029637D01*
X121240273Y-83186680D01*
X121501426Y-83294853D01*
X121778665Y-83350000D01*
X122061335Y-83350000D01*
X122338574Y-83294853D01*
X122599727Y-83186680D01*
X122834759Y-83029637D01*
X123034637Y-82829759D01*
X123191680Y-82594727D01*
X123299853Y-82333574D01*
X123355000Y-82056335D01*
X123355000Y-81773665D01*
X128105000Y-81773665D01*
X128105000Y-82056335D01*
X128160147Y-82333574D01*
X128268320Y-82594727D01*
X128425363Y-82829759D01*
X128625241Y-83029637D01*
X128860273Y-83186680D01*
X129121426Y-83294853D01*
X129398665Y-83350000D01*
X129681335Y-83350000D01*
X129958574Y-83294853D01*
X130219727Y-83186680D01*
X130454759Y-83029637D01*
X130654637Y-82829759D01*
X130811680Y-82594727D01*
X130919853Y-82333574D01*
X130975000Y-82056335D01*
X130975000Y-81773665D01*
X130919853Y-81496426D01*
X130811680Y-81235273D01*
X130654637Y-81000241D01*
X130454759Y-80800363D01*
X130219727Y-80643320D01*
X129958574Y-80535147D01*
X129681335Y-80480000D01*
X129398665Y-80480000D01*
X129121426Y-80535147D01*
X128860273Y-80643320D01*
X128625241Y-80800363D01*
X128425363Y-81000241D01*
X128268320Y-81235273D01*
X128160147Y-81496426D01*
X128105000Y-81773665D01*
X123355000Y-81773665D01*
X123299853Y-81496426D01*
X123191680Y-81235273D01*
X123034637Y-81000241D01*
X122834759Y-80800363D01*
X122599727Y-80643320D01*
X122338574Y-80535147D01*
X122061335Y-80480000D01*
X121778665Y-80480000D01*
X121501426Y-80535147D01*
X121240273Y-80643320D01*
X121005241Y-80800363D01*
X120805363Y-81000241D01*
X120648320Y-81235273D01*
X120540147Y-81496426D01*
X120485000Y-81773665D01*
X111894764Y-81773665D01*
X111939158Y-81681225D01*
X112014365Y-81388358D01*
X112030991Y-81086447D01*
X111988397Y-80787093D01*
X111888222Y-80501801D01*
X111808261Y-80352208D01*
X111554080Y-80268525D01*
X110669605Y-81153000D01*
X110683748Y-81167143D01*
X110504143Y-81346748D01*
X110490000Y-81332605D01*
X110475858Y-81346748D01*
X110296253Y-81167143D01*
X110310395Y-81153000D01*
X109425920Y-80268525D01*
X109171739Y-80352208D01*
X109040842Y-80624775D01*
X108965635Y-80917642D01*
X108949009Y-81219553D01*
X102260000Y-81219553D01*
X102260000Y-80088920D01*
X109605525Y-80088920D01*
X110490000Y-80973395D01*
X111374475Y-80088920D01*
X111290792Y-79834739D01*
X111018225Y-79703842D01*
X110725358Y-79628635D01*
X110423447Y-79612009D01*
X110124093Y-79654603D01*
X109838801Y-79754778D01*
X109689208Y-79834739D01*
X109605525Y-80088920D01*
X102260000Y-80088920D01*
X102260000Y-77990000D01*
X131961928Y-77990000D01*
X131961928Y-79490000D01*
X131974188Y-79614482D01*
X132010498Y-79734180D01*
X132069463Y-79844494D01*
X132148815Y-79941185D01*
X132245506Y-80020537D01*
X132355820Y-80079502D01*
X132475518Y-80115812D01*
X132600000Y-80128072D01*
X134100000Y-80128072D01*
X134224482Y-80115812D01*
X134344180Y-80079502D01*
X134454494Y-80020537D01*
X134551185Y-79941185D01*
X134610700Y-79868665D01*
X135725000Y-79868665D01*
X135725000Y-80151335D01*
X135780147Y-80428574D01*
X135888320Y-80689727D01*
X136045363Y-80924759D01*
X136245241Y-81124637D01*
X136480273Y-81281680D01*
X136741426Y-81389853D01*
X137018665Y-81445000D01*
X137301335Y-81445000D01*
X137578574Y-81389853D01*
X137839727Y-81281680D01*
X138074759Y-81124637D01*
X138274637Y-80924759D01*
X138431680Y-80689727D01*
X138539853Y-80428574D01*
X138595000Y-80151335D01*
X138595000Y-79868665D01*
X138539853Y-79591426D01*
X138431680Y-79330273D01*
X138274637Y-79095241D01*
X138074759Y-78895363D01*
X137839727Y-78738320D01*
X137578574Y-78630147D01*
X137445060Y-78603589D01*
X139585000Y-78603589D01*
X139585000Y-78876411D01*
X139638225Y-79143989D01*
X139742629Y-79396043D01*
X139894201Y-79622886D01*
X140087114Y-79815799D01*
X140313957Y-79967371D01*
X140566011Y-80071775D01*
X140833589Y-80125000D01*
X141106411Y-80125000D01*
X141373989Y-80071775D01*
X141626043Y-79967371D01*
X141852886Y-79815799D01*
X142045799Y-79622886D01*
X142197371Y-79396043D01*
X142301775Y-79143989D01*
X142355000Y-78876411D01*
X142355000Y-78603589D01*
X142301775Y-78336011D01*
X142197371Y-78083957D01*
X142045799Y-77857114D01*
X141852886Y-77664201D01*
X141626043Y-77512629D01*
X141373989Y-77408225D01*
X141106411Y-77355000D01*
X140833589Y-77355000D01*
X140566011Y-77408225D01*
X140313957Y-77512629D01*
X140087114Y-77664201D01*
X139894201Y-77857114D01*
X139742629Y-78083957D01*
X139638225Y-78336011D01*
X139585000Y-78603589D01*
X137445060Y-78603589D01*
X137301335Y-78575000D01*
X137018665Y-78575000D01*
X136741426Y-78630147D01*
X136480273Y-78738320D01*
X136245241Y-78895363D01*
X136045363Y-79095241D01*
X135888320Y-79330273D01*
X135780147Y-79591426D01*
X135725000Y-79868665D01*
X134610700Y-79868665D01*
X134630537Y-79844494D01*
X134689502Y-79734180D01*
X134725812Y-79614482D01*
X134738072Y-79490000D01*
X134738072Y-77990000D01*
X134725812Y-77865518D01*
X134689502Y-77745820D01*
X134630537Y-77635506D01*
X134551185Y-77538815D01*
X134454494Y-77459463D01*
X134344180Y-77400498D01*
X134224482Y-77364188D01*
X134100000Y-77351928D01*
X132600000Y-77351928D01*
X132475518Y-77364188D01*
X132355820Y-77400498D01*
X132245506Y-77459463D01*
X132148815Y-77538815D01*
X132069463Y-77635506D01*
X132010498Y-77745820D01*
X131974188Y-77865518D01*
X131961928Y-77990000D01*
X102260000Y-77990000D01*
X102260000Y-73599274D01*
X102403962Y-73814729D01*
X102715271Y-74126038D01*
X103081331Y-74370631D01*
X103488075Y-74539110D01*
X103919872Y-74625000D01*
X104360128Y-74625000D01*
X104791925Y-74539110D01*
X105198669Y-74370631D01*
X105483969Y-74180000D01*
X110271928Y-74180000D01*
X110271928Y-75680000D01*
X110288992Y-75853254D01*
X110339528Y-76019850D01*
X110421595Y-76173386D01*
X110532038Y-76307962D01*
X110666614Y-76418405D01*
X110820150Y-76500472D01*
X110986746Y-76551008D01*
X111160000Y-76568072D01*
X112360000Y-76568072D01*
X112533254Y-76551008D01*
X112699850Y-76500472D01*
X112853386Y-76418405D01*
X112987962Y-76307962D01*
X113098405Y-76173386D01*
X113152914Y-76071407D01*
X113153198Y-76071795D01*
X113367954Y-76268664D01*
X113616991Y-76419854D01*
X113890739Y-76519554D01*
X113903110Y-76521476D01*
X114133000Y-76400155D01*
X114133000Y-75057000D01*
X114387000Y-75057000D01*
X114387000Y-76400155D01*
X114616890Y-76521476D01*
X114629261Y-76519554D01*
X114903009Y-76419854D01*
X115152046Y-76268664D01*
X115366802Y-76071795D01*
X115539025Y-75836812D01*
X115662096Y-75572745D01*
X115731285Y-75289742D01*
X115587232Y-75057000D01*
X114387000Y-75057000D01*
X114133000Y-75057000D01*
X114113000Y-75057000D01*
X114113000Y-74803000D01*
X114133000Y-74803000D01*
X114133000Y-73459845D01*
X114387000Y-73459845D01*
X114387000Y-74803000D01*
X115587232Y-74803000D01*
X115731285Y-74570258D01*
X115662096Y-74287255D01*
X115612109Y-74180000D01*
X120431928Y-74180000D01*
X120431928Y-75680000D01*
X120448992Y-75853254D01*
X120499528Y-76019850D01*
X120581595Y-76173386D01*
X120692038Y-76307962D01*
X120826614Y-76418405D01*
X120980150Y-76500472D01*
X121146746Y-76551008D01*
X121320000Y-76568072D01*
X122520000Y-76568072D01*
X122693254Y-76551008D01*
X122859850Y-76500472D01*
X123013386Y-76418405D01*
X123147962Y-76307962D01*
X123258405Y-76173386D01*
X123312914Y-76071407D01*
X123313198Y-76071795D01*
X123527954Y-76268664D01*
X123776991Y-76419854D01*
X124050739Y-76519554D01*
X124063110Y-76521476D01*
X124293000Y-76400155D01*
X124293000Y-75057000D01*
X124547000Y-75057000D01*
X124547000Y-76400155D01*
X124776890Y-76521476D01*
X124789261Y-76519554D01*
X125063009Y-76419854D01*
X125312046Y-76268664D01*
X125526802Y-76071795D01*
X125532816Y-76063589D01*
X129425000Y-76063589D01*
X129425000Y-76336411D01*
X129478225Y-76603989D01*
X129582629Y-76856043D01*
X129734201Y-77082886D01*
X129927114Y-77275799D01*
X130153957Y-77427371D01*
X130406011Y-77531775D01*
X130673589Y-77585000D01*
X130946411Y-77585000D01*
X131213989Y-77531775D01*
X131466043Y-77427371D01*
X131692886Y-77275799D01*
X131885799Y-77082886D01*
X132037371Y-76856043D01*
X132141775Y-76603989D01*
X132195000Y-76336411D01*
X132195000Y-76063589D01*
X142125000Y-76063589D01*
X142125000Y-76336411D01*
X142178225Y-76603989D01*
X142282629Y-76856043D01*
X142434201Y-77082886D01*
X142627114Y-77275799D01*
X142853957Y-77427371D01*
X143106011Y-77531775D01*
X143373589Y-77585000D01*
X143646411Y-77585000D01*
X143913989Y-77531775D01*
X144166043Y-77427371D01*
X144392886Y-77275799D01*
X144585799Y-77082886D01*
X144737371Y-76856043D01*
X144841775Y-76603989D01*
X144895000Y-76336411D01*
X144895000Y-76063589D01*
X144841775Y-75796011D01*
X144737371Y-75543957D01*
X144585799Y-75317114D01*
X144392886Y-75124201D01*
X144166043Y-74972629D01*
X143913989Y-74868225D01*
X143646411Y-74815000D01*
X143373589Y-74815000D01*
X143106011Y-74868225D01*
X142853957Y-74972629D01*
X142627114Y-75124201D01*
X142434201Y-75317114D01*
X142282629Y-75543957D01*
X142178225Y-75796011D01*
X142125000Y-76063589D01*
X132195000Y-76063589D01*
X132141775Y-75796011D01*
X132037371Y-75543957D01*
X131885799Y-75317114D01*
X131692886Y-75124201D01*
X131466043Y-74972629D01*
X131213989Y-74868225D01*
X130946411Y-74815000D01*
X130673589Y-74815000D01*
X130406011Y-74868225D01*
X130153957Y-74972629D01*
X129927114Y-75124201D01*
X129734201Y-75317114D01*
X129582629Y-75543957D01*
X129478225Y-75796011D01*
X129425000Y-76063589D01*
X125532816Y-76063589D01*
X125699025Y-75836812D01*
X125822096Y-75572745D01*
X125891285Y-75289742D01*
X125747232Y-75057000D01*
X124547000Y-75057000D01*
X124293000Y-75057000D01*
X124273000Y-75057000D01*
X124273000Y-74803000D01*
X124293000Y-74803000D01*
X124293000Y-73459845D01*
X124547000Y-73459845D01*
X124547000Y-74803000D01*
X125747232Y-74803000D01*
X125862358Y-74616993D01*
X132572612Y-74616993D01*
X132638137Y-74855860D01*
X132885116Y-74971760D01*
X133149960Y-75037250D01*
X133422492Y-75049812D01*
X133692238Y-75008965D01*
X133948832Y-74916277D01*
X134061863Y-74855860D01*
X134127388Y-74616993D01*
X133350000Y-73839605D01*
X132572612Y-74616993D01*
X125862358Y-74616993D01*
X125891285Y-74570258D01*
X125822096Y-74287255D01*
X125699025Y-74023188D01*
X125526802Y-73788205D01*
X125466028Y-73732492D01*
X131960188Y-73732492D01*
X132001035Y-74002238D01*
X132093723Y-74258832D01*
X132154140Y-74371863D01*
X132393007Y-74437388D01*
X133170395Y-73660000D01*
X133529605Y-73660000D01*
X134306993Y-74437388D01*
X134545860Y-74371863D01*
X134661760Y-74124884D01*
X134727250Y-73860040D01*
X134739812Y-73587508D01*
X134698965Y-73317762D01*
X134606277Y-73061168D01*
X134545860Y-72948137D01*
X134306993Y-72882612D01*
X133529605Y-73660000D01*
X133170395Y-73660000D01*
X132393007Y-72882612D01*
X132154140Y-72948137D01*
X132038240Y-73195116D01*
X131972750Y-73459960D01*
X131960188Y-73732492D01*
X125466028Y-73732492D01*
X125312046Y-73591336D01*
X125063009Y-73440146D01*
X124789261Y-73340446D01*
X124776890Y-73338524D01*
X124547000Y-73459845D01*
X124293000Y-73459845D01*
X124063110Y-73338524D01*
X124050739Y-73340446D01*
X123776991Y-73440146D01*
X123527954Y-73591336D01*
X123313198Y-73788205D01*
X123312914Y-73788593D01*
X123258405Y-73686614D01*
X123147962Y-73552038D01*
X123013386Y-73441595D01*
X122859850Y-73359528D01*
X122693254Y-73308992D01*
X122520000Y-73291928D01*
X121320000Y-73291928D01*
X121146746Y-73308992D01*
X120980150Y-73359528D01*
X120826614Y-73441595D01*
X120692038Y-73552038D01*
X120581595Y-73686614D01*
X120499528Y-73840150D01*
X120448992Y-74006746D01*
X120431928Y-74180000D01*
X115612109Y-74180000D01*
X115539025Y-74023188D01*
X115366802Y-73788205D01*
X115152046Y-73591336D01*
X114903009Y-73440146D01*
X114629261Y-73340446D01*
X114616890Y-73338524D01*
X114387000Y-73459845D01*
X114133000Y-73459845D01*
X113903110Y-73338524D01*
X113890739Y-73340446D01*
X113616991Y-73440146D01*
X113367954Y-73591336D01*
X113153198Y-73788205D01*
X113152914Y-73788593D01*
X113098405Y-73686614D01*
X112987962Y-73552038D01*
X112853386Y-73441595D01*
X112699850Y-73359528D01*
X112533254Y-73308992D01*
X112360000Y-73291928D01*
X111160000Y-73291928D01*
X110986746Y-73308992D01*
X110820150Y-73359528D01*
X110666614Y-73441595D01*
X110532038Y-73552038D01*
X110421595Y-73686614D01*
X110339528Y-73840150D01*
X110288992Y-74006746D01*
X110271928Y-74180000D01*
X105483969Y-74180000D01*
X105564729Y-74126038D01*
X105876038Y-73814729D01*
X106120631Y-73448669D01*
X106289110Y-73041925D01*
X106356525Y-72703007D01*
X132572612Y-72703007D01*
X133350000Y-73480395D01*
X134091355Y-72739040D01*
X135768091Y-72739040D01*
X135862930Y-73003881D01*
X136007615Y-73245131D01*
X136196586Y-73453519D01*
X136422580Y-73621037D01*
X136676913Y-73741246D01*
X136810961Y-73781904D01*
X137033000Y-73659915D01*
X137033000Y-72517000D01*
X137287000Y-72517000D01*
X137287000Y-73659915D01*
X137509039Y-73781904D01*
X137643087Y-73741246D01*
X137897420Y-73621037D01*
X138123414Y-73453519D01*
X138312385Y-73245131D01*
X138457070Y-73003881D01*
X138490688Y-72910000D01*
X139581928Y-72910000D01*
X139581928Y-74410000D01*
X139594188Y-74534482D01*
X139630498Y-74654180D01*
X139689463Y-74764494D01*
X139768815Y-74861185D01*
X139865506Y-74940537D01*
X139975820Y-74999502D01*
X140095518Y-75035812D01*
X140220000Y-75048072D01*
X141720000Y-75048072D01*
X141844482Y-75035812D01*
X141964180Y-74999502D01*
X142074494Y-74940537D01*
X142171185Y-74861185D01*
X142250537Y-74764494D01*
X142309502Y-74654180D01*
X142345812Y-74534482D01*
X142358072Y-74410000D01*
X142358072Y-72910000D01*
X142345812Y-72785518D01*
X142309502Y-72665820D01*
X142250537Y-72555506D01*
X142171185Y-72458815D01*
X142074494Y-72379463D01*
X141964180Y-72320498D01*
X141844482Y-72284188D01*
X141720000Y-72271928D01*
X140220000Y-72271928D01*
X140095518Y-72284188D01*
X139975820Y-72320498D01*
X139865506Y-72379463D01*
X139768815Y-72458815D01*
X139689463Y-72555506D01*
X139630498Y-72665820D01*
X139594188Y-72785518D01*
X139581928Y-72910000D01*
X138490688Y-72910000D01*
X138551909Y-72739040D01*
X138430624Y-72517000D01*
X137287000Y-72517000D01*
X137033000Y-72517000D01*
X135889376Y-72517000D01*
X135768091Y-72739040D01*
X134091355Y-72739040D01*
X134127388Y-72703007D01*
X134061863Y-72464140D01*
X133814884Y-72348240D01*
X133550040Y-72282750D01*
X133277508Y-72270188D01*
X133007762Y-72311035D01*
X132751168Y-72403723D01*
X132638137Y-72464140D01*
X132572612Y-72703007D01*
X106356525Y-72703007D01*
X106375000Y-72610128D01*
X106375000Y-72169872D01*
X106349358Y-72040960D01*
X135768091Y-72040960D01*
X135889376Y-72263000D01*
X137033000Y-72263000D01*
X137033000Y-71120085D01*
X137287000Y-71120085D01*
X137287000Y-72263000D01*
X138430624Y-72263000D01*
X138551909Y-72040960D01*
X138457070Y-71776119D01*
X138312385Y-71534869D01*
X138123414Y-71326481D01*
X137897420Y-71158963D01*
X137643087Y-71038754D01*
X137509039Y-70998096D01*
X137287000Y-71120085D01*
X137033000Y-71120085D01*
X136810961Y-70998096D01*
X136676913Y-71038754D01*
X136422580Y-71158963D01*
X136196586Y-71326481D01*
X136007615Y-71534869D01*
X135862930Y-71776119D01*
X135768091Y-72040960D01*
X106349358Y-72040960D01*
X106289110Y-71738075D01*
X106120631Y-71331331D01*
X105876038Y-70965271D01*
X105564729Y-70653962D01*
X105349274Y-70510000D01*
X167700726Y-70510000D01*
X167485271Y-70653962D01*
G04 #@! TD*
M02*
