G04 #@! TF.GenerationSoftware,KiCad,Pcbnew,(5.1.6)-1*
G04 #@! TF.CreationDate,2020-10-22T22:28:54+09:00*
G04 #@! TF.ProjectId,Antilog_NPNO_PCB,416e7469-6c6f-4675-9f4e-504e4f5f5043,Ver. 1.1*
G04 #@! TF.SameCoordinates,Original*
G04 #@! TF.FileFunction,Legend,Top*
G04 #@! TF.FilePolarity,Positive*
%FSLAX46Y46*%
G04 Gerber Fmt 4.6, Leading zero omitted, Abs format (unit mm)*
G04 Created by KiCad (PCBNEW (5.1.6)-1) date 2020-10-22 22:28:54*
%MOMM*%
%LPD*%
G01*
G04 APERTURE LIST*
%ADD10C,0.150000*%
%ADD11C,0.300000*%
%ADD12C,0.010000*%
%ADD13C,0.120000*%
G04 APERTURE END LIST*
D10*
X134509047Y-115962380D02*
X134842380Y-116962380D01*
X135175714Y-115962380D01*
X135890000Y-116914761D02*
X135794761Y-116962380D01*
X135604285Y-116962380D01*
X135509047Y-116914761D01*
X135461428Y-116819523D01*
X135461428Y-116438571D01*
X135509047Y-116343333D01*
X135604285Y-116295714D01*
X135794761Y-116295714D01*
X135890000Y-116343333D01*
X135937619Y-116438571D01*
X135937619Y-116533809D01*
X135461428Y-116629047D01*
X136366190Y-116962380D02*
X136366190Y-116295714D01*
X136366190Y-116486190D02*
X136413809Y-116390952D01*
X136461428Y-116343333D01*
X136556666Y-116295714D01*
X136651904Y-116295714D01*
X136985238Y-116867142D02*
X137032857Y-116914761D01*
X136985238Y-116962380D01*
X136937619Y-116914761D01*
X136985238Y-116867142D01*
X136985238Y-116962380D01*
X138747142Y-116962380D02*
X138175714Y-116962380D01*
X138461428Y-116962380D02*
X138461428Y-115962380D01*
X138366190Y-116105238D01*
X138270952Y-116200476D01*
X138175714Y-116248095D01*
X139175714Y-116867142D02*
X139223333Y-116914761D01*
X139175714Y-116962380D01*
X139128095Y-116914761D01*
X139175714Y-116867142D01*
X139175714Y-116962380D01*
X140175714Y-116962380D02*
X139604285Y-116962380D01*
X139890000Y-116962380D02*
X139890000Y-115962380D01*
X139794761Y-116105238D01*
X139699523Y-116200476D01*
X139604285Y-116248095D01*
X131256666Y-114016190D02*
X131256666Y-113540000D01*
X131542380Y-114111428D02*
X130542380Y-113778095D01*
X131542380Y-113444761D01*
X131542380Y-113111428D02*
X130875714Y-113111428D01*
X130970952Y-113111428D02*
X130923333Y-113063809D01*
X130875714Y-112968571D01*
X130875714Y-112825714D01*
X130923333Y-112730476D01*
X131018571Y-112682857D01*
X131542380Y-112682857D01*
X131018571Y-112682857D02*
X130923333Y-112635238D01*
X130875714Y-112540000D01*
X130875714Y-112397142D01*
X130923333Y-112301904D01*
X131018571Y-112254285D01*
X131542380Y-112254285D01*
X130875714Y-111778095D02*
X131875714Y-111778095D01*
X130923333Y-111778095D02*
X130875714Y-111682857D01*
X130875714Y-111492380D01*
X130923333Y-111397142D01*
X130970952Y-111349523D01*
X131066190Y-111301904D01*
X131351904Y-111301904D01*
X131447142Y-111349523D01*
X131494761Y-111397142D01*
X131542380Y-111492380D01*
X131542380Y-111682857D01*
X131494761Y-111778095D01*
X131542380Y-110730476D02*
X131494761Y-110825714D01*
X131399523Y-110873333D01*
X130542380Y-110873333D01*
X131542380Y-110349523D02*
X130875714Y-110349523D01*
X130542380Y-110349523D02*
X130590000Y-110397142D01*
X130637619Y-110349523D01*
X130590000Y-110301904D01*
X130542380Y-110349523D01*
X130637619Y-110349523D01*
X130875714Y-110016190D02*
X130875714Y-109635238D01*
X130542380Y-109873333D02*
X131399523Y-109873333D01*
X131494761Y-109825714D01*
X131542380Y-109730476D01*
X131542380Y-109635238D01*
X130875714Y-108873333D02*
X131542380Y-108873333D01*
X130875714Y-109301904D02*
X131399523Y-109301904D01*
X131494761Y-109254285D01*
X131542380Y-109159047D01*
X131542380Y-109016190D01*
X131494761Y-108920952D01*
X131447142Y-108873333D01*
X131542380Y-107968571D02*
X130542380Y-107968571D01*
X131494761Y-107968571D02*
X131542380Y-108063809D01*
X131542380Y-108254285D01*
X131494761Y-108349523D01*
X131447142Y-108397142D01*
X131351904Y-108444761D01*
X131066190Y-108444761D01*
X130970952Y-108397142D01*
X130923333Y-108349523D01*
X130875714Y-108254285D01*
X130875714Y-108063809D01*
X130923333Y-107968571D01*
X131494761Y-107111428D02*
X131542380Y-107206666D01*
X131542380Y-107397142D01*
X131494761Y-107492380D01*
X131399523Y-107540000D01*
X131018571Y-107540000D01*
X130923333Y-107492380D01*
X130875714Y-107397142D01*
X130875714Y-107206666D01*
X130923333Y-107111428D01*
X131018571Y-107063809D01*
X131113809Y-107063809D01*
X131209047Y-107540000D01*
X108577619Y-118112380D02*
X108577619Y-117112380D01*
X109006190Y-118112380D02*
X109006190Y-117588571D01*
X108958571Y-117493333D01*
X108863333Y-117445714D01*
X108720476Y-117445714D01*
X108625238Y-117493333D01*
X108577619Y-117540952D01*
X109339523Y-117445714D02*
X109720476Y-117445714D01*
X109482380Y-117112380D02*
X109482380Y-117969523D01*
X109530000Y-118064761D01*
X109625238Y-118112380D01*
X109720476Y-118112380D01*
X109910952Y-117445714D02*
X110291904Y-117445714D01*
X110053809Y-117112380D02*
X110053809Y-117969523D01*
X110101428Y-118064761D01*
X110196666Y-118112380D01*
X110291904Y-118112380D01*
X110625238Y-117445714D02*
X110625238Y-118445714D01*
X110625238Y-117493333D02*
X110720476Y-117445714D01*
X110910952Y-117445714D01*
X111006190Y-117493333D01*
X111053809Y-117540952D01*
X111101428Y-117636190D01*
X111101428Y-117921904D01*
X111053809Y-118017142D01*
X111006190Y-118064761D01*
X110910952Y-118112380D01*
X110720476Y-118112380D01*
X110625238Y-118064761D01*
X111482380Y-118064761D02*
X111577619Y-118112380D01*
X111768095Y-118112380D01*
X111863333Y-118064761D01*
X111910952Y-117969523D01*
X111910952Y-117921904D01*
X111863333Y-117826666D01*
X111768095Y-117779047D01*
X111625238Y-117779047D01*
X111530000Y-117731428D01*
X111482380Y-117636190D01*
X111482380Y-117588571D01*
X111530000Y-117493333D01*
X111625238Y-117445714D01*
X111768095Y-117445714D01*
X111863333Y-117493333D01*
X112339523Y-118017142D02*
X112387142Y-118064761D01*
X112339523Y-118112380D01*
X112291904Y-118064761D01*
X112339523Y-118017142D01*
X112339523Y-118112380D01*
X112339523Y-117493333D02*
X112387142Y-117540952D01*
X112339523Y-117588571D01*
X112291904Y-117540952D01*
X112339523Y-117493333D01*
X112339523Y-117588571D01*
X113530000Y-117064761D02*
X112672857Y-118350476D01*
X114577619Y-117064761D02*
X113720476Y-118350476D01*
X115339523Y-118112380D02*
X115339523Y-117112380D01*
X115339523Y-118064761D02*
X115244285Y-118112380D01*
X115053809Y-118112380D01*
X114958571Y-118064761D01*
X114910952Y-118017142D01*
X114863333Y-117921904D01*
X114863333Y-117636190D01*
X114910952Y-117540952D01*
X114958571Y-117493333D01*
X115053809Y-117445714D01*
X115244285Y-117445714D01*
X115339523Y-117493333D01*
X116244285Y-118112380D02*
X116244285Y-117588571D01*
X116196666Y-117493333D01*
X116101428Y-117445714D01*
X115910952Y-117445714D01*
X115815714Y-117493333D01*
X116244285Y-118064761D02*
X116149047Y-118112380D01*
X115910952Y-118112380D01*
X115815714Y-118064761D01*
X115768095Y-117969523D01*
X115768095Y-117874285D01*
X115815714Y-117779047D01*
X115910952Y-117731428D01*
X116149047Y-117731428D01*
X116244285Y-117683809D01*
X117149047Y-118112380D02*
X117149047Y-117112380D01*
X117149047Y-118064761D02*
X117053809Y-118112380D01*
X116863333Y-118112380D01*
X116768095Y-118064761D01*
X116720476Y-118017142D01*
X116672857Y-117921904D01*
X116672857Y-117636190D01*
X116720476Y-117540952D01*
X116768095Y-117493333D01*
X116863333Y-117445714D01*
X117053809Y-117445714D01*
X117149047Y-117493333D01*
X117768095Y-117540952D02*
X117672857Y-117493333D01*
X117625238Y-117445714D01*
X117577619Y-117350476D01*
X117577619Y-117302857D01*
X117625238Y-117207619D01*
X117672857Y-117160000D01*
X117768095Y-117112380D01*
X117958571Y-117112380D01*
X118053809Y-117160000D01*
X118101428Y-117207619D01*
X118149047Y-117302857D01*
X118149047Y-117350476D01*
X118101428Y-117445714D01*
X118053809Y-117493333D01*
X117958571Y-117540952D01*
X117768095Y-117540952D01*
X117672857Y-117588571D01*
X117625238Y-117636190D01*
X117577619Y-117731428D01*
X117577619Y-117921904D01*
X117625238Y-118017142D01*
X117672857Y-118064761D01*
X117768095Y-118112380D01*
X117958571Y-118112380D01*
X118053809Y-118064761D01*
X118101428Y-118017142D01*
X118149047Y-117921904D01*
X118149047Y-117731428D01*
X118101428Y-117636190D01*
X118053809Y-117588571D01*
X117958571Y-117540952D01*
X118720476Y-117540952D02*
X118625238Y-117493333D01*
X118577619Y-117445714D01*
X118530000Y-117350476D01*
X118530000Y-117302857D01*
X118577619Y-117207619D01*
X118625238Y-117160000D01*
X118720476Y-117112380D01*
X118910952Y-117112380D01*
X119006190Y-117160000D01*
X119053809Y-117207619D01*
X119101428Y-117302857D01*
X119101428Y-117350476D01*
X119053809Y-117445714D01*
X119006190Y-117493333D01*
X118910952Y-117540952D01*
X118720476Y-117540952D01*
X118625238Y-117588571D01*
X118577619Y-117636190D01*
X118530000Y-117731428D01*
X118530000Y-117921904D01*
X118577619Y-118017142D01*
X118625238Y-118064761D01*
X118720476Y-118112380D01*
X118910952Y-118112380D01*
X119006190Y-118064761D01*
X119053809Y-118017142D01*
X119101428Y-117921904D01*
X119101428Y-117731428D01*
X119053809Y-117636190D01*
X119006190Y-117588571D01*
X118910952Y-117540952D01*
X119577619Y-118112380D02*
X119768095Y-118112380D01*
X119863333Y-118064761D01*
X119910952Y-118017142D01*
X120006190Y-117874285D01*
X120053809Y-117683809D01*
X120053809Y-117302857D01*
X120006190Y-117207619D01*
X119958571Y-117160000D01*
X119863333Y-117112380D01*
X119672857Y-117112380D01*
X119577619Y-117160000D01*
X119530000Y-117207619D01*
X119482380Y-117302857D01*
X119482380Y-117540952D01*
X119530000Y-117636190D01*
X119577619Y-117683809D01*
X119672857Y-117731428D01*
X119863333Y-117731428D01*
X119958571Y-117683809D01*
X120006190Y-117636190D01*
X120053809Y-117540952D01*
X120387142Y-117112380D02*
X121006190Y-117112380D01*
X120672857Y-117493333D01*
X120815714Y-117493333D01*
X120910952Y-117540952D01*
X120958571Y-117588571D01*
X121006190Y-117683809D01*
X121006190Y-117921904D01*
X120958571Y-118017142D01*
X120910952Y-118064761D01*
X120815714Y-118112380D01*
X120530000Y-118112380D01*
X120434761Y-118064761D01*
X120387142Y-118017142D01*
X121434761Y-118017142D02*
X121482380Y-118064761D01*
X121434761Y-118112380D01*
X121387142Y-118064761D01*
X121434761Y-118017142D01*
X121434761Y-118112380D01*
X121910952Y-118112380D02*
X121910952Y-117112380D01*
X121910952Y-117493333D02*
X122006190Y-117445714D01*
X122196666Y-117445714D01*
X122291904Y-117493333D01*
X122339523Y-117540952D01*
X122387142Y-117636190D01*
X122387142Y-117921904D01*
X122339523Y-118017142D01*
X122291904Y-118064761D01*
X122196666Y-118112380D01*
X122006190Y-118112380D01*
X121910952Y-118064761D01*
X122958571Y-118112380D02*
X122863333Y-118064761D01*
X122815714Y-117969523D01*
X122815714Y-117112380D01*
X123482380Y-118112380D02*
X123387142Y-118064761D01*
X123339523Y-118017142D01*
X123291904Y-117921904D01*
X123291904Y-117636190D01*
X123339523Y-117540952D01*
X123387142Y-117493333D01*
X123482380Y-117445714D01*
X123625238Y-117445714D01*
X123720476Y-117493333D01*
X123768095Y-117540952D01*
X123815714Y-117636190D01*
X123815714Y-117921904D01*
X123768095Y-118017142D01*
X123720476Y-118064761D01*
X123625238Y-118112380D01*
X123482380Y-118112380D01*
X124672857Y-117445714D02*
X124672857Y-118255238D01*
X124625238Y-118350476D01*
X124577619Y-118398095D01*
X124482380Y-118445714D01*
X124339523Y-118445714D01*
X124244285Y-118398095D01*
X124672857Y-118064761D02*
X124577619Y-118112380D01*
X124387142Y-118112380D01*
X124291904Y-118064761D01*
X124244285Y-118017142D01*
X124196666Y-117921904D01*
X124196666Y-117636190D01*
X124244285Y-117540952D01*
X124291904Y-117493333D01*
X124387142Y-117445714D01*
X124577619Y-117445714D01*
X124672857Y-117493333D01*
X125101428Y-118064761D02*
X125196666Y-118112380D01*
X125387142Y-118112380D01*
X125482380Y-118064761D01*
X125530000Y-117969523D01*
X125530000Y-117921904D01*
X125482380Y-117826666D01*
X125387142Y-117779047D01*
X125244285Y-117779047D01*
X125149047Y-117731428D01*
X125101428Y-117636190D01*
X125101428Y-117588571D01*
X125149047Y-117493333D01*
X125244285Y-117445714D01*
X125387142Y-117445714D01*
X125482380Y-117493333D01*
X125958571Y-117445714D02*
X125958571Y-118445714D01*
X125958571Y-117493333D02*
X126053809Y-117445714D01*
X126244285Y-117445714D01*
X126339523Y-117493333D01*
X126387142Y-117540952D01*
X126434761Y-117636190D01*
X126434761Y-117921904D01*
X126387142Y-118017142D01*
X126339523Y-118064761D01*
X126244285Y-118112380D01*
X126053809Y-118112380D01*
X125958571Y-118064761D01*
X127006190Y-118112380D02*
X126910952Y-118064761D01*
X126863333Y-118017142D01*
X126815714Y-117921904D01*
X126815714Y-117636190D01*
X126863333Y-117540952D01*
X126910952Y-117493333D01*
X127006190Y-117445714D01*
X127149047Y-117445714D01*
X127244285Y-117493333D01*
X127291904Y-117540952D01*
X127339523Y-117636190D01*
X127339523Y-117921904D01*
X127291904Y-118017142D01*
X127244285Y-118064761D01*
X127149047Y-118112380D01*
X127006190Y-118112380D01*
X127625238Y-117445714D02*
X128006190Y-117445714D01*
X127768095Y-117112380D02*
X127768095Y-117969523D01*
X127815714Y-118064761D01*
X127910952Y-118112380D01*
X128006190Y-118112380D01*
X128339523Y-118017142D02*
X128387142Y-118064761D01*
X128339523Y-118112380D01*
X128291904Y-118064761D01*
X128339523Y-118017142D01*
X128339523Y-118112380D01*
X129244285Y-118064761D02*
X129149047Y-118112380D01*
X128958571Y-118112380D01*
X128863333Y-118064761D01*
X128815714Y-118017142D01*
X128768095Y-117921904D01*
X128768095Y-117636190D01*
X128815714Y-117540952D01*
X128863333Y-117493333D01*
X128958571Y-117445714D01*
X129149047Y-117445714D01*
X129244285Y-117493333D01*
X129815714Y-118112380D02*
X129720476Y-118064761D01*
X129672857Y-118017142D01*
X129625238Y-117921904D01*
X129625238Y-117636190D01*
X129672857Y-117540952D01*
X129720476Y-117493333D01*
X129815714Y-117445714D01*
X129958571Y-117445714D01*
X130053809Y-117493333D01*
X130101428Y-117540952D01*
X130149047Y-117636190D01*
X130149047Y-117921904D01*
X130101428Y-118017142D01*
X130053809Y-118064761D01*
X129958571Y-118112380D01*
X129815714Y-118112380D01*
X130577619Y-118112380D02*
X130577619Y-117445714D01*
X130577619Y-117540952D02*
X130625238Y-117493333D01*
X130720476Y-117445714D01*
X130863333Y-117445714D01*
X130958571Y-117493333D01*
X131006190Y-117588571D01*
X131006190Y-118112380D01*
X131006190Y-117588571D02*
X131053809Y-117493333D01*
X131149047Y-117445714D01*
X131291904Y-117445714D01*
X131387142Y-117493333D01*
X131434761Y-117588571D01*
X131434761Y-118112380D01*
X132625238Y-117064761D02*
X131768095Y-118350476D01*
D11*
X132928095Y-110893333D02*
X133880476Y-110893333D01*
X132737619Y-111464761D02*
X133404285Y-109464761D01*
X134070952Y-111464761D01*
X134737619Y-110131428D02*
X134737619Y-111464761D01*
X134737619Y-110321904D02*
X134832857Y-110226666D01*
X135023333Y-110131428D01*
X135309047Y-110131428D01*
X135499523Y-110226666D01*
X135594761Y-110417142D01*
X135594761Y-111464761D01*
X136261428Y-110131428D02*
X137023333Y-110131428D01*
X136547142Y-109464761D02*
X136547142Y-111179047D01*
X136642380Y-111369523D01*
X136832857Y-111464761D01*
X137023333Y-111464761D01*
X137690000Y-111464761D02*
X137690000Y-110131428D01*
X137690000Y-109464761D02*
X137594761Y-109560000D01*
X137690000Y-109655238D01*
X137785238Y-109560000D01*
X137690000Y-109464761D01*
X137690000Y-109655238D01*
X138928095Y-111464761D02*
X138737619Y-111369523D01*
X138642380Y-111179047D01*
X138642380Y-109464761D01*
X139975714Y-111464761D02*
X139785238Y-111369523D01*
X139690000Y-111274285D01*
X139594761Y-111083809D01*
X139594761Y-110512380D01*
X139690000Y-110321904D01*
X139785238Y-110226666D01*
X139975714Y-110131428D01*
X140261428Y-110131428D01*
X140451904Y-110226666D01*
X140547142Y-110321904D01*
X140642380Y-110512380D01*
X140642380Y-111083809D01*
X140547142Y-111274285D01*
X140451904Y-111369523D01*
X140261428Y-111464761D01*
X139975714Y-111464761D01*
X142356666Y-110131428D02*
X142356666Y-111750476D01*
X142261428Y-111940952D01*
X142166190Y-112036190D01*
X141975714Y-112131428D01*
X141690000Y-112131428D01*
X141499523Y-112036190D01*
X142356666Y-111369523D02*
X142166190Y-111464761D01*
X141785238Y-111464761D01*
X141594761Y-111369523D01*
X141499523Y-111274285D01*
X141404285Y-111083809D01*
X141404285Y-110512380D01*
X141499523Y-110321904D01*
X141594761Y-110226666D01*
X141785238Y-110131428D01*
X142166190Y-110131428D01*
X142356666Y-110226666D01*
X134023333Y-114764761D02*
X134023333Y-112764761D01*
X135166190Y-114764761D01*
X135166190Y-112764761D01*
X136118571Y-114764761D02*
X136118571Y-112764761D01*
X136880476Y-112764761D01*
X137070952Y-112860000D01*
X137166190Y-112955238D01*
X137261428Y-113145714D01*
X137261428Y-113431428D01*
X137166190Y-113621904D01*
X137070952Y-113717142D01*
X136880476Y-113812380D01*
X136118571Y-113812380D01*
X138118571Y-114764761D02*
X138118571Y-112764761D01*
X139261428Y-114764761D01*
X139261428Y-112764761D01*
X140594761Y-112764761D02*
X140975714Y-112764761D01*
X141166190Y-112860000D01*
X141356666Y-113050476D01*
X141451904Y-113431428D01*
X141451904Y-114098095D01*
X141356666Y-114479047D01*
X141166190Y-114669523D01*
X140975714Y-114764761D01*
X140594761Y-114764761D01*
X140404285Y-114669523D01*
X140213809Y-114479047D01*
X140118571Y-114098095D01*
X140118571Y-113431428D01*
X140213809Y-113050476D01*
X140404285Y-112860000D01*
X140594761Y-112764761D01*
D10*
X157797857Y-116975000D02*
X157702619Y-116927380D01*
X157559761Y-116927380D01*
X157416904Y-116975000D01*
X157321666Y-117070238D01*
X157274047Y-117165476D01*
X157226428Y-117355952D01*
X157226428Y-117498809D01*
X157274047Y-117689285D01*
X157321666Y-117784523D01*
X157416904Y-117879761D01*
X157559761Y-117927380D01*
X157655000Y-117927380D01*
X157797857Y-117879761D01*
X157845476Y-117832142D01*
X157845476Y-117498809D01*
X157655000Y-117498809D01*
X159035952Y-117927380D02*
X159035952Y-116927380D01*
X159369285Y-117641666D01*
X159702619Y-116927380D01*
X159702619Y-117927380D01*
X160369285Y-116927380D02*
X160559761Y-116927380D01*
X160655000Y-116975000D01*
X160750238Y-117070238D01*
X160797857Y-117260714D01*
X160797857Y-117594047D01*
X160750238Y-117784523D01*
X160655000Y-117879761D01*
X160559761Y-117927380D01*
X160369285Y-117927380D01*
X160274047Y-117879761D01*
X160178809Y-117784523D01*
X160131190Y-117594047D01*
X160131190Y-117260714D01*
X160178809Y-117070238D01*
X160274047Y-116975000D01*
X160369285Y-116927380D01*
X161226428Y-117927380D02*
X161226428Y-116927380D01*
X161464523Y-116927380D01*
X161607380Y-116975000D01*
X161702619Y-117070238D01*
X161750238Y-117165476D01*
X161797857Y-117355952D01*
X161797857Y-117498809D01*
X161750238Y-117689285D01*
X161702619Y-117784523D01*
X161607380Y-117879761D01*
X161464523Y-117927380D01*
X161226428Y-117927380D01*
X161988333Y-118022619D02*
X162750238Y-118022619D01*
X162988333Y-117927380D02*
X162988333Y-116927380D01*
X163464523Y-117927380D02*
X163464523Y-116927380D01*
X164035952Y-117927380D01*
X164035952Y-116927380D01*
X144582142Y-117546428D02*
X145344047Y-117546428D01*
X147153571Y-117832142D02*
X147105952Y-117879761D01*
X146963095Y-117927380D01*
X146867857Y-117927380D01*
X146725000Y-117879761D01*
X146629761Y-117784523D01*
X146582142Y-117689285D01*
X146534523Y-117498809D01*
X146534523Y-117355952D01*
X146582142Y-117165476D01*
X146629761Y-117070238D01*
X146725000Y-116975000D01*
X146867857Y-116927380D01*
X146963095Y-116927380D01*
X147105952Y-116975000D01*
X147153571Y-117022619D01*
X147772619Y-116927380D02*
X147963095Y-116927380D01*
X148058333Y-116975000D01*
X148153571Y-117070238D01*
X148201190Y-117260714D01*
X148201190Y-117594047D01*
X148153571Y-117784523D01*
X148058333Y-117879761D01*
X147963095Y-117927380D01*
X147772619Y-117927380D01*
X147677380Y-117879761D01*
X147582142Y-117784523D01*
X147534523Y-117594047D01*
X147534523Y-117260714D01*
X147582142Y-117070238D01*
X147677380Y-116975000D01*
X147772619Y-116927380D01*
X148582142Y-117641666D02*
X149058333Y-117641666D01*
X148486904Y-117927380D02*
X148820238Y-116927380D01*
X149153571Y-117927380D01*
X150058333Y-117927380D02*
X149725000Y-117451190D01*
X149486904Y-117927380D02*
X149486904Y-116927380D01*
X149867857Y-116927380D01*
X149963095Y-116975000D01*
X150010714Y-117022619D01*
X150058333Y-117117857D01*
X150058333Y-117260714D01*
X150010714Y-117355952D01*
X149963095Y-117403571D01*
X149867857Y-117451190D01*
X149486904Y-117451190D01*
X150439285Y-117879761D02*
X150582142Y-117927380D01*
X150820238Y-117927380D01*
X150915476Y-117879761D01*
X150963095Y-117832142D01*
X151010714Y-117736904D01*
X151010714Y-117641666D01*
X150963095Y-117546428D01*
X150915476Y-117498809D01*
X150820238Y-117451190D01*
X150629761Y-117403571D01*
X150534523Y-117355952D01*
X150486904Y-117308333D01*
X150439285Y-117213095D01*
X150439285Y-117117857D01*
X150486904Y-117022619D01*
X150534523Y-116975000D01*
X150629761Y-116927380D01*
X150867857Y-116927380D01*
X151010714Y-116975000D01*
X151439285Y-117403571D02*
X151772619Y-117403571D01*
X151915476Y-117927380D02*
X151439285Y-117927380D01*
X151439285Y-116927380D01*
X151915476Y-116927380D01*
X153105952Y-117546428D02*
X153867857Y-117546428D01*
X153486904Y-117927380D02*
X153486904Y-117165476D01*
X164663809Y-110942380D02*
X164663809Y-109942380D01*
X164997142Y-110656666D01*
X165330476Y-109942380D01*
X165330476Y-110942380D01*
X165997142Y-109942380D02*
X166187619Y-109942380D01*
X166282857Y-109990000D01*
X166378095Y-110085238D01*
X166425714Y-110275714D01*
X166425714Y-110609047D01*
X166378095Y-110799523D01*
X166282857Y-110894761D01*
X166187619Y-110942380D01*
X165997142Y-110942380D01*
X165901904Y-110894761D01*
X165806666Y-110799523D01*
X165759047Y-110609047D01*
X165759047Y-110275714D01*
X165806666Y-110085238D01*
X165901904Y-109990000D01*
X165997142Y-109942380D01*
X166854285Y-110942380D02*
X166854285Y-109942380D01*
X167092380Y-109942380D01*
X167235238Y-109990000D01*
X167330476Y-110085238D01*
X167378095Y-110180476D01*
X167425714Y-110370952D01*
X167425714Y-110513809D01*
X167378095Y-110704285D01*
X167330476Y-110799523D01*
X167235238Y-110894761D01*
X167092380Y-110942380D01*
X166854285Y-110942380D01*
X167616190Y-111037619D02*
X168378095Y-111037619D01*
X169092380Y-110942380D02*
X168616190Y-110942380D01*
X168616190Y-109942380D01*
X169282857Y-109942380D02*
X169616190Y-110942380D01*
X169949523Y-109942380D01*
X170759047Y-110942380D02*
X170282857Y-110942380D01*
X170282857Y-109942380D01*
X167838571Y-90098571D02*
X167505238Y-90098571D01*
X167505238Y-90622380D02*
X167505238Y-89622380D01*
X167981428Y-89622380D01*
X168362380Y-90622380D02*
X168362380Y-89622380D01*
X168838571Y-90622380D02*
X168838571Y-89622380D01*
X169410000Y-90622380D01*
X169410000Y-89622380D01*
X169886190Y-90098571D02*
X170219523Y-90098571D01*
X170362380Y-90622380D02*
X169886190Y-90622380D01*
X169886190Y-89622380D01*
X170362380Y-89622380D01*
X152646666Y-71572380D02*
X152646666Y-70572380D01*
X152980000Y-71286666D01*
X153313333Y-70572380D01*
X153313333Y-71572380D01*
X153741904Y-71524761D02*
X153884761Y-71572380D01*
X154122857Y-71572380D01*
X154218095Y-71524761D01*
X154265714Y-71477142D01*
X154313333Y-71381904D01*
X154313333Y-71286666D01*
X154265714Y-71191428D01*
X154218095Y-71143809D01*
X154122857Y-71096190D01*
X153932380Y-71048571D01*
X153837142Y-71000952D01*
X153789523Y-70953333D01*
X153741904Y-70858095D01*
X153741904Y-70762857D01*
X153789523Y-70667619D01*
X153837142Y-70620000D01*
X153932380Y-70572380D01*
X154170476Y-70572380D01*
X154313333Y-70620000D01*
X154599047Y-70572380D02*
X155170476Y-70572380D01*
X154884761Y-71572380D02*
X154884761Y-70572380D01*
X156075238Y-71572380D02*
X155741904Y-71096190D01*
X155503809Y-71572380D02*
X155503809Y-70572380D01*
X155884761Y-70572380D01*
X155980000Y-70620000D01*
X156027619Y-70667619D01*
X156075238Y-70762857D01*
X156075238Y-70905714D01*
X156027619Y-71000952D01*
X155980000Y-71048571D01*
X155884761Y-71096190D01*
X155503809Y-71096190D01*
X156265714Y-71667619D02*
X157027619Y-71667619D01*
X157122857Y-70572380D02*
X157694285Y-70572380D01*
X157408571Y-71572380D02*
X157408571Y-70572380D01*
X158027619Y-70572380D02*
X158027619Y-71381904D01*
X158075238Y-71477142D01*
X158122857Y-71524761D01*
X158218095Y-71572380D01*
X158408571Y-71572380D01*
X158503809Y-71524761D01*
X158551428Y-71477142D01*
X158599047Y-71381904D01*
X158599047Y-70572380D01*
X159075238Y-71572380D02*
X159075238Y-70572380D01*
X159646666Y-71572380D01*
X159646666Y-70572380D01*
X160122857Y-71048571D02*
X160456190Y-71048571D01*
X160599047Y-71572380D02*
X160122857Y-71572380D01*
X160122857Y-70572380D01*
X160599047Y-70572380D01*
X162313333Y-70620000D02*
X162218095Y-70572380D01*
X162075238Y-70572380D01*
X161932380Y-70620000D01*
X161837142Y-70715238D01*
X161789523Y-70810476D01*
X161741904Y-71000952D01*
X161741904Y-71143809D01*
X161789523Y-71334285D01*
X161837142Y-71429523D01*
X161932380Y-71524761D01*
X162075238Y-71572380D01*
X162170476Y-71572380D01*
X162313333Y-71524761D01*
X162360952Y-71477142D01*
X162360952Y-71143809D01*
X162170476Y-71143809D01*
X147470952Y-83986666D02*
X147947142Y-83986666D01*
X147375714Y-84272380D02*
X147709047Y-83272380D01*
X148042380Y-84272380D01*
X148375714Y-84272380D02*
X148375714Y-83272380D01*
X148613809Y-83272380D01*
X148756666Y-83320000D01*
X148851904Y-83415238D01*
X148899523Y-83510476D01*
X148947142Y-83700952D01*
X148947142Y-83843809D01*
X148899523Y-84034285D01*
X148851904Y-84129523D01*
X148756666Y-84224761D01*
X148613809Y-84272380D01*
X148375714Y-84272380D01*
X149661428Y-83272380D02*
X149661428Y-83986666D01*
X149613809Y-84129523D01*
X149518571Y-84224761D01*
X149375714Y-84272380D01*
X149280476Y-84272380D01*
X120190000Y-71572380D02*
X120190000Y-70572380D01*
X120428095Y-71667619D02*
X121190000Y-71667619D01*
X121380476Y-71524761D02*
X121523333Y-71572380D01*
X121761428Y-71572380D01*
X121856666Y-71524761D01*
X121904285Y-71477142D01*
X121951904Y-71381904D01*
X121951904Y-71286666D01*
X121904285Y-71191428D01*
X121856666Y-71143809D01*
X121761428Y-71096190D01*
X121570952Y-71048571D01*
X121475714Y-71000952D01*
X121428095Y-70953333D01*
X121380476Y-70858095D01*
X121380476Y-70762857D01*
X121428095Y-70667619D01*
X121475714Y-70620000D01*
X121570952Y-70572380D01*
X121809047Y-70572380D01*
X121951904Y-70620000D01*
X122380476Y-71572380D02*
X122380476Y-70572380D01*
X122856666Y-71572380D02*
X122856666Y-70572380D01*
X123428095Y-71572380D01*
X123428095Y-70572380D01*
X123904285Y-71572380D02*
X123904285Y-70572380D01*
X124475714Y-71572380D02*
X124047142Y-71000952D01*
X124475714Y-70572380D02*
X123904285Y-71143809D01*
X126190000Y-70620000D02*
X126094761Y-70572380D01*
X125951904Y-70572380D01*
X125809047Y-70620000D01*
X125713809Y-70715238D01*
X125666190Y-70810476D01*
X125618571Y-71000952D01*
X125618571Y-71143809D01*
X125666190Y-71334285D01*
X125713809Y-71429523D01*
X125809047Y-71524761D01*
X125951904Y-71572380D01*
X126047142Y-71572380D01*
X126190000Y-71524761D01*
X126237619Y-71477142D01*
X126237619Y-71143809D01*
X126047142Y-71143809D01*
X110387142Y-71572380D02*
X110387142Y-70572380D01*
X110625238Y-71667619D02*
X111387142Y-71667619D01*
X112196666Y-71572380D02*
X111863333Y-71096190D01*
X111625238Y-71572380D02*
X111625238Y-70572380D01*
X112006190Y-70572380D01*
X112101428Y-70620000D01*
X112149047Y-70667619D01*
X112196666Y-70762857D01*
X112196666Y-70905714D01*
X112149047Y-71000952D01*
X112101428Y-71048571D01*
X112006190Y-71096190D01*
X111625238Y-71096190D01*
X112625238Y-71048571D02*
X112958571Y-71048571D01*
X113101428Y-71572380D02*
X112625238Y-71572380D01*
X112625238Y-70572380D01*
X113101428Y-70572380D01*
X113863333Y-71048571D02*
X113530000Y-71048571D01*
X113530000Y-71572380D02*
X113530000Y-70572380D01*
X114006190Y-70572380D01*
X115672857Y-70620000D02*
X115577619Y-70572380D01*
X115434761Y-70572380D01*
X115291904Y-70620000D01*
X115196666Y-70715238D01*
X115149047Y-70810476D01*
X115101428Y-71000952D01*
X115101428Y-71143809D01*
X115149047Y-71334285D01*
X115196666Y-71429523D01*
X115291904Y-71524761D01*
X115434761Y-71572380D01*
X115530000Y-71572380D01*
X115672857Y-71524761D01*
X115720476Y-71477142D01*
X115720476Y-71143809D01*
X115530000Y-71143809D01*
X103378095Y-100465000D02*
X103282857Y-100417380D01*
X103140000Y-100417380D01*
X102997142Y-100465000D01*
X102901904Y-100560238D01*
X102854285Y-100655476D01*
X102806666Y-100845952D01*
X102806666Y-100988809D01*
X102854285Y-101179285D01*
X102901904Y-101274523D01*
X102997142Y-101369761D01*
X103140000Y-101417380D01*
X103235238Y-101417380D01*
X103378095Y-101369761D01*
X103425714Y-101322142D01*
X103425714Y-100988809D01*
X103235238Y-100988809D01*
X103854285Y-101417380D02*
X103854285Y-100417380D01*
X104425714Y-101417380D01*
X104425714Y-100417380D01*
X104901904Y-101417380D02*
X104901904Y-100417380D01*
X105140000Y-100417380D01*
X105282857Y-100465000D01*
X105378095Y-100560238D01*
X105425714Y-100655476D01*
X105473333Y-100845952D01*
X105473333Y-100988809D01*
X105425714Y-101179285D01*
X105378095Y-101274523D01*
X105282857Y-101369761D01*
X105140000Y-101417380D01*
X104901904Y-101417380D01*
X120102380Y-101051904D02*
X121102380Y-100718571D01*
X120102380Y-100385238D01*
X120721428Y-100051904D02*
X120721428Y-99290000D01*
X121102380Y-99670952D02*
X120340476Y-99670952D01*
X120150000Y-97528095D02*
X120102380Y-97623333D01*
X120102380Y-97766190D01*
X120150000Y-97909047D01*
X120245238Y-98004285D01*
X120340476Y-98051904D01*
X120530952Y-98099523D01*
X120673809Y-98099523D01*
X120864285Y-98051904D01*
X120959523Y-98004285D01*
X121054761Y-97909047D01*
X121102380Y-97766190D01*
X121102380Y-97670952D01*
X121054761Y-97528095D01*
X121007142Y-97480476D01*
X120673809Y-97480476D01*
X120673809Y-97670952D01*
X120102380Y-96432857D02*
X121102380Y-96099523D01*
X120102380Y-95766190D01*
X120721428Y-95432857D02*
X120721428Y-94670952D01*
D12*
G04 #@! TO.C,G\u002A\u002A\u002A*
G36*
X165015999Y-95037306D02*
G01*
X165066377Y-95089400D01*
X165038237Y-95169210D01*
X164982965Y-95227690D01*
X164893409Y-95339915D01*
X164801009Y-95512738D01*
X164743903Y-95651076D01*
X164623103Y-95913724D01*
X164483185Y-96107910D01*
X164329227Y-96229461D01*
X164166308Y-96274205D01*
X164019018Y-96246511D01*
X163924147Y-96179362D01*
X163880464Y-96122691D01*
X163858957Y-96045081D01*
X163899625Y-95972358D01*
X163920030Y-95950970D01*
X164010378Y-95879110D01*
X164079702Y-95881677D01*
X164150706Y-95960601D01*
X164157726Y-95971167D01*
X164228278Y-96055099D01*
X164280072Y-96072194D01*
X164301886Y-96019242D01*
X164302000Y-96012443D01*
X164281823Y-95935548D01*
X164228954Y-95808913D01*
X164154886Y-95655022D01*
X164071110Y-95496356D01*
X163989121Y-95355399D01*
X163920411Y-95254635D01*
X163905874Y-95237505D01*
X163846344Y-95166937D01*
X163843090Y-95125568D01*
X163894366Y-95080932D01*
X163897341Y-95078755D01*
X163991030Y-95043484D01*
X164131911Y-95023750D01*
X164284364Y-95020958D01*
X164412767Y-95036511D01*
X164465280Y-95056363D01*
X164502527Y-95123596D01*
X164496832Y-95174352D01*
X164496541Y-95262279D01*
X164535390Y-95342168D01*
X164594259Y-95386156D01*
X164638047Y-95380119D01*
X164671573Y-95311180D01*
X164664639Y-95209230D01*
X164660588Y-95103618D01*
X164706908Y-95044493D01*
X164816703Y-95020758D01*
X164889663Y-95018667D01*
X165015999Y-95037306D01*
G37*
X165015999Y-95037306D02*
X165066377Y-95089400D01*
X165038237Y-95169210D01*
X164982965Y-95227690D01*
X164893409Y-95339915D01*
X164801009Y-95512738D01*
X164743903Y-95651076D01*
X164623103Y-95913724D01*
X164483185Y-96107910D01*
X164329227Y-96229461D01*
X164166308Y-96274205D01*
X164019018Y-96246511D01*
X163924147Y-96179362D01*
X163880464Y-96122691D01*
X163858957Y-96045081D01*
X163899625Y-95972358D01*
X163920030Y-95950970D01*
X164010378Y-95879110D01*
X164079702Y-95881677D01*
X164150706Y-95960601D01*
X164157726Y-95971167D01*
X164228278Y-96055099D01*
X164280072Y-96072194D01*
X164301886Y-96019242D01*
X164302000Y-96012443D01*
X164281823Y-95935548D01*
X164228954Y-95808913D01*
X164154886Y-95655022D01*
X164071110Y-95496356D01*
X163989121Y-95355399D01*
X163920411Y-95254635D01*
X163905874Y-95237505D01*
X163846344Y-95166937D01*
X163843090Y-95125568D01*
X163894366Y-95080932D01*
X163897341Y-95078755D01*
X163991030Y-95043484D01*
X164131911Y-95023750D01*
X164284364Y-95020958D01*
X164412767Y-95036511D01*
X164465280Y-95056363D01*
X164502527Y-95123596D01*
X164496832Y-95174352D01*
X164496541Y-95262279D01*
X164535390Y-95342168D01*
X164594259Y-95386156D01*
X164638047Y-95380119D01*
X164671573Y-95311180D01*
X164664639Y-95209230D01*
X164660588Y-95103618D01*
X164706908Y-95044493D01*
X164816703Y-95020758D01*
X164889663Y-95018667D01*
X165015999Y-95037306D01*
G36*
X153461874Y-94686472D02*
G01*
X153557035Y-94702379D01*
X153567038Y-94705696D01*
X153624381Y-94764973D01*
X153625182Y-94854644D01*
X153581084Y-94927682D01*
X153550438Y-95003082D01*
X153533471Y-95137330D01*
X153529336Y-95305861D01*
X153537189Y-95484110D01*
X153556184Y-95647512D01*
X153585475Y-95771503D01*
X153611862Y-95821927D01*
X153658676Y-95883754D01*
X153641337Y-95921106D01*
X153597962Y-95946631D01*
X153499057Y-95975996D01*
X153361153Y-95989984D01*
X153214070Y-95988967D01*
X153087627Y-95973315D01*
X153011644Y-95943397D01*
X153007684Y-95939296D01*
X152990128Y-95868592D01*
X153023667Y-95804205D01*
X153062783Y-95718692D01*
X153081883Y-95614303D01*
X153080416Y-95518478D01*
X153057828Y-95458660D01*
X153030750Y-95452339D01*
X152985771Y-95497276D01*
X152921694Y-95596813D01*
X152862146Y-95709867D01*
X152795609Y-95834736D01*
X152737145Y-95921572D01*
X152703001Y-95950000D01*
X152664383Y-95914724D01*
X152603054Y-95821742D01*
X152531561Y-95690327D01*
X152523852Y-95674833D01*
X152453430Y-95540642D01*
X152393921Y-95442684D01*
X152357102Y-95400140D01*
X152354914Y-95399667D01*
X152327684Y-95435776D01*
X152318291Y-95524035D01*
X152324505Y-95634339D01*
X152344092Y-95736585D01*
X152374821Y-95800667D01*
X152385167Y-95807691D01*
X152442466Y-95861664D01*
X152432190Y-95929262D01*
X152381704Y-95966637D01*
X152268889Y-95990759D01*
X152140452Y-95992283D01*
X152027495Y-95973893D01*
X151961119Y-95938274D01*
X151956393Y-95929921D01*
X151964112Y-95853490D01*
X152000055Y-95799897D01*
X152037844Y-95717674D01*
X152062000Y-95576946D01*
X152072571Y-95402761D01*
X152069605Y-95220169D01*
X152053149Y-95054217D01*
X152023250Y-94929955D01*
X151998324Y-94885211D01*
X151952841Y-94799093D01*
X151983779Y-94734114D01*
X152084412Y-94695454D01*
X152248012Y-94688294D01*
X152253606Y-94688607D01*
X152368015Y-94698172D01*
X152443992Y-94721496D01*
X152504812Y-94775346D01*
X152573749Y-94876487D01*
X152620088Y-94952601D01*
X152701938Y-95080424D01*
X152771693Y-95175711D01*
X152814503Y-95218210D01*
X152814999Y-95218388D01*
X152856214Y-95192220D01*
X152911262Y-95109498D01*
X152937562Y-95056428D01*
X153030902Y-94872040D01*
X153118906Y-94756722D01*
X153215723Y-94697151D01*
X153335501Y-94680002D01*
X153337277Y-94680000D01*
X153461874Y-94686472D01*
G37*
X153461874Y-94686472D02*
X153557035Y-94702379D01*
X153567038Y-94705696D01*
X153624381Y-94764973D01*
X153625182Y-94854644D01*
X153581084Y-94927682D01*
X153550438Y-95003082D01*
X153533471Y-95137330D01*
X153529336Y-95305861D01*
X153537189Y-95484110D01*
X153556184Y-95647512D01*
X153585475Y-95771503D01*
X153611862Y-95821927D01*
X153658676Y-95883754D01*
X153641337Y-95921106D01*
X153597962Y-95946631D01*
X153499057Y-95975996D01*
X153361153Y-95989984D01*
X153214070Y-95988967D01*
X153087627Y-95973315D01*
X153011644Y-95943397D01*
X153007684Y-95939296D01*
X152990128Y-95868592D01*
X153023667Y-95804205D01*
X153062783Y-95718692D01*
X153081883Y-95614303D01*
X153080416Y-95518478D01*
X153057828Y-95458660D01*
X153030750Y-95452339D01*
X152985771Y-95497276D01*
X152921694Y-95596813D01*
X152862146Y-95709867D01*
X152795609Y-95834736D01*
X152737145Y-95921572D01*
X152703001Y-95950000D01*
X152664383Y-95914724D01*
X152603054Y-95821742D01*
X152531561Y-95690327D01*
X152523852Y-95674833D01*
X152453430Y-95540642D01*
X152393921Y-95442684D01*
X152357102Y-95400140D01*
X152354914Y-95399667D01*
X152327684Y-95435776D01*
X152318291Y-95524035D01*
X152324505Y-95634339D01*
X152344092Y-95736585D01*
X152374821Y-95800667D01*
X152385167Y-95807691D01*
X152442466Y-95861664D01*
X152432190Y-95929262D01*
X152381704Y-95966637D01*
X152268889Y-95990759D01*
X152140452Y-95992283D01*
X152027495Y-95973893D01*
X151961119Y-95938274D01*
X151956393Y-95929921D01*
X151964112Y-95853490D01*
X152000055Y-95799897D01*
X152037844Y-95717674D01*
X152062000Y-95576946D01*
X152072571Y-95402761D01*
X152069605Y-95220169D01*
X152053149Y-95054217D01*
X152023250Y-94929955D01*
X151998324Y-94885211D01*
X151952841Y-94799093D01*
X151983779Y-94734114D01*
X152084412Y-94695454D01*
X152248012Y-94688294D01*
X152253606Y-94688607D01*
X152368015Y-94698172D01*
X152443992Y-94721496D01*
X152504812Y-94775346D01*
X152573749Y-94876487D01*
X152620088Y-94952601D01*
X152701938Y-95080424D01*
X152771693Y-95175711D01*
X152814503Y-95218210D01*
X152814999Y-95218388D01*
X152856214Y-95192220D01*
X152911262Y-95109498D01*
X152937562Y-95056428D01*
X153030902Y-94872040D01*
X153118906Y-94756722D01*
X153215723Y-94697151D01*
X153335501Y-94680002D01*
X153337277Y-94680000D01*
X153461874Y-94686472D01*
G36*
X154472199Y-95057260D02*
G01*
X154595894Y-95116783D01*
X154665306Y-95230010D01*
X154691330Y-95408281D01*
X154692334Y-95465753D01*
X154700663Y-95614702D01*
X154729427Y-95700955D01*
X154766417Y-95736109D01*
X154808574Y-95770625D01*
X154798781Y-95810569D01*
X154730254Y-95878747D01*
X154721723Y-95886379D01*
X154589513Y-95969596D01*
X154462560Y-95989019D01*
X154363282Y-95942681D01*
X154303008Y-95914218D01*
X154211478Y-95939613D01*
X154204657Y-95942681D01*
X154024963Y-95989372D01*
X153869139Y-95954855D01*
X153780243Y-95888424D01*
X153700408Y-95795837D01*
X153685176Y-95722023D01*
X153701036Y-95693873D01*
X154108530Y-95693873D01*
X154151708Y-95762141D01*
X154204172Y-95780667D01*
X154256619Y-95744008D01*
X154269000Y-95674833D01*
X154243096Y-95593263D01*
X154184772Y-95566972D01*
X154123110Y-95607925D01*
X154119581Y-95613360D01*
X154108530Y-95693873D01*
X153701036Y-95693873D01*
X153733792Y-95635736D01*
X153772980Y-95588363D01*
X153878844Y-95502995D01*
X154026829Y-95459142D01*
X154069314Y-95453496D01*
X154191248Y-95434619D01*
X154250338Y-95405169D01*
X154268351Y-95351612D01*
X154269000Y-95329332D01*
X154243948Y-95232731D01*
X154176614Y-95202968D01*
X154078731Y-95241682D01*
X154015000Y-95293833D01*
X153908180Y-95369761D01*
X153822405Y-95383630D01*
X153772783Y-95337351D01*
X153768614Y-95262669D01*
X153823361Y-95164195D01*
X153948544Y-95091235D01*
X154132439Y-95048860D01*
X154283324Y-95040101D01*
X154472199Y-95057260D01*
G37*
X154472199Y-95057260D02*
X154595894Y-95116783D01*
X154665306Y-95230010D01*
X154691330Y-95408281D01*
X154692334Y-95465753D01*
X154700663Y-95614702D01*
X154729427Y-95700955D01*
X154766417Y-95736109D01*
X154808574Y-95770625D01*
X154798781Y-95810569D01*
X154730254Y-95878747D01*
X154721723Y-95886379D01*
X154589513Y-95969596D01*
X154462560Y-95989019D01*
X154363282Y-95942681D01*
X154303008Y-95914218D01*
X154211478Y-95939613D01*
X154204657Y-95942681D01*
X154024963Y-95989372D01*
X153869139Y-95954855D01*
X153780243Y-95888424D01*
X153700408Y-95795837D01*
X153685176Y-95722023D01*
X153701036Y-95693873D01*
X154108530Y-95693873D01*
X154151708Y-95762141D01*
X154204172Y-95780667D01*
X154256619Y-95744008D01*
X154269000Y-95674833D01*
X154243096Y-95593263D01*
X154184772Y-95566972D01*
X154123110Y-95607925D01*
X154119581Y-95613360D01*
X154108530Y-95693873D01*
X153701036Y-95693873D01*
X153733792Y-95635736D01*
X153772980Y-95588363D01*
X153878844Y-95502995D01*
X154026829Y-95459142D01*
X154069314Y-95453496D01*
X154191248Y-95434619D01*
X154250338Y-95405169D01*
X154268351Y-95351612D01*
X154269000Y-95329332D01*
X154243948Y-95232731D01*
X154176614Y-95202968D01*
X154078731Y-95241682D01*
X154015000Y-95293833D01*
X153908180Y-95369761D01*
X153822405Y-95383630D01*
X153772783Y-95337351D01*
X153768614Y-95262669D01*
X153823361Y-95164195D01*
X153948544Y-95091235D01*
X154132439Y-95048860D01*
X154283324Y-95040101D01*
X154472199Y-95057260D01*
G36*
X155878030Y-95056050D02*
G01*
X155982708Y-95161426D01*
X156039229Y-95324635D01*
X156047000Y-95427902D01*
X156061845Y-95584612D01*
X156098517Y-95734994D01*
X156108226Y-95760587D01*
X156144467Y-95859135D01*
X156141171Y-95911218D01*
X156095434Y-95946705D01*
X156089843Y-95949727D01*
X155989113Y-95978257D01*
X155849259Y-95990159D01*
X155707960Y-95985057D01*
X155602898Y-95962577D01*
X155587546Y-95954735D01*
X155552224Y-95906441D01*
X155576963Y-95831167D01*
X155611512Y-95719008D01*
X155622973Y-95577812D01*
X155612296Y-95440337D01*
X155580432Y-95339341D01*
X155562021Y-95316539D01*
X155488005Y-95280771D01*
X155440235Y-95320166D01*
X155417621Y-95436908D01*
X155417667Y-95605462D01*
X155419553Y-95757363D01*
X155411894Y-95878521D01*
X155397584Y-95939417D01*
X155336990Y-95971104D01*
X155224642Y-95988086D01*
X155092287Y-95989640D01*
X154971674Y-95975044D01*
X154904000Y-95950643D01*
X154863303Y-95905876D01*
X154884104Y-95840376D01*
X154893417Y-95824866D01*
X154930640Y-95718463D01*
X154945709Y-95577115D01*
X154939265Y-95432779D01*
X154911953Y-95317406D01*
X154882311Y-95272233D01*
X154844603Y-95206989D01*
X154889372Y-95144928D01*
X155014435Y-95088187D01*
X155093360Y-95065703D01*
X155240026Y-95031555D01*
X155323143Y-95023560D01*
X155360431Y-95044131D01*
X155369612Y-95095682D01*
X155369667Y-95103333D01*
X155384671Y-95172164D01*
X155405439Y-95188000D01*
X155457694Y-95159693D01*
X155517834Y-95103333D01*
X155630644Y-95034646D01*
X155732989Y-95018667D01*
X155878030Y-95056050D01*
G37*
X155878030Y-95056050D02*
X155982708Y-95161426D01*
X156039229Y-95324635D01*
X156047000Y-95427902D01*
X156061845Y-95584612D01*
X156098517Y-95734994D01*
X156108226Y-95760587D01*
X156144467Y-95859135D01*
X156141171Y-95911218D01*
X156095434Y-95946705D01*
X156089843Y-95949727D01*
X155989113Y-95978257D01*
X155849259Y-95990159D01*
X155707960Y-95985057D01*
X155602898Y-95962577D01*
X155587546Y-95954735D01*
X155552224Y-95906441D01*
X155576963Y-95831167D01*
X155611512Y-95719008D01*
X155622973Y-95577812D01*
X155612296Y-95440337D01*
X155580432Y-95339341D01*
X155562021Y-95316539D01*
X155488005Y-95280771D01*
X155440235Y-95320166D01*
X155417621Y-95436908D01*
X155417667Y-95605462D01*
X155419553Y-95757363D01*
X155411894Y-95878521D01*
X155397584Y-95939417D01*
X155336990Y-95971104D01*
X155224642Y-95988086D01*
X155092287Y-95989640D01*
X154971674Y-95975044D01*
X154904000Y-95950643D01*
X154863303Y-95905876D01*
X154884104Y-95840376D01*
X154893417Y-95824866D01*
X154930640Y-95718463D01*
X154945709Y-95577115D01*
X154939265Y-95432779D01*
X154911953Y-95317406D01*
X154882311Y-95272233D01*
X154844603Y-95206989D01*
X154889372Y-95144928D01*
X155014435Y-95088187D01*
X155093360Y-95065703D01*
X155240026Y-95031555D01*
X155323143Y-95023560D01*
X155360431Y-95044131D01*
X155369612Y-95095682D01*
X155369667Y-95103333D01*
X155384671Y-95172164D01*
X155405439Y-95188000D01*
X155457694Y-95159693D01*
X155517834Y-95103333D01*
X155630644Y-95034646D01*
X155732989Y-95018667D01*
X155878030Y-95056050D01*
G36*
X158133449Y-94735609D02*
G01*
X158272005Y-94780284D01*
X158353230Y-94859150D01*
X158367344Y-94947259D01*
X158321801Y-95027129D01*
X158228760Y-95053114D01*
X158108424Y-95022171D01*
X158058163Y-94993823D01*
X157958032Y-94948691D01*
X157904232Y-94964835D01*
X157903524Y-95014116D01*
X157960420Y-95077978D01*
X158053630Y-95140262D01*
X158161870Y-95184810D01*
X158206555Y-95194325D01*
X158292712Y-95233419D01*
X158330079Y-95300923D01*
X158314129Y-95368288D01*
X158240336Y-95406966D01*
X158240265Y-95406976D01*
X158172145Y-95431983D01*
X158148684Y-95497879D01*
X158148776Y-95558726D01*
X158193302Y-95708167D01*
X158254609Y-95780948D01*
X158320597Y-95842378D01*
X158324859Y-95881437D01*
X158271992Y-95928805D01*
X158173847Y-95967864D01*
X158025259Y-95988746D01*
X157858545Y-95991161D01*
X157706018Y-95974815D01*
X157599994Y-95939417D01*
X157593346Y-95934930D01*
X157521305Y-95899559D01*
X157443193Y-95916174D01*
X157405338Y-95934669D01*
X157278475Y-95978791D01*
X157148150Y-95990802D01*
X157042825Y-95971211D01*
X156993059Y-95927314D01*
X156966824Y-95885885D01*
X156920214Y-95895773D01*
X156868877Y-95927314D01*
X156721341Y-95983997D01*
X156567112Y-95980381D01*
X156438959Y-95917927D01*
X156428000Y-95907667D01*
X156375899Y-95832476D01*
X156349896Y-95724128D01*
X156343334Y-95572024D01*
X156331592Y-95389492D01*
X156294842Y-95277745D01*
X156275722Y-95253436D01*
X156229350Y-95171355D01*
X156260193Y-95102679D01*
X156361277Y-95051843D01*
X156525626Y-95023280D01*
X156644959Y-95018667D01*
X156766667Y-95018667D01*
X156766667Y-95352150D01*
X156776533Y-95565995D01*
X156805557Y-95703098D01*
X156852876Y-95761454D01*
X156917629Y-95739056D01*
X156928541Y-95728859D01*
X156964788Y-95645846D01*
X156977413Y-95517185D01*
X156967461Y-95378219D01*
X156935976Y-95264295D01*
X156913766Y-95229153D01*
X156871410Y-95168247D01*
X156893135Y-95122421D01*
X156915170Y-95103054D01*
X156994836Y-95066841D01*
X157121908Y-95037244D01*
X157191405Y-95028098D01*
X157401667Y-95007894D01*
X157401667Y-95367930D01*
X157409077Y-95585375D01*
X157433688Y-95726337D01*
X157479071Y-95797893D01*
X157548797Y-95807123D01*
X157610627Y-95782115D01*
X157671899Y-95714957D01*
X157702297Y-95614578D01*
X157701619Y-95509566D01*
X157669664Y-95428509D01*
X157613334Y-95399667D01*
X157542581Y-95369732D01*
X157528667Y-95315000D01*
X157546602Y-95246213D01*
X157571500Y-95230333D01*
X157594840Y-95192791D01*
X157591963Y-95092242D01*
X157588857Y-95071009D01*
X157593127Y-94924123D01*
X157663387Y-94820686D01*
X157804242Y-94756386D01*
X157950883Y-94732007D01*
X158133449Y-94735609D01*
G37*
X158133449Y-94735609D02*
X158272005Y-94780284D01*
X158353230Y-94859150D01*
X158367344Y-94947259D01*
X158321801Y-95027129D01*
X158228760Y-95053114D01*
X158108424Y-95022171D01*
X158058163Y-94993823D01*
X157958032Y-94948691D01*
X157904232Y-94964835D01*
X157903524Y-95014116D01*
X157960420Y-95077978D01*
X158053630Y-95140262D01*
X158161870Y-95184810D01*
X158206555Y-95194325D01*
X158292712Y-95233419D01*
X158330079Y-95300923D01*
X158314129Y-95368288D01*
X158240336Y-95406966D01*
X158240265Y-95406976D01*
X158172145Y-95431983D01*
X158148684Y-95497879D01*
X158148776Y-95558726D01*
X158193302Y-95708167D01*
X158254609Y-95780948D01*
X158320597Y-95842378D01*
X158324859Y-95881437D01*
X158271992Y-95928805D01*
X158173847Y-95967864D01*
X158025259Y-95988746D01*
X157858545Y-95991161D01*
X157706018Y-95974815D01*
X157599994Y-95939417D01*
X157593346Y-95934930D01*
X157521305Y-95899559D01*
X157443193Y-95916174D01*
X157405338Y-95934669D01*
X157278475Y-95978791D01*
X157148150Y-95990802D01*
X157042825Y-95971211D01*
X156993059Y-95927314D01*
X156966824Y-95885885D01*
X156920214Y-95895773D01*
X156868877Y-95927314D01*
X156721341Y-95983997D01*
X156567112Y-95980381D01*
X156438959Y-95917927D01*
X156428000Y-95907667D01*
X156375899Y-95832476D01*
X156349896Y-95724128D01*
X156343334Y-95572024D01*
X156331592Y-95389492D01*
X156294842Y-95277745D01*
X156275722Y-95253436D01*
X156229350Y-95171355D01*
X156260193Y-95102679D01*
X156361277Y-95051843D01*
X156525626Y-95023280D01*
X156644959Y-95018667D01*
X156766667Y-95018667D01*
X156766667Y-95352150D01*
X156776533Y-95565995D01*
X156805557Y-95703098D01*
X156852876Y-95761454D01*
X156917629Y-95739056D01*
X156928541Y-95728859D01*
X156964788Y-95645846D01*
X156977413Y-95517185D01*
X156967461Y-95378219D01*
X156935976Y-95264295D01*
X156913766Y-95229153D01*
X156871410Y-95168247D01*
X156893135Y-95122421D01*
X156915170Y-95103054D01*
X156994836Y-95066841D01*
X157121908Y-95037244D01*
X157191405Y-95028098D01*
X157401667Y-95007894D01*
X157401667Y-95367930D01*
X157409077Y-95585375D01*
X157433688Y-95726337D01*
X157479071Y-95797893D01*
X157548797Y-95807123D01*
X157610627Y-95782115D01*
X157671899Y-95714957D01*
X157702297Y-95614578D01*
X157701619Y-95509566D01*
X157669664Y-95428509D01*
X157613334Y-95399667D01*
X157542581Y-95369732D01*
X157528667Y-95315000D01*
X157546602Y-95246213D01*
X157571500Y-95230333D01*
X157594840Y-95192791D01*
X157591963Y-95092242D01*
X157588857Y-95071009D01*
X157593127Y-94924123D01*
X157663387Y-94820686D01*
X157804242Y-94756386D01*
X157950883Y-94732007D01*
X158133449Y-94735609D01*
G36*
X159213532Y-95057260D02*
G01*
X159337227Y-95116783D01*
X159406639Y-95230010D01*
X159432663Y-95408281D01*
X159433667Y-95465753D01*
X159441996Y-95614702D01*
X159470761Y-95700955D01*
X159507750Y-95736109D01*
X159549908Y-95770625D01*
X159540114Y-95810569D01*
X159471587Y-95878747D01*
X159463056Y-95886379D01*
X159330847Y-95969596D01*
X159203893Y-95989019D01*
X159104615Y-95942681D01*
X159044341Y-95914218D01*
X158952811Y-95939613D01*
X158945990Y-95942681D01*
X158766296Y-95989372D01*
X158610472Y-95954855D01*
X158521576Y-95888424D01*
X158441741Y-95795837D01*
X158426510Y-95722023D01*
X158442370Y-95693873D01*
X158849863Y-95693873D01*
X158893042Y-95762141D01*
X158945505Y-95780667D01*
X158997952Y-95744008D01*
X159010334Y-95674833D01*
X158984429Y-95593263D01*
X158926105Y-95566972D01*
X158864444Y-95607925D01*
X158860914Y-95613360D01*
X158849863Y-95693873D01*
X158442370Y-95693873D01*
X158475126Y-95635736D01*
X158514314Y-95588363D01*
X158620177Y-95502995D01*
X158768162Y-95459142D01*
X158810647Y-95453496D01*
X158932582Y-95434619D01*
X158991671Y-95405169D01*
X159009684Y-95351612D01*
X159010334Y-95329332D01*
X158985281Y-95232731D01*
X158917947Y-95202968D01*
X158820065Y-95241682D01*
X158756334Y-95293833D01*
X158649514Y-95369761D01*
X158563738Y-95383630D01*
X158514117Y-95337351D01*
X158509948Y-95262669D01*
X158564694Y-95164195D01*
X158689877Y-95091235D01*
X158873772Y-95048860D01*
X159024657Y-95040101D01*
X159213532Y-95057260D01*
G37*
X159213532Y-95057260D02*
X159337227Y-95116783D01*
X159406639Y-95230010D01*
X159432663Y-95408281D01*
X159433667Y-95465753D01*
X159441996Y-95614702D01*
X159470761Y-95700955D01*
X159507750Y-95736109D01*
X159549908Y-95770625D01*
X159540114Y-95810569D01*
X159471587Y-95878747D01*
X159463056Y-95886379D01*
X159330847Y-95969596D01*
X159203893Y-95989019D01*
X159104615Y-95942681D01*
X159044341Y-95914218D01*
X158952811Y-95939613D01*
X158945990Y-95942681D01*
X158766296Y-95989372D01*
X158610472Y-95954855D01*
X158521576Y-95888424D01*
X158441741Y-95795837D01*
X158426510Y-95722023D01*
X158442370Y-95693873D01*
X158849863Y-95693873D01*
X158893042Y-95762141D01*
X158945505Y-95780667D01*
X158997952Y-95744008D01*
X159010334Y-95674833D01*
X158984429Y-95593263D01*
X158926105Y-95566972D01*
X158864444Y-95607925D01*
X158860914Y-95613360D01*
X158849863Y-95693873D01*
X158442370Y-95693873D01*
X158475126Y-95635736D01*
X158514314Y-95588363D01*
X158620177Y-95502995D01*
X158768162Y-95459142D01*
X158810647Y-95453496D01*
X158932582Y-95434619D01*
X158991671Y-95405169D01*
X159009684Y-95351612D01*
X159010334Y-95329332D01*
X158985281Y-95232731D01*
X158917947Y-95202968D01*
X158820065Y-95241682D01*
X158756334Y-95293833D01*
X158649514Y-95369761D01*
X158563738Y-95383630D01*
X158514117Y-95337351D01*
X158509948Y-95262669D01*
X158564694Y-95164195D01*
X158689877Y-95091235D01*
X158873772Y-95048860D01*
X159024657Y-95040101D01*
X159213532Y-95057260D01*
G36*
X160289745Y-95034475D02*
G01*
X160452069Y-95082766D01*
X160563619Y-95166862D01*
X160597179Y-95228270D01*
X160602123Y-95343510D01*
X160551786Y-95429956D01*
X160468605Y-95477382D01*
X160375015Y-95475567D01*
X160293453Y-95414286D01*
X160271748Y-95376562D01*
X160204460Y-95292650D01*
X160135072Y-95281312D01*
X160059680Y-95327207D01*
X160033247Y-95421054D01*
X160059155Y-95539454D01*
X160089633Y-95595802D01*
X160144992Y-95661726D01*
X160215966Y-95689469D01*
X160334236Y-95690056D01*
X160356303Y-95688604D01*
X160500329Y-95695470D01*
X160570343Y-95735839D01*
X160563154Y-95801595D01*
X160475569Y-95884621D01*
X160441969Y-95906375D01*
X160260327Y-95974497D01*
X160056889Y-95985303D01*
X159869742Y-95937532D01*
X159846949Y-95926065D01*
X159702179Y-95805150D01*
X159623419Y-95647047D01*
X159613405Y-95470825D01*
X159674874Y-95295554D01*
X159743209Y-95203095D01*
X159850629Y-95102839D01*
X159960117Y-95051541D01*
X160096032Y-95029671D01*
X160289745Y-95034475D01*
G37*
X160289745Y-95034475D02*
X160452069Y-95082766D01*
X160563619Y-95166862D01*
X160597179Y-95228270D01*
X160602123Y-95343510D01*
X160551786Y-95429956D01*
X160468605Y-95477382D01*
X160375015Y-95475567D01*
X160293453Y-95414286D01*
X160271748Y-95376562D01*
X160204460Y-95292650D01*
X160135072Y-95281312D01*
X160059680Y-95327207D01*
X160033247Y-95421054D01*
X160059155Y-95539454D01*
X160089633Y-95595802D01*
X160144992Y-95661726D01*
X160215966Y-95689469D01*
X160334236Y-95690056D01*
X160356303Y-95688604D01*
X160500329Y-95695470D01*
X160570343Y-95735839D01*
X160563154Y-95801595D01*
X160475569Y-95884621D01*
X160441969Y-95906375D01*
X160260327Y-95974497D01*
X160056889Y-95985303D01*
X159869742Y-95937532D01*
X159846949Y-95926065D01*
X159702179Y-95805150D01*
X159623419Y-95647047D01*
X159613405Y-95470825D01*
X159674874Y-95295554D01*
X159743209Y-95203095D01*
X159850629Y-95102839D01*
X159960117Y-95051541D01*
X160096032Y-95029671D01*
X160289745Y-95034475D01*
G36*
X161231129Y-94831649D02*
G01*
X161254000Y-94910151D01*
X161269111Y-94984147D01*
X161330793Y-95017858D01*
X161391584Y-95026568D01*
X161491232Y-95049803D01*
X161527598Y-95102408D01*
X161529167Y-95124500D01*
X161507417Y-95187533D01*
X161428693Y-95217690D01*
X161389555Y-95222583D01*
X161249944Y-95236000D01*
X161262555Y-95476583D01*
X161271999Y-95612482D01*
X161289701Y-95684238D01*
X161327205Y-95712312D01*
X161396054Y-95717166D01*
X161398288Y-95717167D01*
X161504024Y-95735488D01*
X161534145Y-95784196D01*
X161487779Y-95853902D01*
X161415856Y-95906242D01*
X161232638Y-95980958D01*
X161060266Y-95981343D01*
X160913323Y-95907895D01*
X160892243Y-95888424D01*
X160834053Y-95817824D01*
X160802468Y-95735522D01*
X160789901Y-95613703D01*
X160788334Y-95507424D01*
X160785730Y-95357879D01*
X160774122Y-95274285D01*
X160747809Y-95237990D01*
X160703667Y-95230333D01*
X160627888Y-95209938D01*
X160619140Y-95155603D01*
X160672247Y-95077607D01*
X160782037Y-94986227D01*
X160847866Y-94943890D01*
X161031155Y-94846730D01*
X161157881Y-94809402D01*
X161231129Y-94831649D01*
G37*
X161231129Y-94831649D02*
X161254000Y-94910151D01*
X161269111Y-94984147D01*
X161330793Y-95017858D01*
X161391584Y-95026568D01*
X161491232Y-95049803D01*
X161527598Y-95102408D01*
X161529167Y-95124500D01*
X161507417Y-95187533D01*
X161428693Y-95217690D01*
X161389555Y-95222583D01*
X161249944Y-95236000D01*
X161262555Y-95476583D01*
X161271999Y-95612482D01*
X161289701Y-95684238D01*
X161327205Y-95712312D01*
X161396054Y-95717166D01*
X161398288Y-95717167D01*
X161504024Y-95735488D01*
X161534145Y-95784196D01*
X161487779Y-95853902D01*
X161415856Y-95906242D01*
X161232638Y-95980958D01*
X161060266Y-95981343D01*
X160913323Y-95907895D01*
X160892243Y-95888424D01*
X160834053Y-95817824D01*
X160802468Y-95735522D01*
X160789901Y-95613703D01*
X160788334Y-95507424D01*
X160785730Y-95357879D01*
X160774122Y-95274285D01*
X160747809Y-95237990D01*
X160703667Y-95230333D01*
X160627888Y-95209938D01*
X160619140Y-95155603D01*
X160672247Y-95077607D01*
X160782037Y-94986227D01*
X160847866Y-94943890D01*
X161031155Y-94846730D01*
X161157881Y-94809402D01*
X161231129Y-94831649D01*
G36*
X162335109Y-95033637D02*
G01*
X162509811Y-95105570D01*
X162643342Y-95229352D01*
X162721400Y-95397227D01*
X162735667Y-95518855D01*
X162697180Y-95676921D01*
X162593704Y-95810439D01*
X162443210Y-95911756D01*
X162263674Y-95973218D01*
X162073069Y-95987173D01*
X161889368Y-95945966D01*
X161817619Y-95909774D01*
X161673917Y-95789557D01*
X161606660Y-95643472D01*
X161605490Y-95474945D01*
X161642460Y-95357986D01*
X162059383Y-95357986D01*
X162060714Y-95477349D01*
X162083955Y-95597999D01*
X162124730Y-95687289D01*
X162192587Y-95753900D01*
X162241803Y-95740251D01*
X162267446Y-95649631D01*
X162270000Y-95590424D01*
X162254153Y-95432497D01*
X162212270Y-95308245D01*
X162152839Y-95238444D01*
X162122881Y-95230333D01*
X162080069Y-95266714D01*
X162059383Y-95357986D01*
X161642460Y-95357986D01*
X161665088Y-95286402D01*
X161790271Y-95147745D01*
X161919390Y-95076324D01*
X162133535Y-95021304D01*
X162335109Y-95033637D01*
G37*
X162335109Y-95033637D02*
X162509811Y-95105570D01*
X162643342Y-95229352D01*
X162721400Y-95397227D01*
X162735667Y-95518855D01*
X162697180Y-95676921D01*
X162593704Y-95810439D01*
X162443210Y-95911756D01*
X162263674Y-95973218D01*
X162073069Y-95987173D01*
X161889368Y-95945966D01*
X161817619Y-95909774D01*
X161673917Y-95789557D01*
X161606660Y-95643472D01*
X161605490Y-95474945D01*
X161642460Y-95357986D01*
X162059383Y-95357986D01*
X162060714Y-95477349D01*
X162083955Y-95597999D01*
X162124730Y-95687289D01*
X162192587Y-95753900D01*
X162241803Y-95740251D01*
X162267446Y-95649631D01*
X162270000Y-95590424D01*
X162254153Y-95432497D01*
X162212270Y-95308245D01*
X162152839Y-95238444D01*
X162122881Y-95230333D01*
X162080069Y-95266714D01*
X162059383Y-95357986D01*
X161642460Y-95357986D01*
X161665088Y-95286402D01*
X161790271Y-95147745D01*
X161919390Y-95076324D01*
X162133535Y-95021304D01*
X162335109Y-95033637D01*
G36*
X163320904Y-95071134D02*
G01*
X163328334Y-95110712D01*
X163328334Y-95202758D01*
X163426312Y-95110712D01*
X163552373Y-95032022D01*
X163670399Y-95033484D01*
X163769909Y-95114636D01*
X163777863Y-95126234D01*
X163823613Y-95225186D01*
X163809655Y-95317615D01*
X163801445Y-95336733D01*
X163720550Y-95432054D01*
X163607965Y-95472504D01*
X163494741Y-95449967D01*
X163460776Y-95425758D01*
X163390167Y-95381411D01*
X163348001Y-95407886D01*
X163329856Y-95510148D01*
X163328334Y-95574566D01*
X163344572Y-95701694D01*
X163399705Y-95772803D01*
X163413000Y-95780667D01*
X163484633Y-95847568D01*
X163487960Y-95919119D01*
X163430704Y-95966637D01*
X163323430Y-95988650D01*
X163180174Y-95994777D01*
X163030103Y-95986740D01*
X162902380Y-95966263D01*
X162826173Y-95935071D01*
X162821843Y-95930652D01*
X162794323Y-95867352D01*
X162826638Y-95789538D01*
X162837826Y-95773066D01*
X162887299Y-95656422D01*
X162904118Y-95516524D01*
X162888473Y-95386316D01*
X162840558Y-95298740D01*
X162835033Y-95294339D01*
X162790369Y-95228504D01*
X162829156Y-95158945D01*
X162950350Y-95087312D01*
X162972308Y-95077847D01*
X163139340Y-95024946D01*
X163258384Y-95022971D01*
X163320904Y-95071134D01*
G37*
X163320904Y-95071134D02*
X163328334Y-95110712D01*
X163328334Y-95202758D01*
X163426312Y-95110712D01*
X163552373Y-95032022D01*
X163670399Y-95033484D01*
X163769909Y-95114636D01*
X163777863Y-95126234D01*
X163823613Y-95225186D01*
X163809655Y-95317615D01*
X163801445Y-95336733D01*
X163720550Y-95432054D01*
X163607965Y-95472504D01*
X163494741Y-95449967D01*
X163460776Y-95425758D01*
X163390167Y-95381411D01*
X163348001Y-95407886D01*
X163329856Y-95510148D01*
X163328334Y-95574566D01*
X163344572Y-95701694D01*
X163399705Y-95772803D01*
X163413000Y-95780667D01*
X163484633Y-95847568D01*
X163487960Y-95919119D01*
X163430704Y-95966637D01*
X163323430Y-95988650D01*
X163180174Y-95994777D01*
X163030103Y-95986740D01*
X162902380Y-95966263D01*
X162826173Y-95935071D01*
X162821843Y-95930652D01*
X162794323Y-95867352D01*
X162826638Y-95789538D01*
X162837826Y-95773066D01*
X162887299Y-95656422D01*
X162904118Y-95516524D01*
X162888473Y-95386316D01*
X162840558Y-95298740D01*
X162835033Y-95294339D01*
X162790369Y-95228504D01*
X162829156Y-95158945D01*
X162950350Y-95087312D01*
X162972308Y-95077847D01*
X163139340Y-95024946D01*
X163258384Y-95022971D01*
X163320904Y-95071134D01*
G36*
X153704047Y-91135914D02*
G01*
X153846389Y-91143180D01*
X153957608Y-91156503D01*
X154051066Y-91176386D01*
X154093001Y-91188244D01*
X154343226Y-91301803D01*
X154535558Y-91465179D01*
X154668623Y-91665163D01*
X154741049Y-91888541D01*
X154751461Y-92122101D01*
X154698488Y-92352632D01*
X154580754Y-92566921D01*
X154396888Y-92751758D01*
X154264437Y-92837524D01*
X154142758Y-92898422D01*
X154029242Y-92937638D01*
X153896723Y-92961185D01*
X153718036Y-92975079D01*
X153623417Y-92979452D01*
X153210667Y-92996514D01*
X153210667Y-93220961D01*
X153216843Y-93396712D01*
X153241645Y-93510930D01*
X153294479Y-93586245D01*
X153384755Y-93645286D01*
X153387708Y-93646819D01*
X153482710Y-93730997D01*
X153503481Y-93833323D01*
X153451617Y-93934267D01*
X153358834Y-94000936D01*
X153240178Y-94035751D01*
X153061551Y-94060640D01*
X152847122Y-94075091D01*
X152621062Y-94078586D01*
X152407541Y-94070612D01*
X152230728Y-94050653D01*
X152135399Y-94027013D01*
X151979819Y-93951679D01*
X151908061Y-93869733D01*
X151919341Y-93777817D01*
X152012877Y-93672573D01*
X152046500Y-93645703D01*
X152194667Y-93532691D01*
X152194667Y-92243928D01*
X153217034Y-92243928D01*
X153224666Y-92384139D01*
X153243564Y-92462421D01*
X153261965Y-92485103D01*
X153389679Y-92519567D01*
X153529870Y-92479015D01*
X153637257Y-92397256D01*
X153715703Y-92303249D01*
X153752145Y-92203614D01*
X153761000Y-92060950D01*
X153732695Y-91855297D01*
X153648603Y-91712057D01*
X153509961Y-91632750D01*
X153399048Y-91616412D01*
X153231834Y-91610833D01*
X153219632Y-92030668D01*
X153217034Y-92243928D01*
X152194667Y-92243928D01*
X152194667Y-91627680D01*
X152053714Y-91568786D01*
X151900979Y-91482318D01*
X151831019Y-91384405D01*
X151834158Y-91295463D01*
X151848780Y-91258900D01*
X151873300Y-91230267D01*
X151917710Y-91208228D01*
X151992002Y-91191449D01*
X152106169Y-91178593D01*
X152270201Y-91168325D01*
X152494092Y-91159309D01*
X152787834Y-91150209D01*
X152956667Y-91145417D01*
X153272548Y-91137536D01*
X153517221Y-91134200D01*
X153704047Y-91135914D01*
G37*
X153704047Y-91135914D02*
X153846389Y-91143180D01*
X153957608Y-91156503D01*
X154051066Y-91176386D01*
X154093001Y-91188244D01*
X154343226Y-91301803D01*
X154535558Y-91465179D01*
X154668623Y-91665163D01*
X154741049Y-91888541D01*
X154751461Y-92122101D01*
X154698488Y-92352632D01*
X154580754Y-92566921D01*
X154396888Y-92751758D01*
X154264437Y-92837524D01*
X154142758Y-92898422D01*
X154029242Y-92937638D01*
X153896723Y-92961185D01*
X153718036Y-92975079D01*
X153623417Y-92979452D01*
X153210667Y-92996514D01*
X153210667Y-93220961D01*
X153216843Y-93396712D01*
X153241645Y-93510930D01*
X153294479Y-93586245D01*
X153384755Y-93645286D01*
X153387708Y-93646819D01*
X153482710Y-93730997D01*
X153503481Y-93833323D01*
X153451617Y-93934267D01*
X153358834Y-94000936D01*
X153240178Y-94035751D01*
X153061551Y-94060640D01*
X152847122Y-94075091D01*
X152621062Y-94078586D01*
X152407541Y-94070612D01*
X152230728Y-94050653D01*
X152135399Y-94027013D01*
X151979819Y-93951679D01*
X151908061Y-93869733D01*
X151919341Y-93777817D01*
X152012877Y-93672573D01*
X152046500Y-93645703D01*
X152194667Y-93532691D01*
X152194667Y-92243928D01*
X153217034Y-92243928D01*
X153224666Y-92384139D01*
X153243564Y-92462421D01*
X153261965Y-92485103D01*
X153389679Y-92519567D01*
X153529870Y-92479015D01*
X153637257Y-92397256D01*
X153715703Y-92303249D01*
X153752145Y-92203614D01*
X153761000Y-92060950D01*
X153732695Y-91855297D01*
X153648603Y-91712057D01*
X153509961Y-91632750D01*
X153399048Y-91616412D01*
X153231834Y-91610833D01*
X153219632Y-92030668D01*
X153217034Y-92243928D01*
X152194667Y-92243928D01*
X152194667Y-91627680D01*
X152053714Y-91568786D01*
X151900979Y-91482318D01*
X151831019Y-91384405D01*
X151834158Y-91295463D01*
X151848780Y-91258900D01*
X151873300Y-91230267D01*
X151917710Y-91208228D01*
X151992002Y-91191449D01*
X152106169Y-91178593D01*
X152270201Y-91168325D01*
X152494092Y-91159309D01*
X152787834Y-91150209D01*
X152956667Y-91145417D01*
X153272548Y-91137536D01*
X153517221Y-91134200D01*
X153704047Y-91135914D01*
G36*
X155717308Y-91128379D02*
G01*
X155865323Y-91140907D01*
X155956245Y-91163099D01*
X155957792Y-91163902D01*
X156011880Y-91202716D01*
X156119147Y-91287638D01*
X156268534Y-91409621D01*
X156448982Y-91559620D01*
X156649433Y-91728589D01*
X156683929Y-91757891D01*
X156885102Y-91925759D01*
X157067541Y-92071959D01*
X157220514Y-92188375D01*
X157333289Y-92266891D01*
X157395133Y-92299390D01*
X157400337Y-92299675D01*
X157443269Y-92262344D01*
X157468924Y-92161963D01*
X157478251Y-92057199D01*
X157481257Y-91858006D01*
X157459074Y-91722472D01*
X157405373Y-91631716D01*
X157313882Y-91566888D01*
X157224657Y-91506263D01*
X157195754Y-91430469D01*
X157198079Y-91366000D01*
X157222730Y-91266839D01*
X157281849Y-91197939D01*
X157387016Y-91155182D01*
X157549811Y-91134448D01*
X157781816Y-91131618D01*
X157852419Y-91133238D01*
X158059842Y-91141760D01*
X158200824Y-91155793D01*
X158293562Y-91178583D01*
X158356251Y-91213379D01*
X158371003Y-91225811D01*
X158437184Y-91311248D01*
X158460000Y-91382892D01*
X158454046Y-91433466D01*
X158425710Y-91480248D01*
X158359282Y-91541442D01*
X158248334Y-91628172D01*
X158142500Y-91708981D01*
X158120455Y-92760574D01*
X158111614Y-93127543D01*
X158100959Y-93418711D01*
X158086640Y-93642946D01*
X158066809Y-93809113D01*
X158039616Y-93926079D01*
X158003214Y-94002711D01*
X157955752Y-94047874D01*
X157895383Y-94070435D01*
X157845872Y-94077404D01*
X157797660Y-94074652D01*
X157739549Y-94053976D01*
X157662878Y-94009027D01*
X157558988Y-93933456D01*
X157419221Y-93820913D01*
X157234916Y-93665049D01*
X156997415Y-93459514D01*
X156966680Y-93432737D01*
X156750183Y-93245072D01*
X156551584Y-93074892D01*
X156380837Y-92930569D01*
X156247896Y-92820475D01*
X156162714Y-92752981D01*
X156138899Y-92736537D01*
X156048140Y-92714975D01*
X155984100Y-92765402D01*
X155943869Y-92891761D01*
X155928765Y-93021150D01*
X155929379Y-93237040D01*
X155961285Y-93416802D01*
X156019964Y-93544384D01*
X156091994Y-93601344D01*
X156177786Y-93658557D01*
X156220697Y-93714487D01*
X156242962Y-93794086D01*
X156208887Y-93877958D01*
X156185086Y-93911695D01*
X156094658Y-93999643D01*
X156000851Y-94050356D01*
X155901657Y-94064927D01*
X155747674Y-94073829D01*
X155568607Y-94076791D01*
X155394161Y-94073542D01*
X155254041Y-94063810D01*
X155211760Y-94057568D01*
X155126184Y-94014327D01*
X155034799Y-93932466D01*
X154966017Y-93841360D01*
X154946334Y-93783133D01*
X154975164Y-93734257D01*
X155048620Y-93652962D01*
X155101266Y-93602413D01*
X155256199Y-93460476D01*
X155276045Y-92910869D01*
X155281356Y-92670983D01*
X155280911Y-92431041D01*
X155275087Y-92219835D01*
X155265067Y-92073428D01*
X155243924Y-91913606D01*
X155212540Y-91805671D01*
X155155801Y-91716984D01*
X155058593Y-91614907D01*
X155047955Y-91604543D01*
X154949993Y-91505494D01*
X154882516Y-91429926D01*
X154861667Y-91397963D01*
X154898600Y-91302432D01*
X154992350Y-91214160D01*
X155078757Y-91170786D01*
X155192925Y-91146717D01*
X155354887Y-91131489D01*
X155538422Y-91125308D01*
X155717308Y-91128379D01*
G37*
X155717308Y-91128379D02*
X155865323Y-91140907D01*
X155956245Y-91163099D01*
X155957792Y-91163902D01*
X156011880Y-91202716D01*
X156119147Y-91287638D01*
X156268534Y-91409621D01*
X156448982Y-91559620D01*
X156649433Y-91728589D01*
X156683929Y-91757891D01*
X156885102Y-91925759D01*
X157067541Y-92071959D01*
X157220514Y-92188375D01*
X157333289Y-92266891D01*
X157395133Y-92299390D01*
X157400337Y-92299675D01*
X157443269Y-92262344D01*
X157468924Y-92161963D01*
X157478251Y-92057199D01*
X157481257Y-91858006D01*
X157459074Y-91722472D01*
X157405373Y-91631716D01*
X157313882Y-91566888D01*
X157224657Y-91506263D01*
X157195754Y-91430469D01*
X157198079Y-91366000D01*
X157222730Y-91266839D01*
X157281849Y-91197939D01*
X157387016Y-91155182D01*
X157549811Y-91134448D01*
X157781816Y-91131618D01*
X157852419Y-91133238D01*
X158059842Y-91141760D01*
X158200824Y-91155793D01*
X158293562Y-91178583D01*
X158356251Y-91213379D01*
X158371003Y-91225811D01*
X158437184Y-91311248D01*
X158460000Y-91382892D01*
X158454046Y-91433466D01*
X158425710Y-91480248D01*
X158359282Y-91541442D01*
X158248334Y-91628172D01*
X158142500Y-91708981D01*
X158120455Y-92760574D01*
X158111614Y-93127543D01*
X158100959Y-93418711D01*
X158086640Y-93642946D01*
X158066809Y-93809113D01*
X158039616Y-93926079D01*
X158003214Y-94002711D01*
X157955752Y-94047874D01*
X157895383Y-94070435D01*
X157845872Y-94077404D01*
X157797660Y-94074652D01*
X157739549Y-94053976D01*
X157662878Y-94009027D01*
X157558988Y-93933456D01*
X157419221Y-93820913D01*
X157234916Y-93665049D01*
X156997415Y-93459514D01*
X156966680Y-93432737D01*
X156750183Y-93245072D01*
X156551584Y-93074892D01*
X156380837Y-92930569D01*
X156247896Y-92820475D01*
X156162714Y-92752981D01*
X156138899Y-92736537D01*
X156048140Y-92714975D01*
X155984100Y-92765402D01*
X155943869Y-92891761D01*
X155928765Y-93021150D01*
X155929379Y-93237040D01*
X155961285Y-93416802D01*
X156019964Y-93544384D01*
X156091994Y-93601344D01*
X156177786Y-93658557D01*
X156220697Y-93714487D01*
X156242962Y-93794086D01*
X156208887Y-93877958D01*
X156185086Y-93911695D01*
X156094658Y-93999643D01*
X156000851Y-94050356D01*
X155901657Y-94064927D01*
X155747674Y-94073829D01*
X155568607Y-94076791D01*
X155394161Y-94073542D01*
X155254041Y-94063810D01*
X155211760Y-94057568D01*
X155126184Y-94014327D01*
X155034799Y-93932466D01*
X154966017Y-93841360D01*
X154946334Y-93783133D01*
X154975164Y-93734257D01*
X155048620Y-93652962D01*
X155101266Y-93602413D01*
X155256199Y-93460476D01*
X155276045Y-92910869D01*
X155281356Y-92670983D01*
X155280911Y-92431041D01*
X155275087Y-92219835D01*
X155265067Y-92073428D01*
X155243924Y-91913606D01*
X155212540Y-91805671D01*
X155155801Y-91716984D01*
X155058593Y-91614907D01*
X155047955Y-91604543D01*
X154949993Y-91505494D01*
X154882516Y-91429926D01*
X154861667Y-91397963D01*
X154898600Y-91302432D01*
X154992350Y-91214160D01*
X155078757Y-91170786D01*
X155192925Y-91146717D01*
X155354887Y-91131489D01*
X155538422Y-91125308D01*
X155717308Y-91128379D01*
G36*
X160435047Y-91135914D02*
G01*
X160577389Y-91143180D01*
X160688608Y-91156503D01*
X160782066Y-91176386D01*
X160824001Y-91188244D01*
X161074226Y-91301803D01*
X161266558Y-91465179D01*
X161399623Y-91665163D01*
X161472049Y-91888541D01*
X161482461Y-92122101D01*
X161429488Y-92352632D01*
X161311754Y-92566921D01*
X161127888Y-92751758D01*
X160995437Y-92837524D01*
X160873758Y-92898422D01*
X160760242Y-92937638D01*
X160627723Y-92961185D01*
X160449036Y-92975079D01*
X160354417Y-92979452D01*
X159941667Y-92996514D01*
X159941667Y-93220961D01*
X159947843Y-93396712D01*
X159972645Y-93510930D01*
X160025479Y-93586245D01*
X160115755Y-93645286D01*
X160118708Y-93646819D01*
X160213710Y-93730997D01*
X160234481Y-93833323D01*
X160182617Y-93934267D01*
X160089834Y-94000936D01*
X159971178Y-94035751D01*
X159792551Y-94060640D01*
X159578122Y-94075091D01*
X159352062Y-94078586D01*
X159138541Y-94070612D01*
X158961728Y-94050653D01*
X158866399Y-94027013D01*
X158710819Y-93951679D01*
X158639061Y-93869733D01*
X158650341Y-93777817D01*
X158743877Y-93672573D01*
X158777500Y-93645703D01*
X158925667Y-93532691D01*
X158925667Y-92243928D01*
X159948034Y-92243928D01*
X159955666Y-92384139D01*
X159974564Y-92462421D01*
X159992965Y-92485103D01*
X160120679Y-92519567D01*
X160260870Y-92479015D01*
X160368257Y-92397256D01*
X160446703Y-92303249D01*
X160483145Y-92203614D01*
X160492000Y-92060950D01*
X160463695Y-91855297D01*
X160379603Y-91712057D01*
X160240961Y-91632750D01*
X160130048Y-91616412D01*
X159962834Y-91610833D01*
X159950632Y-92030668D01*
X159948034Y-92243928D01*
X158925667Y-92243928D01*
X158925667Y-91627680D01*
X158784714Y-91568786D01*
X158631979Y-91482318D01*
X158562019Y-91384405D01*
X158565158Y-91295463D01*
X158579780Y-91258900D01*
X158604300Y-91230267D01*
X158648710Y-91208228D01*
X158723002Y-91191449D01*
X158837169Y-91178593D01*
X159001201Y-91168325D01*
X159225092Y-91159309D01*
X159518834Y-91150209D01*
X159687667Y-91145417D01*
X160003548Y-91137536D01*
X160248221Y-91134200D01*
X160435047Y-91135914D01*
G37*
X160435047Y-91135914D02*
X160577389Y-91143180D01*
X160688608Y-91156503D01*
X160782066Y-91176386D01*
X160824001Y-91188244D01*
X161074226Y-91301803D01*
X161266558Y-91465179D01*
X161399623Y-91665163D01*
X161472049Y-91888541D01*
X161482461Y-92122101D01*
X161429488Y-92352632D01*
X161311754Y-92566921D01*
X161127888Y-92751758D01*
X160995437Y-92837524D01*
X160873758Y-92898422D01*
X160760242Y-92937638D01*
X160627723Y-92961185D01*
X160449036Y-92975079D01*
X160354417Y-92979452D01*
X159941667Y-92996514D01*
X159941667Y-93220961D01*
X159947843Y-93396712D01*
X159972645Y-93510930D01*
X160025479Y-93586245D01*
X160115755Y-93645286D01*
X160118708Y-93646819D01*
X160213710Y-93730997D01*
X160234481Y-93833323D01*
X160182617Y-93934267D01*
X160089834Y-94000936D01*
X159971178Y-94035751D01*
X159792551Y-94060640D01*
X159578122Y-94075091D01*
X159352062Y-94078586D01*
X159138541Y-94070612D01*
X158961728Y-94050653D01*
X158866399Y-94027013D01*
X158710819Y-93951679D01*
X158639061Y-93869733D01*
X158650341Y-93777817D01*
X158743877Y-93672573D01*
X158777500Y-93645703D01*
X158925667Y-93532691D01*
X158925667Y-92243928D01*
X159948034Y-92243928D01*
X159955666Y-92384139D01*
X159974564Y-92462421D01*
X159992965Y-92485103D01*
X160120679Y-92519567D01*
X160260870Y-92479015D01*
X160368257Y-92397256D01*
X160446703Y-92303249D01*
X160483145Y-92203614D01*
X160492000Y-92060950D01*
X160463695Y-91855297D01*
X160379603Y-91712057D01*
X160240961Y-91632750D01*
X160130048Y-91616412D01*
X159962834Y-91610833D01*
X159950632Y-92030668D01*
X159948034Y-92243928D01*
X158925667Y-92243928D01*
X158925667Y-91627680D01*
X158784714Y-91568786D01*
X158631979Y-91482318D01*
X158562019Y-91384405D01*
X158565158Y-91295463D01*
X158579780Y-91258900D01*
X158604300Y-91230267D01*
X158648710Y-91208228D01*
X158723002Y-91191449D01*
X158837169Y-91178593D01*
X159001201Y-91168325D01*
X159225092Y-91159309D01*
X159518834Y-91150209D01*
X159687667Y-91145417D01*
X160003548Y-91137536D01*
X160248221Y-91134200D01*
X160435047Y-91135914D01*
G36*
X162405975Y-91128379D02*
G01*
X162553990Y-91140907D01*
X162644912Y-91163099D01*
X162646458Y-91163902D01*
X162700547Y-91202716D01*
X162807813Y-91287638D01*
X162957200Y-91409621D01*
X163137649Y-91559620D01*
X163338099Y-91728589D01*
X163372595Y-91757891D01*
X163573768Y-91925759D01*
X163756208Y-92071959D01*
X163909181Y-92188375D01*
X164021956Y-92266891D01*
X164083799Y-92299390D01*
X164089003Y-92299675D01*
X164131936Y-92262344D01*
X164157590Y-92161963D01*
X164166918Y-92057199D01*
X164169923Y-91858006D01*
X164147740Y-91722472D01*
X164094040Y-91631716D01*
X164002549Y-91566888D01*
X163913323Y-91506263D01*
X163884421Y-91430469D01*
X163886746Y-91366000D01*
X163911397Y-91266839D01*
X163970516Y-91197939D01*
X164075683Y-91155182D01*
X164238478Y-91134448D01*
X164470482Y-91131618D01*
X164541086Y-91133238D01*
X164748509Y-91141760D01*
X164889491Y-91155793D01*
X164982229Y-91178583D01*
X165044918Y-91213379D01*
X165059669Y-91225811D01*
X165125850Y-91311248D01*
X165148667Y-91382892D01*
X165142713Y-91433466D01*
X165114377Y-91480248D01*
X165047948Y-91541442D01*
X164937000Y-91628172D01*
X164831167Y-91708981D01*
X164809122Y-92760574D01*
X164800281Y-93127543D01*
X164789626Y-93418711D01*
X164775307Y-93642946D01*
X164755475Y-93809113D01*
X164728283Y-93926079D01*
X164691880Y-94002711D01*
X164644419Y-94047874D01*
X164584050Y-94070435D01*
X164534539Y-94077404D01*
X164486327Y-94074652D01*
X164428215Y-94053976D01*
X164351544Y-94009027D01*
X164247655Y-93933456D01*
X164107887Y-93820913D01*
X163923583Y-93665049D01*
X163686082Y-93459514D01*
X163655347Y-93432737D01*
X163438850Y-93245072D01*
X163240251Y-93074892D01*
X163069504Y-92930569D01*
X162936562Y-92820475D01*
X162851381Y-92752981D01*
X162827566Y-92736537D01*
X162736807Y-92714975D01*
X162672767Y-92765402D01*
X162632536Y-92891761D01*
X162617431Y-93021150D01*
X162618046Y-93237040D01*
X162649951Y-93416802D01*
X162708631Y-93544384D01*
X162780661Y-93601344D01*
X162866453Y-93658557D01*
X162909364Y-93714487D01*
X162931628Y-93794086D01*
X162897553Y-93877958D01*
X162873753Y-93911695D01*
X162783325Y-93999643D01*
X162689517Y-94050356D01*
X162590324Y-94064927D01*
X162436341Y-94073829D01*
X162257274Y-94076791D01*
X162082828Y-94073542D01*
X161942708Y-94063810D01*
X161900427Y-94057568D01*
X161814850Y-94014327D01*
X161723466Y-93932466D01*
X161654684Y-93841360D01*
X161635000Y-93783133D01*
X161663830Y-93734257D01*
X161737286Y-93652962D01*
X161789933Y-93602413D01*
X161944866Y-93460476D01*
X161964712Y-92910869D01*
X161970023Y-92670983D01*
X161969577Y-92431041D01*
X161963753Y-92219835D01*
X161953733Y-92073428D01*
X161932591Y-91913606D01*
X161901207Y-91805671D01*
X161844467Y-91716984D01*
X161747259Y-91614907D01*
X161736621Y-91604543D01*
X161638660Y-91505494D01*
X161571183Y-91429926D01*
X161550334Y-91397963D01*
X161587267Y-91302432D01*
X161681017Y-91214160D01*
X161767424Y-91170786D01*
X161881591Y-91146717D01*
X162043553Y-91131489D01*
X162227089Y-91125308D01*
X162405975Y-91128379D01*
G37*
X162405975Y-91128379D02*
X162553990Y-91140907D01*
X162644912Y-91163099D01*
X162646458Y-91163902D01*
X162700547Y-91202716D01*
X162807813Y-91287638D01*
X162957200Y-91409621D01*
X163137649Y-91559620D01*
X163338099Y-91728589D01*
X163372595Y-91757891D01*
X163573768Y-91925759D01*
X163756208Y-92071959D01*
X163909181Y-92188375D01*
X164021956Y-92266891D01*
X164083799Y-92299390D01*
X164089003Y-92299675D01*
X164131936Y-92262344D01*
X164157590Y-92161963D01*
X164166918Y-92057199D01*
X164169923Y-91858006D01*
X164147740Y-91722472D01*
X164094040Y-91631716D01*
X164002549Y-91566888D01*
X163913323Y-91506263D01*
X163884421Y-91430469D01*
X163886746Y-91366000D01*
X163911397Y-91266839D01*
X163970516Y-91197939D01*
X164075683Y-91155182D01*
X164238478Y-91134448D01*
X164470482Y-91131618D01*
X164541086Y-91133238D01*
X164748509Y-91141760D01*
X164889491Y-91155793D01*
X164982229Y-91178583D01*
X165044918Y-91213379D01*
X165059669Y-91225811D01*
X165125850Y-91311248D01*
X165148667Y-91382892D01*
X165142713Y-91433466D01*
X165114377Y-91480248D01*
X165047948Y-91541442D01*
X164937000Y-91628172D01*
X164831167Y-91708981D01*
X164809122Y-92760574D01*
X164800281Y-93127543D01*
X164789626Y-93418711D01*
X164775307Y-93642946D01*
X164755475Y-93809113D01*
X164728283Y-93926079D01*
X164691880Y-94002711D01*
X164644419Y-94047874D01*
X164584050Y-94070435D01*
X164534539Y-94077404D01*
X164486327Y-94074652D01*
X164428215Y-94053976D01*
X164351544Y-94009027D01*
X164247655Y-93933456D01*
X164107887Y-93820913D01*
X163923583Y-93665049D01*
X163686082Y-93459514D01*
X163655347Y-93432737D01*
X163438850Y-93245072D01*
X163240251Y-93074892D01*
X163069504Y-92930569D01*
X162936562Y-92820475D01*
X162851381Y-92752981D01*
X162827566Y-92736537D01*
X162736807Y-92714975D01*
X162672767Y-92765402D01*
X162632536Y-92891761D01*
X162617431Y-93021150D01*
X162618046Y-93237040D01*
X162649951Y-93416802D01*
X162708631Y-93544384D01*
X162780661Y-93601344D01*
X162866453Y-93658557D01*
X162909364Y-93714487D01*
X162931628Y-93794086D01*
X162897553Y-93877958D01*
X162873753Y-93911695D01*
X162783325Y-93999643D01*
X162689517Y-94050356D01*
X162590324Y-94064927D01*
X162436341Y-94073829D01*
X162257274Y-94076791D01*
X162082828Y-94073542D01*
X161942708Y-94063810D01*
X161900427Y-94057568D01*
X161814850Y-94014327D01*
X161723466Y-93932466D01*
X161654684Y-93841360D01*
X161635000Y-93783133D01*
X161663830Y-93734257D01*
X161737286Y-93652962D01*
X161789933Y-93602413D01*
X161944866Y-93460476D01*
X161964712Y-92910869D01*
X161970023Y-92670983D01*
X161969577Y-92431041D01*
X161963753Y-92219835D01*
X161953733Y-92073428D01*
X161932591Y-91913606D01*
X161901207Y-91805671D01*
X161844467Y-91716984D01*
X161747259Y-91614907D01*
X161736621Y-91604543D01*
X161638660Y-91505494D01*
X161571183Y-91429926D01*
X161550334Y-91397963D01*
X161587267Y-91302432D01*
X161681017Y-91214160D01*
X161767424Y-91170786D01*
X161881591Y-91146717D01*
X162043553Y-91131489D01*
X162227089Y-91125308D01*
X162405975Y-91128379D01*
D13*
G04 #@! TO.C,U1*
X141090000Y-100644000D02*
X141090000Y-90364000D01*
X130690000Y-100644000D02*
X141090000Y-100644000D01*
X130690000Y-90364000D02*
X130690000Y-100644000D01*
X141090000Y-90364000D02*
X130690000Y-90364000D01*
X141030000Y-98154000D02*
X141030000Y-96504000D01*
X130750000Y-98154000D02*
X141030000Y-98154000D01*
X130750000Y-92854000D02*
X130750000Y-98154000D01*
X141030000Y-92854000D02*
X130750000Y-92854000D01*
X141030000Y-94504000D02*
X141030000Y-92854000D01*
X141030000Y-96504000D02*
G75*
G02*
X141030000Y-94504000I0J1000000D01*
G01*
G04 #@! TO.C,RV4*
X128785000Y-116260000D02*
X128785000Y-115501000D01*
X127570000Y-114741000D02*
X130000000Y-114741000D01*
X127570000Y-116260000D02*
X130000000Y-116260000D01*
X130000000Y-116260000D02*
X130000000Y-114741000D01*
X127570000Y-116260000D02*
X127570000Y-114741000D01*
X125105000Y-104970000D02*
X130175000Y-104970000D01*
X125105000Y-114740000D02*
X130175000Y-114740000D01*
X130175000Y-114740000D02*
X130175000Y-104970000D01*
X125105000Y-114740000D02*
X125105000Y-104970000D01*
G04 #@! TO.C,RV3*
X147440000Y-71065000D02*
X147440000Y-71824000D01*
X148655000Y-72584000D02*
X146225000Y-72584000D01*
X148655000Y-71065000D02*
X146225000Y-71065000D01*
X146225000Y-71065000D02*
X146225000Y-72584000D01*
X148655000Y-71065000D02*
X148655000Y-72584000D01*
X151120000Y-82355000D02*
X146050000Y-82355000D01*
X151120000Y-72585000D02*
X146050000Y-72585000D01*
X146050000Y-72585000D02*
X146050000Y-82355000D01*
X151120000Y-72585000D02*
X151120000Y-82355000D01*
G04 #@! TO.C,RV2*
X186490000Y-80740000D02*
X186490000Y-86980000D01*
X176490000Y-80740000D02*
X176490000Y-86980000D01*
X176490000Y-86980000D02*
X186490000Y-86980000D01*
X176490000Y-80740000D02*
X186490000Y-80740000D01*
X176490000Y-80240000D02*
X176490000Y-87480000D01*
X171490000Y-80240000D02*
X171490000Y-87480000D01*
X171490000Y-87480000D02*
X176490000Y-87480000D01*
X171490000Y-80240000D02*
X176490000Y-80240000D01*
X171490000Y-78990000D02*
X171490000Y-88730000D01*
X164200000Y-78990000D02*
X164200000Y-88730000D01*
X164200000Y-88730000D02*
X171490000Y-88730000D01*
X164200000Y-78990000D02*
X171490000Y-78990000D01*
G04 #@! TO.C,RV1*
X186490000Y-101060000D02*
X186490000Y-107300000D01*
X176490000Y-101060000D02*
X176490000Y-107300000D01*
X176490000Y-107300000D02*
X186490000Y-107300000D01*
X176490000Y-101060000D02*
X186490000Y-101060000D01*
X176490000Y-100560000D02*
X176490000Y-107800000D01*
X171490000Y-100560000D02*
X171490000Y-107800000D01*
X171490000Y-107800000D02*
X176490000Y-107800000D01*
X171490000Y-100560000D02*
X176490000Y-100560000D01*
X171490000Y-99310000D02*
X171490000Y-109050000D01*
X164200000Y-99310000D02*
X164200000Y-109050000D01*
X164200000Y-109050000D02*
X171490000Y-109050000D01*
X164200000Y-99310000D02*
X171490000Y-99310000D01*
G04 #@! TO.C,R16*
X129000000Y-83285000D02*
X129000000Y-82955000D01*
X122460000Y-83285000D02*
X129000000Y-83285000D01*
X122460000Y-82955000D02*
X122460000Y-83285000D01*
X129000000Y-80545000D02*
X129000000Y-80875000D01*
X122460000Y-80545000D02*
X129000000Y-80545000D01*
X122460000Y-80875000D02*
X122460000Y-80545000D01*
G04 #@! TO.C,R15*
X140430000Y-86714000D02*
X140430000Y-86384000D01*
X133890000Y-86714000D02*
X140430000Y-86714000D01*
X133890000Y-86384000D02*
X133890000Y-86714000D01*
X140430000Y-83974000D02*
X140430000Y-84304000D01*
X133890000Y-83974000D02*
X140430000Y-83974000D01*
X133890000Y-84304000D02*
X133890000Y-83974000D01*
G04 #@! TO.C,R14*
X135350000Y-89889000D02*
X135350000Y-89559000D01*
X128810000Y-89889000D02*
X135350000Y-89889000D01*
X128810000Y-89559000D02*
X128810000Y-89889000D01*
X135350000Y-87149000D02*
X135350000Y-87479000D01*
X128810000Y-87149000D02*
X135350000Y-87149000D01*
X128810000Y-87479000D02*
X128810000Y-87149000D01*
G04 #@! TO.C,R13*
X138530000Y-72930000D02*
X138200000Y-72930000D01*
X138530000Y-79470000D02*
X138530000Y-72930000D01*
X138200000Y-79470000D02*
X138530000Y-79470000D01*
X135790000Y-72930000D02*
X136120000Y-72930000D01*
X135790000Y-79470000D02*
X135790000Y-72930000D01*
X136120000Y-79470000D02*
X135790000Y-79470000D01*
G04 #@! TO.C,R12*
X123725000Y-93440000D02*
X124055000Y-93440000D01*
X123725000Y-86900000D02*
X123725000Y-93440000D01*
X124055000Y-86900000D02*
X123725000Y-86900000D01*
X126465000Y-93440000D02*
X126135000Y-93440000D01*
X126465000Y-86900000D02*
X126465000Y-93440000D01*
X126135000Y-86900000D02*
X126465000Y-86900000D01*
G04 #@! TO.C,R11*
X134715000Y-104240000D02*
X134715000Y-103910000D01*
X128175000Y-104240000D02*
X134715000Y-104240000D01*
X128175000Y-103910000D02*
X128175000Y-104240000D01*
X134715000Y-101500000D02*
X134715000Y-101830000D01*
X128175000Y-101500000D02*
X134715000Y-101500000D01*
X128175000Y-101830000D02*
X128175000Y-101500000D01*
G04 #@! TO.C,R10*
X138208000Y-101500000D02*
X138208000Y-101830000D01*
X144748000Y-101500000D02*
X138208000Y-101500000D01*
X144748000Y-101830000D02*
X144748000Y-101500000D01*
X138208000Y-104240000D02*
X138208000Y-103910000D01*
X144748000Y-104240000D02*
X138208000Y-104240000D01*
X144748000Y-103910000D02*
X144748000Y-104240000D01*
G04 #@! TO.C,R9*
X160115000Y-86460000D02*
X160115000Y-86130000D01*
X153575000Y-86460000D02*
X160115000Y-86460000D01*
X153575000Y-86130000D02*
X153575000Y-86460000D01*
X160115000Y-83720000D02*
X160115000Y-84050000D01*
X153575000Y-83720000D02*
X160115000Y-83720000D01*
X153575000Y-84050000D02*
X153575000Y-83720000D01*
G04 #@! TO.C,R8*
X151665000Y-107410000D02*
X151995000Y-107410000D01*
X151665000Y-100870000D02*
X151665000Y-107410000D01*
X151995000Y-100870000D02*
X151665000Y-100870000D01*
X154405000Y-107410000D02*
X154075000Y-107410000D01*
X154405000Y-100870000D02*
X154405000Y-107410000D01*
X154075000Y-100870000D02*
X154405000Y-100870000D01*
G04 #@! TO.C,R7*
X162660000Y-100870000D02*
X162330000Y-100870000D01*
X162660000Y-107410000D02*
X162660000Y-100870000D01*
X162330000Y-107410000D02*
X162660000Y-107410000D01*
X159920000Y-100870000D02*
X160250000Y-100870000D01*
X159920000Y-107410000D02*
X159920000Y-100870000D01*
X160250000Y-107410000D02*
X159920000Y-107410000D01*
G04 #@! TO.C,R6*
X153575000Y-80545000D02*
X153575000Y-80875000D01*
X160115000Y-80545000D02*
X153575000Y-80545000D01*
X160115000Y-80875000D02*
X160115000Y-80545000D01*
X153575000Y-83285000D02*
X153575000Y-82955000D01*
X160115000Y-83285000D02*
X153575000Y-83285000D01*
X160115000Y-82955000D02*
X160115000Y-83285000D01*
G04 #@! TO.C,R5*
X160115000Y-89635000D02*
X160115000Y-89305000D01*
X153575000Y-89635000D02*
X160115000Y-89635000D01*
X153575000Y-89305000D02*
X153575000Y-89635000D01*
X160115000Y-86895000D02*
X160115000Y-87225000D01*
X153575000Y-86895000D02*
X160115000Y-86895000D01*
X153575000Y-87225000D02*
X153575000Y-86895000D01*
G04 #@! TO.C,R4*
X151230000Y-100870000D02*
X150900000Y-100870000D01*
X151230000Y-107410000D02*
X151230000Y-100870000D01*
X150900000Y-107410000D02*
X151230000Y-107410000D01*
X148490000Y-100870000D02*
X148820000Y-100870000D01*
X148490000Y-107410000D02*
X148490000Y-100870000D01*
X148820000Y-107410000D02*
X148490000Y-107410000D01*
G04 #@! TO.C,R3*
X154840000Y-107410000D02*
X155170000Y-107410000D01*
X154840000Y-100870000D02*
X154840000Y-107410000D01*
X155170000Y-100870000D02*
X154840000Y-100870000D01*
X157580000Y-107410000D02*
X157250000Y-107410000D01*
X157580000Y-100870000D02*
X157580000Y-107410000D01*
X157250000Y-100870000D02*
X157580000Y-100870000D01*
G04 #@! TO.C,R2*
X109120000Y-94710000D02*
X109450000Y-94710000D01*
X109120000Y-88170000D02*
X109120000Y-94710000D01*
X109450000Y-88170000D02*
X109120000Y-88170000D01*
X111860000Y-94710000D02*
X111530000Y-94710000D01*
X111860000Y-88170000D02*
X111860000Y-94710000D01*
X111530000Y-88170000D02*
X111860000Y-88170000D01*
G04 #@! TO.C,R1*
X109120000Y-107410000D02*
X109450000Y-107410000D01*
X109120000Y-100870000D02*
X109120000Y-107410000D01*
X109450000Y-100870000D02*
X109120000Y-100870000D01*
X111860000Y-107410000D02*
X111530000Y-107410000D01*
X111860000Y-100870000D02*
X111860000Y-107410000D01*
X111530000Y-100870000D02*
X111860000Y-100870000D01*
G04 #@! TO.C,Q2*
X135200000Y-78000000D02*
X135200000Y-74400000D01*
X134472795Y-73875816D02*
G75*
G02*
X135200000Y-74400000I-1122795J-2324184D01*
G01*
X132251629Y-73844543D02*
G75*
G03*
X131000000Y-75090000I1098371J-2355457D01*
G01*
X132246158Y-78567199D02*
G75*
G02*
X131000000Y-77340000I1103842J2367199D01*
G01*
X134472795Y-78524184D02*
G75*
G03*
X135200000Y-78000000I-1122795J2324184D01*
G01*
G04 #@! TO.C,Q1*
X139120000Y-74400000D02*
X139120000Y-78000000D01*
X139847205Y-78524184D02*
G75*
G02*
X139120000Y-78000000I1122795J2324184D01*
G01*
X142068371Y-78555457D02*
G75*
G03*
X143320000Y-77310000I-1098371J2355457D01*
G01*
X142073842Y-73832801D02*
G75*
G02*
X143320000Y-75060000I-1103842J-2367199D01*
G01*
X139847205Y-73875816D02*
G75*
G03*
X139120000Y-74400000I1122795J-2324184D01*
G01*
G04 #@! TO.C,JP1*
X105775000Y-79325000D02*
X105775000Y-80725000D01*
X105075000Y-81425000D02*
X104475000Y-81425000D01*
X103775000Y-80725000D02*
X103775000Y-79325000D01*
X104475000Y-78625000D02*
X105075000Y-78625000D01*
X105075000Y-78625000D02*
G75*
G02*
X105775000Y-79325000I0J-700000D01*
G01*
X103775000Y-79325000D02*
G75*
G02*
X104475000Y-78625000I700000J0D01*
G01*
X104475000Y-81425000D02*
G75*
G02*
X103775000Y-80725000I0J700000D01*
G01*
X105775000Y-80725000D02*
G75*
G02*
X105075000Y-81425000I-700000J0D01*
G01*
G04 #@! TO.C,J7*
X119070000Y-72180000D02*
X119070000Y-73430000D01*
X120320000Y-72180000D02*
X119070000Y-72180000D01*
X126220000Y-77680000D02*
X123170000Y-77680000D01*
X126220000Y-74730000D02*
X126220000Y-77680000D01*
X126970000Y-74730000D02*
X126220000Y-74730000D01*
X120120000Y-77680000D02*
X123170000Y-77680000D01*
X120120000Y-74730000D02*
X120120000Y-77680000D01*
X119370000Y-74730000D02*
X120120000Y-74730000D01*
X126970000Y-72480000D02*
X125170000Y-72480000D01*
X126970000Y-73230000D02*
X126970000Y-72480000D01*
X125170000Y-73230000D02*
X126970000Y-73230000D01*
X125170000Y-72480000D02*
X125170000Y-73230000D01*
X121170000Y-72480000D02*
X119370000Y-72480000D01*
X121170000Y-73230000D02*
X121170000Y-72480000D01*
X119370000Y-73230000D02*
X121170000Y-73230000D01*
X119370000Y-72480000D02*
X119370000Y-73230000D01*
X123670000Y-72480000D02*
X122670000Y-72480000D01*
X123670000Y-73230000D02*
X123670000Y-72480000D01*
X122670000Y-73230000D02*
X123670000Y-73230000D01*
X122670000Y-72480000D02*
X122670000Y-73230000D01*
X126980000Y-72470000D02*
X119360000Y-72470000D01*
X126980000Y-78440000D02*
X126980000Y-72470000D01*
X119360000Y-78440000D02*
X126980000Y-78440000D01*
X119360000Y-72470000D02*
X119360000Y-78440000D01*
G04 #@! TO.C,J6*
X108910000Y-72180000D02*
X108910000Y-73430000D01*
X110160000Y-72180000D02*
X108910000Y-72180000D01*
X116060000Y-77680000D02*
X113010000Y-77680000D01*
X116060000Y-74730000D02*
X116060000Y-77680000D01*
X116810000Y-74730000D02*
X116060000Y-74730000D01*
X109960000Y-77680000D02*
X113010000Y-77680000D01*
X109960000Y-74730000D02*
X109960000Y-77680000D01*
X109210000Y-74730000D02*
X109960000Y-74730000D01*
X116810000Y-72480000D02*
X115010000Y-72480000D01*
X116810000Y-73230000D02*
X116810000Y-72480000D01*
X115010000Y-73230000D02*
X116810000Y-73230000D01*
X115010000Y-72480000D02*
X115010000Y-73230000D01*
X111010000Y-72480000D02*
X109210000Y-72480000D01*
X111010000Y-73230000D02*
X111010000Y-72480000D01*
X109210000Y-73230000D02*
X111010000Y-73230000D01*
X109210000Y-72480000D02*
X109210000Y-73230000D01*
X113510000Y-72480000D02*
X112510000Y-72480000D01*
X113510000Y-73230000D02*
X113510000Y-72480000D01*
X112510000Y-73230000D02*
X113510000Y-73230000D01*
X112510000Y-72480000D02*
X112510000Y-73230000D01*
X116820000Y-72470000D02*
X109200000Y-72470000D01*
X116820000Y-78440000D02*
X116820000Y-72470000D01*
X109200000Y-78440000D02*
X116820000Y-78440000D01*
X109200000Y-72470000D02*
X109200000Y-78440000D01*
G04 #@! TO.C,J5*
X153360000Y-72180000D02*
X153360000Y-73430000D01*
X154610000Y-72180000D02*
X153360000Y-72180000D01*
X160510000Y-77680000D02*
X157460000Y-77680000D01*
X160510000Y-74730000D02*
X160510000Y-77680000D01*
X161260000Y-74730000D02*
X160510000Y-74730000D01*
X154410000Y-77680000D02*
X157460000Y-77680000D01*
X154410000Y-74730000D02*
X154410000Y-77680000D01*
X153660000Y-74730000D02*
X154410000Y-74730000D01*
X161260000Y-72480000D02*
X159460000Y-72480000D01*
X161260000Y-73230000D02*
X161260000Y-72480000D01*
X159460000Y-73230000D02*
X161260000Y-73230000D01*
X159460000Y-72480000D02*
X159460000Y-73230000D01*
X155460000Y-72480000D02*
X153660000Y-72480000D01*
X155460000Y-73230000D02*
X155460000Y-72480000D01*
X153660000Y-73230000D02*
X155460000Y-73230000D01*
X153660000Y-72480000D02*
X153660000Y-73230000D01*
X157960000Y-72480000D02*
X156960000Y-72480000D01*
X157960000Y-73230000D02*
X157960000Y-72480000D01*
X156960000Y-73230000D02*
X157960000Y-73230000D01*
X156960000Y-72480000D02*
X156960000Y-73230000D01*
X161270000Y-72470000D02*
X153650000Y-72470000D01*
X161270000Y-78440000D02*
X161270000Y-72470000D01*
X153650000Y-78440000D02*
X161270000Y-78440000D01*
X153650000Y-72470000D02*
X153650000Y-78440000D01*
G04 #@! TO.C,J4*
X164140000Y-116415000D02*
X164140000Y-115165000D01*
X162890000Y-116415000D02*
X164140000Y-116415000D01*
X156990000Y-110915000D02*
X160040000Y-110915000D01*
X156990000Y-113865000D02*
X156990000Y-110915000D01*
X156240000Y-113865000D02*
X156990000Y-113865000D01*
X163090000Y-110915000D02*
X160040000Y-110915000D01*
X163090000Y-113865000D02*
X163090000Y-110915000D01*
X163840000Y-113865000D02*
X163090000Y-113865000D01*
X156240000Y-116115000D02*
X158040000Y-116115000D01*
X156240000Y-115365000D02*
X156240000Y-116115000D01*
X158040000Y-115365000D02*
X156240000Y-115365000D01*
X158040000Y-116115000D02*
X158040000Y-115365000D01*
X162040000Y-116115000D02*
X163840000Y-116115000D01*
X162040000Y-115365000D02*
X162040000Y-116115000D01*
X163840000Y-115365000D02*
X162040000Y-115365000D01*
X163840000Y-116115000D02*
X163840000Y-115365000D01*
X159540000Y-116115000D02*
X160540000Y-116115000D01*
X159540000Y-115365000D02*
X159540000Y-116115000D01*
X160540000Y-115365000D02*
X159540000Y-115365000D01*
X160540000Y-116115000D02*
X160540000Y-115365000D01*
X156230000Y-116125000D02*
X163850000Y-116125000D01*
X156230000Y-110155000D02*
X156230000Y-116125000D01*
X163850000Y-110155000D02*
X156230000Y-110155000D01*
X163850000Y-116125000D02*
X163850000Y-110155000D01*
G04 #@! TO.C,J3*
X154615000Y-116415000D02*
X154615000Y-115165000D01*
X153365000Y-116415000D02*
X154615000Y-116415000D01*
X144965000Y-110915000D02*
X149265000Y-110915000D01*
X144965000Y-113865000D02*
X144965000Y-110915000D01*
X144215000Y-113865000D02*
X144965000Y-113865000D01*
X153565000Y-110915000D02*
X149265000Y-110915000D01*
X153565000Y-113865000D02*
X153565000Y-110915000D01*
X154315000Y-113865000D02*
X153565000Y-113865000D01*
X144215000Y-116115000D02*
X146015000Y-116115000D01*
X144215000Y-115365000D02*
X144215000Y-116115000D01*
X146015000Y-115365000D02*
X144215000Y-115365000D01*
X146015000Y-116115000D02*
X146015000Y-115365000D01*
X152515000Y-116115000D02*
X154315000Y-116115000D01*
X152515000Y-115365000D02*
X152515000Y-116115000D01*
X154315000Y-115365000D02*
X152515000Y-115365000D01*
X154315000Y-116115000D02*
X154315000Y-115365000D01*
X147515000Y-116115000D02*
X151015000Y-116115000D01*
X147515000Y-115365000D02*
X147515000Y-116115000D01*
X151015000Y-115365000D02*
X147515000Y-115365000D01*
X151015000Y-116115000D02*
X151015000Y-115365000D01*
X144205000Y-116125000D02*
X154325000Y-116125000D01*
X144205000Y-110155000D02*
X144205000Y-116125000D01*
X154325000Y-110155000D02*
X144205000Y-110155000D01*
X154325000Y-116125000D02*
X154325000Y-110155000D01*
G04 #@! TO.C,J2*
X102810000Y-99120000D02*
X102810000Y-97790000D01*
X104140000Y-99120000D02*
X102810000Y-99120000D01*
X105410000Y-99120000D02*
X105410000Y-96460000D01*
X105410000Y-96460000D02*
X108010000Y-96460000D01*
X105410000Y-99120000D02*
X108010000Y-99120000D01*
X108010000Y-99120000D02*
X108010000Y-96460000D01*
G04 #@! TO.C,J1*
X112820000Y-103180000D02*
X114070000Y-103180000D01*
X112820000Y-101930000D02*
X112820000Y-103180000D01*
X118320000Y-93530000D02*
X118320000Y-97830000D01*
X115370000Y-93530000D02*
X118320000Y-93530000D01*
X115370000Y-92780000D02*
X115370000Y-93530000D01*
X118320000Y-102130000D02*
X118320000Y-97830000D01*
X115370000Y-102130000D02*
X118320000Y-102130000D01*
X115370000Y-102880000D02*
X115370000Y-102130000D01*
X113120000Y-92780000D02*
X113120000Y-94580000D01*
X113870000Y-92780000D02*
X113120000Y-92780000D01*
X113870000Y-94580000D02*
X113870000Y-92780000D01*
X113120000Y-94580000D02*
X113870000Y-94580000D01*
X113120000Y-101080000D02*
X113120000Y-102880000D01*
X113870000Y-101080000D02*
X113120000Y-101080000D01*
X113870000Y-102880000D02*
X113870000Y-101080000D01*
X113120000Y-102880000D02*
X113870000Y-102880000D01*
X113120000Y-96080000D02*
X113120000Y-99580000D01*
X113870000Y-96080000D02*
X113120000Y-96080000D01*
X113870000Y-99580000D02*
X113870000Y-96080000D01*
X113120000Y-99580000D02*
X113870000Y-99580000D01*
X113110000Y-92770000D02*
X113110000Y-102890000D01*
X119080000Y-92770000D02*
X113110000Y-92770000D01*
X119080000Y-102890000D02*
X119080000Y-92770000D01*
X113110000Y-102890000D02*
X119080000Y-102890000D01*
G04 #@! TO.C,D2*
X111570000Y-83983000D02*
X111726000Y-83983000D01*
X109254000Y-83983000D02*
X109410000Y-83983000D01*
X111569837Y-81381870D02*
G75*
G02*
X111570000Y-83463961I-1079837J-1041130D01*
G01*
X109410163Y-81381870D02*
G75*
G03*
X109410000Y-83463961I1079837J-1041130D01*
G01*
X111568608Y-80750665D02*
G75*
G02*
X111725516Y-83983000I-1078608J-1672335D01*
G01*
X109411392Y-80750665D02*
G75*
G03*
X109254484Y-83983000I1078608J-1672335D01*
G01*
G04 #@! TO.C,D1*
X111570000Y-114463000D02*
X111726000Y-114463000D01*
X109254000Y-114463000D02*
X109410000Y-114463000D01*
X111569837Y-111861870D02*
G75*
G02*
X111570000Y-113943961I-1079837J-1041130D01*
G01*
X109410163Y-111861870D02*
G75*
G03*
X109410000Y-113943961I1079837J-1041130D01*
G01*
X111568608Y-111230665D02*
G75*
G02*
X111725516Y-114463000I-1078608J-1672335D01*
G01*
X109411392Y-111230665D02*
G75*
G03*
X109254484Y-114463000I1078608J-1672335D01*
G01*
G04 #@! TO.C,C5*
X138390000Y-87464000D02*
X138390000Y-87149000D01*
X138390000Y-89889000D02*
X138390000Y-89574000D01*
X143630000Y-87464000D02*
X143630000Y-87149000D01*
X143630000Y-89889000D02*
X143630000Y-89574000D01*
X143630000Y-87149000D02*
X138390000Y-87149000D01*
X143630000Y-89889000D02*
X138390000Y-89889000D01*
G04 #@! TO.C,C4*
X129825000Y-93359000D02*
X129825000Y-92101000D01*
X127985000Y-93359000D02*
X127985000Y-92101000D01*
G04 #@! TO.C,C3*
X141955000Y-97395000D02*
X141955000Y-98653000D01*
X143795000Y-97395000D02*
X143795000Y-98653000D01*
G04 #@! TO.C,C2*
X118994000Y-83789759D02*
X118364000Y-83789759D01*
X118679000Y-83474759D02*
X118679000Y-84104759D01*
X117242000Y-90216000D02*
X116438000Y-90216000D01*
X117473000Y-90176000D02*
X116207000Y-90176000D01*
X117642000Y-90136000D02*
X116038000Y-90136000D01*
X117780000Y-90096000D02*
X115900000Y-90096000D01*
X117899000Y-90056000D02*
X115781000Y-90056000D01*
X118005000Y-90016000D02*
X115675000Y-90016000D01*
X118102000Y-89976000D02*
X115578000Y-89976000D01*
X118190000Y-89936000D02*
X115490000Y-89936000D01*
X118272000Y-89896000D02*
X115408000Y-89896000D01*
X118349000Y-89856000D02*
X115331000Y-89856000D01*
X118421000Y-89816000D02*
X115259000Y-89816000D01*
X118490000Y-89776000D02*
X115190000Y-89776000D01*
X118554000Y-89736000D02*
X115126000Y-89736000D01*
X118616000Y-89696000D02*
X115064000Y-89696000D01*
X118674000Y-89656000D02*
X115006000Y-89656000D01*
X118730000Y-89616000D02*
X114950000Y-89616000D01*
X118784000Y-89576000D02*
X114896000Y-89576000D01*
X118835000Y-89536000D02*
X114845000Y-89536000D01*
X118884000Y-89496000D02*
X114796000Y-89496000D01*
X118932000Y-89456000D02*
X114748000Y-89456000D01*
X118977000Y-89416000D02*
X114703000Y-89416000D01*
X119022000Y-89376000D02*
X114658000Y-89376000D01*
X119064000Y-89336000D02*
X114616000Y-89336000D01*
X119105000Y-89296000D02*
X114575000Y-89296000D01*
X115800000Y-89256000D02*
X114535000Y-89256000D01*
X119145000Y-89256000D02*
X117880000Y-89256000D01*
X115800000Y-89216000D02*
X114497000Y-89216000D01*
X119183000Y-89216000D02*
X117880000Y-89216000D01*
X115800000Y-89176000D02*
X114460000Y-89176000D01*
X119220000Y-89176000D02*
X117880000Y-89176000D01*
X115800000Y-89136000D02*
X114424000Y-89136000D01*
X119256000Y-89136000D02*
X117880000Y-89136000D01*
X115800000Y-89096000D02*
X114390000Y-89096000D01*
X119290000Y-89096000D02*
X117880000Y-89096000D01*
X115800000Y-89056000D02*
X114356000Y-89056000D01*
X119324000Y-89056000D02*
X117880000Y-89056000D01*
X115800000Y-89016000D02*
X114324000Y-89016000D01*
X119356000Y-89016000D02*
X117880000Y-89016000D01*
X115800000Y-88976000D02*
X114292000Y-88976000D01*
X119388000Y-88976000D02*
X117880000Y-88976000D01*
X115800000Y-88936000D02*
X114262000Y-88936000D01*
X119418000Y-88936000D02*
X117880000Y-88936000D01*
X115800000Y-88896000D02*
X114233000Y-88896000D01*
X119447000Y-88896000D02*
X117880000Y-88896000D01*
X115800000Y-88856000D02*
X114204000Y-88856000D01*
X119476000Y-88856000D02*
X117880000Y-88856000D01*
X115800000Y-88816000D02*
X114176000Y-88816000D01*
X119504000Y-88816000D02*
X117880000Y-88816000D01*
X115800000Y-88776000D02*
X114150000Y-88776000D01*
X119530000Y-88776000D02*
X117880000Y-88776000D01*
X115800000Y-88736000D02*
X114124000Y-88736000D01*
X119556000Y-88736000D02*
X117880000Y-88736000D01*
X115800000Y-88696000D02*
X114098000Y-88696000D01*
X119582000Y-88696000D02*
X117880000Y-88696000D01*
X115800000Y-88656000D02*
X114074000Y-88656000D01*
X119606000Y-88656000D02*
X117880000Y-88656000D01*
X115800000Y-88616000D02*
X114050000Y-88616000D01*
X119630000Y-88616000D02*
X117880000Y-88616000D01*
X115800000Y-88576000D02*
X114028000Y-88576000D01*
X119652000Y-88576000D02*
X117880000Y-88576000D01*
X115800000Y-88536000D02*
X114006000Y-88536000D01*
X119674000Y-88536000D02*
X117880000Y-88536000D01*
X115800000Y-88496000D02*
X113984000Y-88496000D01*
X119696000Y-88496000D02*
X117880000Y-88496000D01*
X115800000Y-88456000D02*
X113964000Y-88456000D01*
X119716000Y-88456000D02*
X117880000Y-88456000D01*
X115800000Y-88416000D02*
X113944000Y-88416000D01*
X119736000Y-88416000D02*
X117880000Y-88416000D01*
X115800000Y-88376000D02*
X113924000Y-88376000D01*
X119756000Y-88376000D02*
X117880000Y-88376000D01*
X115800000Y-88336000D02*
X113906000Y-88336000D01*
X119774000Y-88336000D02*
X117880000Y-88336000D01*
X115800000Y-88296000D02*
X113888000Y-88296000D01*
X119792000Y-88296000D02*
X117880000Y-88296000D01*
X115800000Y-88256000D02*
X113870000Y-88256000D01*
X119810000Y-88256000D02*
X117880000Y-88256000D01*
X115800000Y-88216000D02*
X113854000Y-88216000D01*
X119826000Y-88216000D02*
X117880000Y-88216000D01*
X115800000Y-88176000D02*
X113838000Y-88176000D01*
X119842000Y-88176000D02*
X117880000Y-88176000D01*
X115800000Y-88136000D02*
X113822000Y-88136000D01*
X119858000Y-88136000D02*
X117880000Y-88136000D01*
X115800000Y-88096000D02*
X113807000Y-88096000D01*
X119873000Y-88096000D02*
X117880000Y-88096000D01*
X115800000Y-88056000D02*
X113793000Y-88056000D01*
X119887000Y-88056000D02*
X117880000Y-88056000D01*
X115800000Y-88016000D02*
X113779000Y-88016000D01*
X119901000Y-88016000D02*
X117880000Y-88016000D01*
X115800000Y-87976000D02*
X113766000Y-87976000D01*
X119914000Y-87976000D02*
X117880000Y-87976000D01*
X115800000Y-87936000D02*
X113754000Y-87936000D01*
X119926000Y-87936000D02*
X117880000Y-87936000D01*
X115800000Y-87896000D02*
X113742000Y-87896000D01*
X119938000Y-87896000D02*
X117880000Y-87896000D01*
X115800000Y-87856000D02*
X113730000Y-87856000D01*
X119950000Y-87856000D02*
X117880000Y-87856000D01*
X115800000Y-87816000D02*
X113719000Y-87816000D01*
X119961000Y-87816000D02*
X117880000Y-87816000D01*
X115800000Y-87776000D02*
X113709000Y-87776000D01*
X119971000Y-87776000D02*
X117880000Y-87776000D01*
X115800000Y-87736000D02*
X113699000Y-87736000D01*
X119981000Y-87736000D02*
X117880000Y-87736000D01*
X115800000Y-87696000D02*
X113690000Y-87696000D01*
X119990000Y-87696000D02*
X117880000Y-87696000D01*
X115800000Y-87655000D02*
X113681000Y-87655000D01*
X119999000Y-87655000D02*
X117880000Y-87655000D01*
X115800000Y-87615000D02*
X113673000Y-87615000D01*
X120007000Y-87615000D02*
X117880000Y-87615000D01*
X115800000Y-87575000D02*
X113665000Y-87575000D01*
X120015000Y-87575000D02*
X117880000Y-87575000D01*
X115800000Y-87535000D02*
X113658000Y-87535000D01*
X120022000Y-87535000D02*
X117880000Y-87535000D01*
X115800000Y-87495000D02*
X113651000Y-87495000D01*
X120029000Y-87495000D02*
X117880000Y-87495000D01*
X115800000Y-87455000D02*
X113645000Y-87455000D01*
X120035000Y-87455000D02*
X117880000Y-87455000D01*
X115800000Y-87415000D02*
X113639000Y-87415000D01*
X120041000Y-87415000D02*
X117880000Y-87415000D01*
X115800000Y-87375000D02*
X113634000Y-87375000D01*
X120046000Y-87375000D02*
X117880000Y-87375000D01*
X115800000Y-87335000D02*
X113629000Y-87335000D01*
X120051000Y-87335000D02*
X117880000Y-87335000D01*
X115800000Y-87295000D02*
X113625000Y-87295000D01*
X120055000Y-87295000D02*
X117880000Y-87295000D01*
X115800000Y-87255000D02*
X113622000Y-87255000D01*
X120058000Y-87255000D02*
X117880000Y-87255000D01*
X115800000Y-87215000D02*
X113618000Y-87215000D01*
X120062000Y-87215000D02*
X117880000Y-87215000D01*
X120064000Y-87175000D02*
X113616000Y-87175000D01*
X120067000Y-87135000D02*
X113613000Y-87135000D01*
X120068000Y-87095000D02*
X113612000Y-87095000D01*
X120070000Y-87055000D02*
X113610000Y-87055000D01*
X120070000Y-87015000D02*
X113610000Y-87015000D01*
X120070000Y-86975000D02*
X113610000Y-86975000D01*
X120110000Y-86975000D02*
G75*
G03*
X120110000Y-86975000I-3270000J0D01*
G01*
G04 #@! TO.C,C1*
X118994000Y-105379759D02*
X118364000Y-105379759D01*
X118679000Y-105064759D02*
X118679000Y-105694759D01*
X117242000Y-111806000D02*
X116438000Y-111806000D01*
X117473000Y-111766000D02*
X116207000Y-111766000D01*
X117642000Y-111726000D02*
X116038000Y-111726000D01*
X117780000Y-111686000D02*
X115900000Y-111686000D01*
X117899000Y-111646000D02*
X115781000Y-111646000D01*
X118005000Y-111606000D02*
X115675000Y-111606000D01*
X118102000Y-111566000D02*
X115578000Y-111566000D01*
X118190000Y-111526000D02*
X115490000Y-111526000D01*
X118272000Y-111486000D02*
X115408000Y-111486000D01*
X118349000Y-111446000D02*
X115331000Y-111446000D01*
X118421000Y-111406000D02*
X115259000Y-111406000D01*
X118490000Y-111366000D02*
X115190000Y-111366000D01*
X118554000Y-111326000D02*
X115126000Y-111326000D01*
X118616000Y-111286000D02*
X115064000Y-111286000D01*
X118674000Y-111246000D02*
X115006000Y-111246000D01*
X118730000Y-111206000D02*
X114950000Y-111206000D01*
X118784000Y-111166000D02*
X114896000Y-111166000D01*
X118835000Y-111126000D02*
X114845000Y-111126000D01*
X118884000Y-111086000D02*
X114796000Y-111086000D01*
X118932000Y-111046000D02*
X114748000Y-111046000D01*
X118977000Y-111006000D02*
X114703000Y-111006000D01*
X119022000Y-110966000D02*
X114658000Y-110966000D01*
X119064000Y-110926000D02*
X114616000Y-110926000D01*
X119105000Y-110886000D02*
X114575000Y-110886000D01*
X115800000Y-110846000D02*
X114535000Y-110846000D01*
X119145000Y-110846000D02*
X117880000Y-110846000D01*
X115800000Y-110806000D02*
X114497000Y-110806000D01*
X119183000Y-110806000D02*
X117880000Y-110806000D01*
X115800000Y-110766000D02*
X114460000Y-110766000D01*
X119220000Y-110766000D02*
X117880000Y-110766000D01*
X115800000Y-110726000D02*
X114424000Y-110726000D01*
X119256000Y-110726000D02*
X117880000Y-110726000D01*
X115800000Y-110686000D02*
X114390000Y-110686000D01*
X119290000Y-110686000D02*
X117880000Y-110686000D01*
X115800000Y-110646000D02*
X114356000Y-110646000D01*
X119324000Y-110646000D02*
X117880000Y-110646000D01*
X115800000Y-110606000D02*
X114324000Y-110606000D01*
X119356000Y-110606000D02*
X117880000Y-110606000D01*
X115800000Y-110566000D02*
X114292000Y-110566000D01*
X119388000Y-110566000D02*
X117880000Y-110566000D01*
X115800000Y-110526000D02*
X114262000Y-110526000D01*
X119418000Y-110526000D02*
X117880000Y-110526000D01*
X115800000Y-110486000D02*
X114233000Y-110486000D01*
X119447000Y-110486000D02*
X117880000Y-110486000D01*
X115800000Y-110446000D02*
X114204000Y-110446000D01*
X119476000Y-110446000D02*
X117880000Y-110446000D01*
X115800000Y-110406000D02*
X114176000Y-110406000D01*
X119504000Y-110406000D02*
X117880000Y-110406000D01*
X115800000Y-110366000D02*
X114150000Y-110366000D01*
X119530000Y-110366000D02*
X117880000Y-110366000D01*
X115800000Y-110326000D02*
X114124000Y-110326000D01*
X119556000Y-110326000D02*
X117880000Y-110326000D01*
X115800000Y-110286000D02*
X114098000Y-110286000D01*
X119582000Y-110286000D02*
X117880000Y-110286000D01*
X115800000Y-110246000D02*
X114074000Y-110246000D01*
X119606000Y-110246000D02*
X117880000Y-110246000D01*
X115800000Y-110206000D02*
X114050000Y-110206000D01*
X119630000Y-110206000D02*
X117880000Y-110206000D01*
X115800000Y-110166000D02*
X114028000Y-110166000D01*
X119652000Y-110166000D02*
X117880000Y-110166000D01*
X115800000Y-110126000D02*
X114006000Y-110126000D01*
X119674000Y-110126000D02*
X117880000Y-110126000D01*
X115800000Y-110086000D02*
X113984000Y-110086000D01*
X119696000Y-110086000D02*
X117880000Y-110086000D01*
X115800000Y-110046000D02*
X113964000Y-110046000D01*
X119716000Y-110046000D02*
X117880000Y-110046000D01*
X115800000Y-110006000D02*
X113944000Y-110006000D01*
X119736000Y-110006000D02*
X117880000Y-110006000D01*
X115800000Y-109966000D02*
X113924000Y-109966000D01*
X119756000Y-109966000D02*
X117880000Y-109966000D01*
X115800000Y-109926000D02*
X113906000Y-109926000D01*
X119774000Y-109926000D02*
X117880000Y-109926000D01*
X115800000Y-109886000D02*
X113888000Y-109886000D01*
X119792000Y-109886000D02*
X117880000Y-109886000D01*
X115800000Y-109846000D02*
X113870000Y-109846000D01*
X119810000Y-109846000D02*
X117880000Y-109846000D01*
X115800000Y-109806000D02*
X113854000Y-109806000D01*
X119826000Y-109806000D02*
X117880000Y-109806000D01*
X115800000Y-109766000D02*
X113838000Y-109766000D01*
X119842000Y-109766000D02*
X117880000Y-109766000D01*
X115800000Y-109726000D02*
X113822000Y-109726000D01*
X119858000Y-109726000D02*
X117880000Y-109726000D01*
X115800000Y-109686000D02*
X113807000Y-109686000D01*
X119873000Y-109686000D02*
X117880000Y-109686000D01*
X115800000Y-109646000D02*
X113793000Y-109646000D01*
X119887000Y-109646000D02*
X117880000Y-109646000D01*
X115800000Y-109606000D02*
X113779000Y-109606000D01*
X119901000Y-109606000D02*
X117880000Y-109606000D01*
X115800000Y-109566000D02*
X113766000Y-109566000D01*
X119914000Y-109566000D02*
X117880000Y-109566000D01*
X115800000Y-109526000D02*
X113754000Y-109526000D01*
X119926000Y-109526000D02*
X117880000Y-109526000D01*
X115800000Y-109486000D02*
X113742000Y-109486000D01*
X119938000Y-109486000D02*
X117880000Y-109486000D01*
X115800000Y-109446000D02*
X113730000Y-109446000D01*
X119950000Y-109446000D02*
X117880000Y-109446000D01*
X115800000Y-109406000D02*
X113719000Y-109406000D01*
X119961000Y-109406000D02*
X117880000Y-109406000D01*
X115800000Y-109366000D02*
X113709000Y-109366000D01*
X119971000Y-109366000D02*
X117880000Y-109366000D01*
X115800000Y-109326000D02*
X113699000Y-109326000D01*
X119981000Y-109326000D02*
X117880000Y-109326000D01*
X115800000Y-109286000D02*
X113690000Y-109286000D01*
X119990000Y-109286000D02*
X117880000Y-109286000D01*
X115800000Y-109245000D02*
X113681000Y-109245000D01*
X119999000Y-109245000D02*
X117880000Y-109245000D01*
X115800000Y-109205000D02*
X113673000Y-109205000D01*
X120007000Y-109205000D02*
X117880000Y-109205000D01*
X115800000Y-109165000D02*
X113665000Y-109165000D01*
X120015000Y-109165000D02*
X117880000Y-109165000D01*
X115800000Y-109125000D02*
X113658000Y-109125000D01*
X120022000Y-109125000D02*
X117880000Y-109125000D01*
X115800000Y-109085000D02*
X113651000Y-109085000D01*
X120029000Y-109085000D02*
X117880000Y-109085000D01*
X115800000Y-109045000D02*
X113645000Y-109045000D01*
X120035000Y-109045000D02*
X117880000Y-109045000D01*
X115800000Y-109005000D02*
X113639000Y-109005000D01*
X120041000Y-109005000D02*
X117880000Y-109005000D01*
X115800000Y-108965000D02*
X113634000Y-108965000D01*
X120046000Y-108965000D02*
X117880000Y-108965000D01*
X115800000Y-108925000D02*
X113629000Y-108925000D01*
X120051000Y-108925000D02*
X117880000Y-108925000D01*
X115800000Y-108885000D02*
X113625000Y-108885000D01*
X120055000Y-108885000D02*
X117880000Y-108885000D01*
X115800000Y-108845000D02*
X113622000Y-108845000D01*
X120058000Y-108845000D02*
X117880000Y-108845000D01*
X115800000Y-108805000D02*
X113618000Y-108805000D01*
X120062000Y-108805000D02*
X117880000Y-108805000D01*
X120064000Y-108765000D02*
X113616000Y-108765000D01*
X120067000Y-108725000D02*
X113613000Y-108725000D01*
X120068000Y-108685000D02*
X113612000Y-108685000D01*
X120070000Y-108645000D02*
X113610000Y-108645000D01*
X120070000Y-108605000D02*
X113610000Y-108605000D01*
X120070000Y-108565000D02*
X113610000Y-108565000D01*
X120110000Y-108565000D02*
G75*
G03*
X120110000Y-108565000I-3270000J0D01*
G01*
G04 #@! TO.C,U1*
D10*
X141482380Y-94106904D02*
X142291904Y-94106904D01*
X142387142Y-94059285D01*
X142434761Y-94011666D01*
X142482380Y-93916428D01*
X142482380Y-93725952D01*
X142434761Y-93630714D01*
X142387142Y-93583095D01*
X142291904Y-93535476D01*
X141482380Y-93535476D01*
X142482380Y-92535476D02*
X142482380Y-93106904D01*
X142482380Y-92821190D02*
X141482380Y-92821190D01*
X141625238Y-92916428D01*
X141720476Y-93011666D01*
X141768095Y-93106904D01*
G04 #@! TO.C,RV4*
X124427380Y-111210238D02*
X123951190Y-111543571D01*
X124427380Y-111781666D02*
X123427380Y-111781666D01*
X123427380Y-111400714D01*
X123475000Y-111305476D01*
X123522619Y-111257857D01*
X123617857Y-111210238D01*
X123760714Y-111210238D01*
X123855952Y-111257857D01*
X123903571Y-111305476D01*
X123951190Y-111400714D01*
X123951190Y-111781666D01*
X123427380Y-110924523D02*
X124427380Y-110591190D01*
X123427380Y-110257857D01*
X123760714Y-109495952D02*
X124427380Y-109495952D01*
X123379761Y-109734047D02*
X124094047Y-109972142D01*
X124094047Y-109353095D01*
G04 #@! TO.C,RV3*
X152702380Y-77305238D02*
X152226190Y-77638571D01*
X152702380Y-77876666D02*
X151702380Y-77876666D01*
X151702380Y-77495714D01*
X151750000Y-77400476D01*
X151797619Y-77352857D01*
X151892857Y-77305238D01*
X152035714Y-77305238D01*
X152130952Y-77352857D01*
X152178571Y-77400476D01*
X152226190Y-77495714D01*
X152226190Y-77876666D01*
X151702380Y-77019523D02*
X152702380Y-76686190D01*
X151702380Y-76352857D01*
X151702380Y-76114761D02*
X151702380Y-75495714D01*
X152083333Y-75829047D01*
X152083333Y-75686190D01*
X152130952Y-75590952D01*
X152178571Y-75543333D01*
X152273809Y-75495714D01*
X152511904Y-75495714D01*
X152607142Y-75543333D01*
X152654761Y-75590952D01*
X152702380Y-75686190D01*
X152702380Y-75971904D01*
X152654761Y-76067142D01*
X152607142Y-76114761D01*
G04 #@! TO.C,RV2*
X165774761Y-78312380D02*
X165441428Y-77836190D01*
X165203333Y-78312380D02*
X165203333Y-77312380D01*
X165584285Y-77312380D01*
X165679523Y-77360000D01*
X165727142Y-77407619D01*
X165774761Y-77502857D01*
X165774761Y-77645714D01*
X165727142Y-77740952D01*
X165679523Y-77788571D01*
X165584285Y-77836190D01*
X165203333Y-77836190D01*
X166060476Y-77312380D02*
X166393809Y-78312380D01*
X166727142Y-77312380D01*
X167012857Y-77407619D02*
X167060476Y-77360000D01*
X167155714Y-77312380D01*
X167393809Y-77312380D01*
X167489047Y-77360000D01*
X167536666Y-77407619D01*
X167584285Y-77502857D01*
X167584285Y-77598095D01*
X167536666Y-77740952D01*
X166965238Y-78312380D01*
X167584285Y-78312380D01*
G04 #@! TO.C,RV1*
X165774761Y-98877380D02*
X165441428Y-98401190D01*
X165203333Y-98877380D02*
X165203333Y-97877380D01*
X165584285Y-97877380D01*
X165679523Y-97925000D01*
X165727142Y-97972619D01*
X165774761Y-98067857D01*
X165774761Y-98210714D01*
X165727142Y-98305952D01*
X165679523Y-98353571D01*
X165584285Y-98401190D01*
X165203333Y-98401190D01*
X166060476Y-97877380D02*
X166393809Y-98877380D01*
X166727142Y-97877380D01*
X167584285Y-98877380D02*
X167012857Y-98877380D01*
X167298571Y-98877380D02*
X167298571Y-97877380D01*
X167203333Y-98020238D01*
X167108095Y-98115476D01*
X167012857Y-98163095D01*
G04 #@! TO.C,R16*
X128262142Y-84907380D02*
X127928809Y-84431190D01*
X127690714Y-84907380D02*
X127690714Y-83907380D01*
X128071666Y-83907380D01*
X128166904Y-83955000D01*
X128214523Y-84002619D01*
X128262142Y-84097857D01*
X128262142Y-84240714D01*
X128214523Y-84335952D01*
X128166904Y-84383571D01*
X128071666Y-84431190D01*
X127690714Y-84431190D01*
X129214523Y-84907380D02*
X128643095Y-84907380D01*
X128928809Y-84907380D02*
X128928809Y-83907380D01*
X128833571Y-84050238D01*
X128738333Y-84145476D01*
X128643095Y-84193095D01*
X130071666Y-83907380D02*
X129881190Y-83907380D01*
X129785952Y-83955000D01*
X129738333Y-84002619D01*
X129643095Y-84145476D01*
X129595476Y-84335952D01*
X129595476Y-84716904D01*
X129643095Y-84812142D01*
X129690714Y-84859761D01*
X129785952Y-84907380D01*
X129976428Y-84907380D01*
X130071666Y-84859761D01*
X130119285Y-84812142D01*
X130166904Y-84716904D01*
X130166904Y-84478809D01*
X130119285Y-84383571D01*
X130071666Y-84335952D01*
X129976428Y-84288333D01*
X129785952Y-84288333D01*
X129690714Y-84335952D01*
X129643095Y-84383571D01*
X129595476Y-84478809D01*
G04 #@! TO.C,R15*
X142867142Y-86177380D02*
X142533809Y-85701190D01*
X142295714Y-86177380D02*
X142295714Y-85177380D01*
X142676666Y-85177380D01*
X142771904Y-85225000D01*
X142819523Y-85272619D01*
X142867142Y-85367857D01*
X142867142Y-85510714D01*
X142819523Y-85605952D01*
X142771904Y-85653571D01*
X142676666Y-85701190D01*
X142295714Y-85701190D01*
X143819523Y-86177380D02*
X143248095Y-86177380D01*
X143533809Y-86177380D02*
X143533809Y-85177380D01*
X143438571Y-85320238D01*
X143343333Y-85415476D01*
X143248095Y-85463095D01*
X144724285Y-85177380D02*
X144248095Y-85177380D01*
X144200476Y-85653571D01*
X144248095Y-85605952D01*
X144343333Y-85558333D01*
X144581428Y-85558333D01*
X144676666Y-85605952D01*
X144724285Y-85653571D01*
X144771904Y-85748809D01*
X144771904Y-85986904D01*
X144724285Y-86082142D01*
X144676666Y-86129761D01*
X144581428Y-86177380D01*
X144343333Y-86177380D01*
X144248095Y-86129761D01*
X144200476Y-86082142D01*
G04 #@! TO.C,R14*
X128262142Y-86812380D02*
X127928809Y-86336190D01*
X127690714Y-86812380D02*
X127690714Y-85812380D01*
X128071666Y-85812380D01*
X128166904Y-85860000D01*
X128214523Y-85907619D01*
X128262142Y-86002857D01*
X128262142Y-86145714D01*
X128214523Y-86240952D01*
X128166904Y-86288571D01*
X128071666Y-86336190D01*
X127690714Y-86336190D01*
X129214523Y-86812380D02*
X128643095Y-86812380D01*
X128928809Y-86812380D02*
X128928809Y-85812380D01*
X128833571Y-85955238D01*
X128738333Y-86050476D01*
X128643095Y-86098095D01*
X130071666Y-86145714D02*
X130071666Y-86812380D01*
X129833571Y-85764761D02*
X129595476Y-86479047D01*
X130214523Y-86479047D01*
G04 #@! TO.C,R13*
X133877142Y-71672380D02*
X133543809Y-71196190D01*
X133305714Y-71672380D02*
X133305714Y-70672380D01*
X133686666Y-70672380D01*
X133781904Y-70720000D01*
X133829523Y-70767619D01*
X133877142Y-70862857D01*
X133877142Y-71005714D01*
X133829523Y-71100952D01*
X133781904Y-71148571D01*
X133686666Y-71196190D01*
X133305714Y-71196190D01*
X134829523Y-71672380D02*
X134258095Y-71672380D01*
X134543809Y-71672380D02*
X134543809Y-70672380D01*
X134448571Y-70815238D01*
X134353333Y-70910476D01*
X134258095Y-70958095D01*
X135162857Y-70672380D02*
X135781904Y-70672380D01*
X135448571Y-71053333D01*
X135591428Y-71053333D01*
X135686666Y-71100952D01*
X135734285Y-71148571D01*
X135781904Y-71243809D01*
X135781904Y-71481904D01*
X135734285Y-71577142D01*
X135686666Y-71624761D01*
X135591428Y-71672380D01*
X135305714Y-71672380D01*
X135210476Y-71624761D01*
X135162857Y-71577142D01*
G04 #@! TO.C,R12*
X123007380Y-91447857D02*
X122531190Y-91781190D01*
X123007380Y-92019285D02*
X122007380Y-92019285D01*
X122007380Y-91638333D01*
X122055000Y-91543095D01*
X122102619Y-91495476D01*
X122197857Y-91447857D01*
X122340714Y-91447857D01*
X122435952Y-91495476D01*
X122483571Y-91543095D01*
X122531190Y-91638333D01*
X122531190Y-92019285D01*
X123007380Y-90495476D02*
X123007380Y-91066904D01*
X123007380Y-90781190D02*
X122007380Y-90781190D01*
X122150238Y-90876428D01*
X122245476Y-90971666D01*
X122293095Y-91066904D01*
X122102619Y-90114523D02*
X122055000Y-90066904D01*
X122007380Y-89971666D01*
X122007380Y-89733571D01*
X122055000Y-89638333D01*
X122102619Y-89590714D01*
X122197857Y-89543095D01*
X122293095Y-89543095D01*
X122435952Y-89590714D01*
X123007380Y-90162142D01*
X123007380Y-89543095D01*
G04 #@! TO.C,R11*
X132707142Y-105862380D02*
X132373809Y-105386190D01*
X132135714Y-105862380D02*
X132135714Y-104862380D01*
X132516666Y-104862380D01*
X132611904Y-104910000D01*
X132659523Y-104957619D01*
X132707142Y-105052857D01*
X132707142Y-105195714D01*
X132659523Y-105290952D01*
X132611904Y-105338571D01*
X132516666Y-105386190D01*
X132135714Y-105386190D01*
X133659523Y-105862380D02*
X133088095Y-105862380D01*
X133373809Y-105862380D02*
X133373809Y-104862380D01*
X133278571Y-105005238D01*
X133183333Y-105100476D01*
X133088095Y-105148095D01*
X134611904Y-105862380D02*
X134040476Y-105862380D01*
X134326190Y-105862380D02*
X134326190Y-104862380D01*
X134230952Y-105005238D01*
X134135714Y-105100476D01*
X134040476Y-105148095D01*
G04 #@! TO.C,R10*
X140962142Y-105862380D02*
X140628809Y-105386190D01*
X140390714Y-105862380D02*
X140390714Y-104862380D01*
X140771666Y-104862380D01*
X140866904Y-104910000D01*
X140914523Y-104957619D01*
X140962142Y-105052857D01*
X140962142Y-105195714D01*
X140914523Y-105290952D01*
X140866904Y-105338571D01*
X140771666Y-105386190D01*
X140390714Y-105386190D01*
X141914523Y-105862380D02*
X141343095Y-105862380D01*
X141628809Y-105862380D02*
X141628809Y-104862380D01*
X141533571Y-105005238D01*
X141438333Y-105100476D01*
X141343095Y-105148095D01*
X142533571Y-104862380D02*
X142628809Y-104862380D01*
X142724047Y-104910000D01*
X142771666Y-104957619D01*
X142819285Y-105052857D01*
X142866904Y-105243333D01*
X142866904Y-105481428D01*
X142819285Y-105671904D01*
X142771666Y-105767142D01*
X142724047Y-105814761D01*
X142628809Y-105862380D01*
X142533571Y-105862380D01*
X142438333Y-105814761D01*
X142390714Y-105767142D01*
X142343095Y-105671904D01*
X142295476Y-105481428D01*
X142295476Y-105243333D01*
X142343095Y-105052857D01*
X142390714Y-104957619D01*
X142438333Y-104910000D01*
X142533571Y-104862380D01*
G04 #@! TO.C,R9*
X150328333Y-86177380D02*
X149995000Y-85701190D01*
X149756904Y-86177380D02*
X149756904Y-85177380D01*
X150137857Y-85177380D01*
X150233095Y-85225000D01*
X150280714Y-85272619D01*
X150328333Y-85367857D01*
X150328333Y-85510714D01*
X150280714Y-85605952D01*
X150233095Y-85653571D01*
X150137857Y-85701190D01*
X149756904Y-85701190D01*
X150804523Y-86177380D02*
X150995000Y-86177380D01*
X151090238Y-86129761D01*
X151137857Y-86082142D01*
X151233095Y-85939285D01*
X151280714Y-85748809D01*
X151280714Y-85367857D01*
X151233095Y-85272619D01*
X151185476Y-85225000D01*
X151090238Y-85177380D01*
X150899761Y-85177380D01*
X150804523Y-85225000D01*
X150756904Y-85272619D01*
X150709285Y-85367857D01*
X150709285Y-85605952D01*
X150756904Y-85701190D01*
X150804523Y-85748809D01*
X150899761Y-85796428D01*
X151090238Y-85796428D01*
X151185476Y-85748809D01*
X151233095Y-85701190D01*
X151280714Y-85605952D01*
G04 #@! TO.C,R8*
X153487380Y-97956666D02*
X153011190Y-98290000D01*
X153487380Y-98528095D02*
X152487380Y-98528095D01*
X152487380Y-98147142D01*
X152535000Y-98051904D01*
X152582619Y-98004285D01*
X152677857Y-97956666D01*
X152820714Y-97956666D01*
X152915952Y-98004285D01*
X152963571Y-98051904D01*
X153011190Y-98147142D01*
X153011190Y-98528095D01*
X152915952Y-97385238D02*
X152868333Y-97480476D01*
X152820714Y-97528095D01*
X152725476Y-97575714D01*
X152677857Y-97575714D01*
X152582619Y-97528095D01*
X152535000Y-97480476D01*
X152487380Y-97385238D01*
X152487380Y-97194761D01*
X152535000Y-97099523D01*
X152582619Y-97051904D01*
X152677857Y-97004285D01*
X152725476Y-97004285D01*
X152820714Y-97051904D01*
X152868333Y-97099523D01*
X152915952Y-97194761D01*
X152915952Y-97385238D01*
X152963571Y-97480476D01*
X153011190Y-97528095D01*
X153106428Y-97575714D01*
X153296904Y-97575714D01*
X153392142Y-97528095D01*
X153439761Y-97480476D01*
X153487380Y-97385238D01*
X153487380Y-97194761D01*
X153439761Y-97099523D01*
X153392142Y-97051904D01*
X153296904Y-97004285D01*
X153106428Y-97004285D01*
X153011190Y-97051904D01*
X152963571Y-97099523D01*
X152915952Y-97194761D01*
G04 #@! TO.C,R7*
X161742380Y-97956666D02*
X161266190Y-98290000D01*
X161742380Y-98528095D02*
X160742380Y-98528095D01*
X160742380Y-98147142D01*
X160790000Y-98051904D01*
X160837619Y-98004285D01*
X160932857Y-97956666D01*
X161075714Y-97956666D01*
X161170952Y-98004285D01*
X161218571Y-98051904D01*
X161266190Y-98147142D01*
X161266190Y-98528095D01*
X160742380Y-97623333D02*
X160742380Y-96956666D01*
X161742380Y-97385238D01*
G04 #@! TO.C,R6*
X160488333Y-80462380D02*
X160155000Y-79986190D01*
X159916904Y-80462380D02*
X159916904Y-79462380D01*
X160297857Y-79462380D01*
X160393095Y-79510000D01*
X160440714Y-79557619D01*
X160488333Y-79652857D01*
X160488333Y-79795714D01*
X160440714Y-79890952D01*
X160393095Y-79938571D01*
X160297857Y-79986190D01*
X159916904Y-79986190D01*
X161345476Y-79462380D02*
X161155000Y-79462380D01*
X161059761Y-79510000D01*
X161012142Y-79557619D01*
X160916904Y-79700476D01*
X160869285Y-79890952D01*
X160869285Y-80271904D01*
X160916904Y-80367142D01*
X160964523Y-80414761D01*
X161059761Y-80462380D01*
X161250238Y-80462380D01*
X161345476Y-80414761D01*
X161393095Y-80367142D01*
X161440714Y-80271904D01*
X161440714Y-80033809D01*
X161393095Y-79938571D01*
X161345476Y-79890952D01*
X161250238Y-79843333D01*
X161059761Y-79843333D01*
X160964523Y-79890952D01*
X160916904Y-79938571D01*
X160869285Y-80033809D01*
G04 #@! TO.C,R5*
X150328333Y-89352380D02*
X149995000Y-88876190D01*
X149756904Y-89352380D02*
X149756904Y-88352380D01*
X150137857Y-88352380D01*
X150233095Y-88400000D01*
X150280714Y-88447619D01*
X150328333Y-88542857D01*
X150328333Y-88685714D01*
X150280714Y-88780952D01*
X150233095Y-88828571D01*
X150137857Y-88876190D01*
X149756904Y-88876190D01*
X151233095Y-88352380D02*
X150756904Y-88352380D01*
X150709285Y-88828571D01*
X150756904Y-88780952D01*
X150852142Y-88733333D01*
X151090238Y-88733333D01*
X151185476Y-88780952D01*
X151233095Y-88828571D01*
X151280714Y-88923809D01*
X151280714Y-89161904D01*
X151233095Y-89257142D01*
X151185476Y-89304761D01*
X151090238Y-89352380D01*
X150852142Y-89352380D01*
X150756904Y-89304761D01*
X150709285Y-89257142D01*
G04 #@! TO.C,R4*
X150312380Y-97956666D02*
X149836190Y-98290000D01*
X150312380Y-98528095D02*
X149312380Y-98528095D01*
X149312380Y-98147142D01*
X149360000Y-98051904D01*
X149407619Y-98004285D01*
X149502857Y-97956666D01*
X149645714Y-97956666D01*
X149740952Y-98004285D01*
X149788571Y-98051904D01*
X149836190Y-98147142D01*
X149836190Y-98528095D01*
X149645714Y-97099523D02*
X150312380Y-97099523D01*
X149264761Y-97337619D02*
X149979047Y-97575714D01*
X149979047Y-96956666D01*
G04 #@! TO.C,R3*
X156662380Y-97956666D02*
X156186190Y-98290000D01*
X156662380Y-98528095D02*
X155662380Y-98528095D01*
X155662380Y-98147142D01*
X155710000Y-98051904D01*
X155757619Y-98004285D01*
X155852857Y-97956666D01*
X155995714Y-97956666D01*
X156090952Y-98004285D01*
X156138571Y-98051904D01*
X156186190Y-98147142D01*
X156186190Y-98528095D01*
X155662380Y-97623333D02*
X155662380Y-97004285D01*
X156043333Y-97337619D01*
X156043333Y-97194761D01*
X156090952Y-97099523D01*
X156138571Y-97051904D01*
X156233809Y-97004285D01*
X156471904Y-97004285D01*
X156567142Y-97051904D01*
X156614761Y-97099523D01*
X156662380Y-97194761D01*
X156662380Y-97480476D01*
X156614761Y-97575714D01*
X156567142Y-97623333D01*
G04 #@! TO.C,R2*
X108402380Y-93511666D02*
X107926190Y-93845000D01*
X108402380Y-94083095D02*
X107402380Y-94083095D01*
X107402380Y-93702142D01*
X107450000Y-93606904D01*
X107497619Y-93559285D01*
X107592857Y-93511666D01*
X107735714Y-93511666D01*
X107830952Y-93559285D01*
X107878571Y-93606904D01*
X107926190Y-93702142D01*
X107926190Y-94083095D01*
X107497619Y-93130714D02*
X107450000Y-93083095D01*
X107402380Y-92987857D01*
X107402380Y-92749761D01*
X107450000Y-92654523D01*
X107497619Y-92606904D01*
X107592857Y-92559285D01*
X107688095Y-92559285D01*
X107830952Y-92606904D01*
X108402380Y-93178333D01*
X108402380Y-92559285D01*
G04 #@! TO.C,R1*
X108402380Y-106211666D02*
X107926190Y-106545000D01*
X108402380Y-106783095D02*
X107402380Y-106783095D01*
X107402380Y-106402142D01*
X107450000Y-106306904D01*
X107497619Y-106259285D01*
X107592857Y-106211666D01*
X107735714Y-106211666D01*
X107830952Y-106259285D01*
X107878571Y-106306904D01*
X107926190Y-106402142D01*
X107926190Y-106783095D01*
X108402380Y-105259285D02*
X108402380Y-105830714D01*
X108402380Y-105545000D02*
X107402380Y-105545000D01*
X107545238Y-105640238D01*
X107640476Y-105735476D01*
X107688095Y-105830714D01*
G04 #@! TO.C,Q2*
X129707619Y-76285238D02*
X129660000Y-76380476D01*
X129564761Y-76475714D01*
X129421904Y-76618571D01*
X129374285Y-76713809D01*
X129374285Y-76809047D01*
X129612380Y-76761428D02*
X129564761Y-76856666D01*
X129469523Y-76951904D01*
X129279047Y-76999523D01*
X128945714Y-76999523D01*
X128755238Y-76951904D01*
X128660000Y-76856666D01*
X128612380Y-76761428D01*
X128612380Y-76570952D01*
X128660000Y-76475714D01*
X128755238Y-76380476D01*
X128945714Y-76332857D01*
X129279047Y-76332857D01*
X129469523Y-76380476D01*
X129564761Y-76475714D01*
X129612380Y-76570952D01*
X129612380Y-76761428D01*
X128707619Y-75951904D02*
X128660000Y-75904285D01*
X128612380Y-75809047D01*
X128612380Y-75570952D01*
X128660000Y-75475714D01*
X128707619Y-75428095D01*
X128802857Y-75380476D01*
X128898095Y-75380476D01*
X129040952Y-75428095D01*
X129612380Y-75999523D01*
X129612380Y-75380476D01*
G04 #@! TO.C,Q1*
X145707619Y-76305238D02*
X145660000Y-76400476D01*
X145564761Y-76495714D01*
X145421904Y-76638571D01*
X145374285Y-76733809D01*
X145374285Y-76829047D01*
X145612380Y-76781428D02*
X145564761Y-76876666D01*
X145469523Y-76971904D01*
X145279047Y-77019523D01*
X144945714Y-77019523D01*
X144755238Y-76971904D01*
X144660000Y-76876666D01*
X144612380Y-76781428D01*
X144612380Y-76590952D01*
X144660000Y-76495714D01*
X144755238Y-76400476D01*
X144945714Y-76352857D01*
X145279047Y-76352857D01*
X145469523Y-76400476D01*
X145564761Y-76495714D01*
X145612380Y-76590952D01*
X145612380Y-76781428D01*
X145612380Y-75400476D02*
X145612380Y-75971904D01*
X145612380Y-75686190D02*
X144612380Y-75686190D01*
X144755238Y-75781428D01*
X144850476Y-75876666D01*
X144898095Y-75971904D01*
G04 #@! TO.C,JP1*
X103941666Y-76922380D02*
X103941666Y-77636666D01*
X103894047Y-77779523D01*
X103798809Y-77874761D01*
X103655952Y-77922380D01*
X103560714Y-77922380D01*
X104417857Y-77922380D02*
X104417857Y-76922380D01*
X104798809Y-76922380D01*
X104894047Y-76970000D01*
X104941666Y-77017619D01*
X104989285Y-77112857D01*
X104989285Y-77255714D01*
X104941666Y-77350952D01*
X104894047Y-77398571D01*
X104798809Y-77446190D01*
X104417857Y-77446190D01*
X105941666Y-77922380D02*
X105370238Y-77922380D01*
X105655952Y-77922380D02*
X105655952Y-76922380D01*
X105560714Y-77065238D01*
X105465476Y-77160476D01*
X105370238Y-77208095D01*
G04 #@! TO.C,J7*
X127936666Y-72477380D02*
X127936666Y-73191666D01*
X127889047Y-73334523D01*
X127793809Y-73429761D01*
X127650952Y-73477380D01*
X127555714Y-73477380D01*
X128317619Y-72477380D02*
X128984285Y-72477380D01*
X128555714Y-73477380D01*
G04 #@! TO.C,J6*
X107616666Y-72477380D02*
X107616666Y-73191666D01*
X107569047Y-73334523D01*
X107473809Y-73429761D01*
X107330952Y-73477380D01*
X107235714Y-73477380D01*
X108521428Y-72477380D02*
X108330952Y-72477380D01*
X108235714Y-72525000D01*
X108188095Y-72572619D01*
X108092857Y-72715476D01*
X108045238Y-72905952D01*
X108045238Y-73286904D01*
X108092857Y-73382142D01*
X108140476Y-73429761D01*
X108235714Y-73477380D01*
X108426190Y-73477380D01*
X108521428Y-73429761D01*
X108569047Y-73382142D01*
X108616666Y-73286904D01*
X108616666Y-73048809D01*
X108569047Y-72953571D01*
X108521428Y-72905952D01*
X108426190Y-72858333D01*
X108235714Y-72858333D01*
X108140476Y-72905952D01*
X108092857Y-72953571D01*
X108045238Y-73048809D01*
G04 #@! TO.C,J5*
X162226666Y-72477380D02*
X162226666Y-73191666D01*
X162179047Y-73334523D01*
X162083809Y-73429761D01*
X161940952Y-73477380D01*
X161845714Y-73477380D01*
X163179047Y-72477380D02*
X162702857Y-72477380D01*
X162655238Y-72953571D01*
X162702857Y-72905952D01*
X162798095Y-72858333D01*
X163036190Y-72858333D01*
X163131428Y-72905952D01*
X163179047Y-72953571D01*
X163226666Y-73048809D01*
X163226666Y-73286904D01*
X163179047Y-73382142D01*
X163131428Y-73429761D01*
X163036190Y-73477380D01*
X162798095Y-73477380D01*
X162702857Y-73429761D01*
X162655238Y-73382142D01*
G04 #@! TO.C,J4*
X158416666Y-108672380D02*
X158416666Y-109386666D01*
X158369047Y-109529523D01*
X158273809Y-109624761D01*
X158130952Y-109672380D01*
X158035714Y-109672380D01*
X159321428Y-109005714D02*
X159321428Y-109672380D01*
X159083333Y-108624761D02*
X158845238Y-109339047D01*
X159464285Y-109339047D01*
G04 #@! TO.C,J3*
X144446666Y-108672380D02*
X144446666Y-109386666D01*
X144399047Y-109529523D01*
X144303809Y-109624761D01*
X144160952Y-109672380D01*
X144065714Y-109672380D01*
X144827619Y-108672380D02*
X145446666Y-108672380D01*
X145113333Y-109053333D01*
X145256190Y-109053333D01*
X145351428Y-109100952D01*
X145399047Y-109148571D01*
X145446666Y-109243809D01*
X145446666Y-109481904D01*
X145399047Y-109577142D01*
X145351428Y-109624761D01*
X145256190Y-109672380D01*
X144970476Y-109672380D01*
X144875238Y-109624761D01*
X144827619Y-109577142D01*
G04 #@! TO.C,J2*
X103171666Y-94702380D02*
X103171666Y-95416666D01*
X103124047Y-95559523D01*
X103028809Y-95654761D01*
X102885952Y-95702380D01*
X102790714Y-95702380D01*
X103600238Y-94797619D02*
X103647857Y-94750000D01*
X103743095Y-94702380D01*
X103981190Y-94702380D01*
X104076428Y-94750000D01*
X104124047Y-94797619D01*
X104171666Y-94892857D01*
X104171666Y-94988095D01*
X104124047Y-95130952D01*
X103552619Y-95702380D01*
X104171666Y-95702380D01*
G04 #@! TO.C,J1*
X111472380Y-98163333D02*
X112186666Y-98163333D01*
X112329523Y-98210952D01*
X112424761Y-98306190D01*
X112472380Y-98449047D01*
X112472380Y-98544285D01*
X112472380Y-97163333D02*
X112472380Y-97734761D01*
X112472380Y-97449047D02*
X111472380Y-97449047D01*
X111615238Y-97544285D01*
X111710476Y-97639523D01*
X111758095Y-97734761D01*
G04 #@! TO.C,D2*
X107982380Y-83161095D02*
X106982380Y-83161095D01*
X106982380Y-82923000D01*
X107030000Y-82780142D01*
X107125238Y-82684904D01*
X107220476Y-82637285D01*
X107410952Y-82589666D01*
X107553809Y-82589666D01*
X107744285Y-82637285D01*
X107839523Y-82684904D01*
X107934761Y-82780142D01*
X107982380Y-82923000D01*
X107982380Y-83161095D01*
X107077619Y-82208714D02*
X107030000Y-82161095D01*
X106982380Y-82065857D01*
X106982380Y-81827761D01*
X107030000Y-81732523D01*
X107077619Y-81684904D01*
X107172857Y-81637285D01*
X107268095Y-81637285D01*
X107410952Y-81684904D01*
X107982380Y-82256333D01*
X107982380Y-81637285D01*
G04 #@! TO.C,D1*
X107982380Y-113641095D02*
X106982380Y-113641095D01*
X106982380Y-113403000D01*
X107030000Y-113260142D01*
X107125238Y-113164904D01*
X107220476Y-113117285D01*
X107410952Y-113069666D01*
X107553809Y-113069666D01*
X107744285Y-113117285D01*
X107839523Y-113164904D01*
X107934761Y-113260142D01*
X107982380Y-113403000D01*
X107982380Y-113641095D01*
X107982380Y-112117285D02*
X107982380Y-112688714D01*
X107982380Y-112403000D02*
X106982380Y-112403000D01*
X107125238Y-112498238D01*
X107220476Y-112593476D01*
X107268095Y-112688714D01*
G04 #@! TO.C,C5*
X143343333Y-91376142D02*
X143295714Y-91423761D01*
X143152857Y-91471380D01*
X143057619Y-91471380D01*
X142914761Y-91423761D01*
X142819523Y-91328523D01*
X142771904Y-91233285D01*
X142724285Y-91042809D01*
X142724285Y-90899952D01*
X142771904Y-90709476D01*
X142819523Y-90614238D01*
X142914761Y-90519000D01*
X143057619Y-90471380D01*
X143152857Y-90471380D01*
X143295714Y-90519000D01*
X143343333Y-90566619D01*
X144248095Y-90471380D02*
X143771904Y-90471380D01*
X143724285Y-90947571D01*
X143771904Y-90899952D01*
X143867142Y-90852333D01*
X144105238Y-90852333D01*
X144200476Y-90899952D01*
X144248095Y-90947571D01*
X144295714Y-91042809D01*
X144295714Y-91280904D01*
X144248095Y-91376142D01*
X144200476Y-91423761D01*
X144105238Y-91471380D01*
X143867142Y-91471380D01*
X143771904Y-91423761D01*
X143724285Y-91376142D01*
G04 #@! TO.C,C4*
X129262142Y-96686666D02*
X129309761Y-96734285D01*
X129357380Y-96877142D01*
X129357380Y-96972380D01*
X129309761Y-97115238D01*
X129214523Y-97210476D01*
X129119285Y-97258095D01*
X128928809Y-97305714D01*
X128785952Y-97305714D01*
X128595476Y-97258095D01*
X128500238Y-97210476D01*
X128405000Y-97115238D01*
X128357380Y-96972380D01*
X128357380Y-96877142D01*
X128405000Y-96734285D01*
X128452619Y-96686666D01*
X128690714Y-95829523D02*
X129357380Y-95829523D01*
X128309761Y-96067619D02*
X129024047Y-96305714D01*
X129024047Y-95686666D01*
G04 #@! TO.C,C3*
X145282142Y-98190666D02*
X145329761Y-98238285D01*
X145377380Y-98381142D01*
X145377380Y-98476380D01*
X145329761Y-98619238D01*
X145234523Y-98714476D01*
X145139285Y-98762095D01*
X144948809Y-98809714D01*
X144805952Y-98809714D01*
X144615476Y-98762095D01*
X144520238Y-98714476D01*
X144425000Y-98619238D01*
X144377380Y-98476380D01*
X144377380Y-98381142D01*
X144425000Y-98238285D01*
X144472619Y-98190666D01*
X144377380Y-97857333D02*
X144377380Y-97238285D01*
X144758333Y-97571619D01*
X144758333Y-97428761D01*
X144805952Y-97333523D01*
X144853571Y-97285904D01*
X144948809Y-97238285D01*
X145186904Y-97238285D01*
X145282142Y-97285904D01*
X145329761Y-97333523D01*
X145377380Y-97428761D01*
X145377380Y-97714476D01*
X145329761Y-97809714D01*
X145282142Y-97857333D01*
G04 #@! TO.C,C2*
X121597142Y-87141666D02*
X121644761Y-87189285D01*
X121692380Y-87332142D01*
X121692380Y-87427380D01*
X121644761Y-87570238D01*
X121549523Y-87665476D01*
X121454285Y-87713095D01*
X121263809Y-87760714D01*
X121120952Y-87760714D01*
X120930476Y-87713095D01*
X120835238Y-87665476D01*
X120740000Y-87570238D01*
X120692380Y-87427380D01*
X120692380Y-87332142D01*
X120740000Y-87189285D01*
X120787619Y-87141666D01*
X120787619Y-86760714D02*
X120740000Y-86713095D01*
X120692380Y-86617857D01*
X120692380Y-86379761D01*
X120740000Y-86284523D01*
X120787619Y-86236904D01*
X120882857Y-86189285D01*
X120978095Y-86189285D01*
X121120952Y-86236904D01*
X121692380Y-86808333D01*
X121692380Y-86189285D01*
G04 #@! TO.C,C1*
X121597142Y-108731666D02*
X121644761Y-108779285D01*
X121692380Y-108922142D01*
X121692380Y-109017380D01*
X121644761Y-109160238D01*
X121549523Y-109255476D01*
X121454285Y-109303095D01*
X121263809Y-109350714D01*
X121120952Y-109350714D01*
X120930476Y-109303095D01*
X120835238Y-109255476D01*
X120740000Y-109160238D01*
X120692380Y-109017380D01*
X120692380Y-108922142D01*
X120740000Y-108779285D01*
X120787619Y-108731666D01*
X121692380Y-107779285D02*
X121692380Y-108350714D01*
X121692380Y-108065000D02*
X120692380Y-108065000D01*
X120835238Y-108160238D01*
X120930476Y-108255476D01*
X120978095Y-108350714D01*
G04 #@! TD*
M02*
